<svg xmlns="http://www.w3.org/2000/svg" xmlns:xlink="http://www.w3.org/1999/xlink" version="1.1" width="1000" height="1000" viewBox="0 0 1000 1000" xml:space="preserve">
<desc>Created with Fabric.js 3.5.0</desc>
<defs>
</defs>
<rect x="0" y="0" width="100%" height="100%" fill="rgba(255,255,255,0)"/>
<g transform="matrix(19.388 -5.9033 5.9033 19.388 694.9112 684.4588)" id="772622">
<path style="stroke: none; stroke-width: 1; stroke-dasharray: none; stroke-linecap: butt; stroke-dashoffset: 0; stroke-linejoin: miter; stroke-miterlimit: 4; is-custom-font: none; font-file-url: none; fill: rgb(0,158,247); fill-rule: evenodd; opacity: 1;" vector-effect="non-scaling-stroke" transform=" translate(-11.9995, -12.0005)" d="M 21.521 10.146 c -0.41 -0.059 -0.846 -0.428 -0.973 -0.82 l -0.609 -1.481 c -0.191 -0.365 -0.146 -0.935 0.1 -1.264 l 0.99 -1.318 c 0.246 -0.33 0.227 -0.854 -0.047 -1.162 l -1.084 -1.086 c -0.309 -0.272 -0.832 -0.293 -1.164 -0.045 l -1.316 0.988 c -0.33 0.248 -0.898 0.293 -1.264 0.101 l -1.48 -0.609 c -0.395 -0.126 -0.764 -0.562 -0.82 -0.971 l -0.234 -1.629 c -0.057 -0.409 -0.441 -0.778 -0.85 -0.822 c 0 0 -0.255 -0.026 -0.77 -0.026 c -0.514 0 -0.769 0.026 -0.769 0.026 c -0.41 0.044 -0.794 0.413 -0.852 0.822 l -0.233 1.629 c -0.058 0.409 -0.427 0.845 -0.82 0.971 l -1.48 0.609 C 7.48 4.25 6.912 4.206 6.582 3.958 L 5.264 2.969 c -0.33 -0.248 -0.854 -0.228 -1.163 0.045 L 3.017 4.1 C 2.745 4.409 2.723 4.932 2.971 5.262 l 0.988 1.318 C 4.208 6.91 4.252 7.479 4.061 7.844 L 3.45 9.326 c -0.125 0.393 -0.562 0.762 -0.971 0.82 L 0.85 10.377 c -0.408 0.059 -0.777 0.442 -0.82 0.853 c 0 0 -0.027 0.255 -0.027 0.77 s 0.027 0.77 0.027 0.77 c 0.043 0.411 0.412 0.793 0.82 0.852 l 1.629 0.232 c 0.408 0.059 0.846 0.428 0.971 0.82 l 0.611 1.48 c 0.191 0.365 0.146 0.936 -0.102 1.264 l -0.988 1.318 c -0.248 0.33 -0.308 0.779 -0.132 0.994 c 0.175 0.217 0.677 0.752 0.678 0.754 s 0.171 0.156 0.375 0.344 s 1.042 0.449 1.372 0.203 l 1.317 -0.99 c 0.33 -0.246 0.898 -0.293 1.264 -0.1 l 1.48 0.609 c 0.394 0.125 0.763 0.562 0.82 0.971 l 0.233 1.629 c 0.058 0.408 0.441 0.779 0.852 0.822 c 0 0 0.255 0.027 0.769 0.027 c 0.515 0 0.77 -0.027 0.77 -0.027 c 0.409 -0.043 0.793 -0.414 0.85 -0.822 l 0.234 -1.629 c 0.057 -0.408 0.426 -0.846 0.82 -0.971 l 1.48 -0.611 c 0.365 -0.191 0.934 -0.146 1.264 0.102 l 1.318 0.99 c 0.332 0.246 0.854 0.227 1.164 -0.047 l 1.082 -1.084 c 0.273 -0.311 0.293 -0.834 0.047 -1.164 l -0.99 -1.318 c -0.246 -0.328 -0.291 -0.898 -0.1 -1.264 l 0.609 -1.48 c 0.127 -0.393 0.562 -0.762 0.973 -0.82 l 1.627 -0.232 c 0.41 -0.059 0.779 -0.441 0.822 -0.852 c 0 0 0.027 -0.255 0.027 -0.77 s -0.027 -0.77 -0.027 -0.77 c -0.043 -0.41 -0.412 -0.794 -0.822 -0.853 L 21.521 10.146 z M 12 15 C 10.343 15 9 13.656 9 12 C 9 10.343 10.343 9 12 9 c 1.657 0 3 1.344 3 3 C 15 13.656 13.656 15 12 15 z" stroke-linecap="round"/>
</g>
<g transform="matrix(20.2668 0 0 20.2668 362.8277 319.0424)" id="245214">
<path style="stroke: none; stroke-width: 1; stroke-dasharray: none; stroke-linecap: butt; stroke-dashoffset: 0; stroke-linejoin: miter; stroke-miterlimit: 4; is-custom-font: none; font-file-url: none; fill: rgb(0,158,247); fill-rule: evenodd; opacity: 1;" vector-effect="non-scaling-stroke" transform=" translate(-11.9995, -12.0005)" d="M 21.521 10.146 c -0.41 -0.059 -0.846 -0.428 -0.973 -0.82 l -0.609 -1.481 c -0.191 -0.365 -0.146 -0.935 0.1 -1.264 l 0.99 -1.318 c 0.246 -0.33 0.227 -0.854 -0.047 -1.162 l -1.084 -1.086 c -0.309 -0.272 -0.832 -0.293 -1.164 -0.045 l -1.316 0.988 c -0.33 0.248 -0.898 0.293 -1.264 0.101 l -1.48 -0.609 c -0.395 -0.126 -0.764 -0.562 -0.82 -0.971 l -0.234 -1.629 c -0.057 -0.409 -0.441 -0.778 -0.85 -0.822 c 0 0 -0.255 -0.026 -0.77 -0.026 c -0.514 0 -0.769 0.026 -0.769 0.026 c -0.41 0.044 -0.794 0.413 -0.852 0.822 l -0.233 1.629 c -0.058 0.409 -0.427 0.845 -0.82 0.971 l -1.48 0.609 C 7.48 4.25 6.912 4.206 6.582 3.958 L 5.264 2.969 c -0.33 -0.248 -0.854 -0.228 -1.163 0.045 L 3.017 4.1 C 2.745 4.409 2.723 4.932 2.971 5.262 l 0.988 1.318 C 4.208 6.91 4.252 7.479 4.061 7.844 L 3.45 9.326 c -0.125 0.393 -0.562 0.762 -0.971 0.82 L 0.85 10.377 c -0.408 0.059 -0.777 0.442 -0.82 0.853 c 0 0 -0.027 0.255 -0.027 0.77 s 0.027 0.77 0.027 0.77 c 0.043 0.411 0.412 0.793 0.82 0.852 l 1.629 0.232 c 0.408 0.059 0.846 0.428 0.971 0.82 l 0.611 1.48 c 0.191 0.365 0.146 0.936 -0.102 1.264 l -0.988 1.318 c -0.248 0.33 -0.308 0.779 -0.132 0.994 c 0.175 0.217 0.677 0.752 0.678 0.754 s 0.171 0.156 0.375 0.344 s 1.042 0.449 1.372 0.203 l 1.317 -0.99 c 0.33 -0.246 0.898 -0.293 1.264 -0.1 l 1.48 0.609 c 0.394 0.125 0.763 0.562 0.82 0.971 l 0.233 1.629 c 0.058 0.408 0.441 0.779 0.852 0.822 c 0 0 0.255 0.027 0.769 0.027 c 0.515 0 0.77 -0.027 0.77 -0.027 c 0.409 -0.043 0.793 -0.414 0.85 -0.822 l 0.234 -1.629 c 0.057 -0.408 0.426 -0.846 0.82 -0.971 l 1.48 -0.611 c 0.365 -0.191 0.934 -0.146 1.264 0.102 l 1.318 0.99 c 0.332 0.246 0.854 0.227 1.164 -0.047 l 1.082 -1.084 c 0.273 -0.311 0.293 -0.834 0.047 -1.164 l -0.99 -1.318 c -0.246 -0.328 -0.291 -0.898 -0.1 -1.264 l 0.609 -1.48 c 0.127 -0.393 0.562 -0.762 0.973 -0.82 l 1.627 -0.232 c 0.41 -0.059 0.779 -0.441 0.822 -0.852 c 0 0 0.027 -0.255 0.027 -0.77 s -0.027 -0.77 -0.027 -0.77 c -0.043 -0.41 -0.412 -0.794 -0.822 -0.853 L 21.521 10.146 z M 12 15 C 10.343 15 9 13.656 9 12 C 9 10.343 10.343 9 12 9 c 1.657 0 3 1.344 3 3 C 15 13.656 13.656 15 12 15 z" stroke-linecap="round"/>
</g>
</svg>