<svg width="24" height="25" viewBox="0 0 24 25" fill="none" xmlns="http://www.w3.org/2000/svg">
<path d="M7 8.20268H4C2.9 8.20268 2 7.2922 2 6.17939V4.1561C2 3.04329 2.9 2.13281 4 2.13281H7C8.1 2.13281 9 3.04329 9 4.1561V6.17939C9 7.2922 8.1 8.20268 7 8.20268Z" stroke="#009EF7" stroke-width="1.5" stroke-linecap="round" stroke-linejoin="round"/>
<path d="M20.8 7.19111H17.2C16.54 7.19111 16 6.64481 16 5.97712V4.35852C16 3.69083 16.54 3.14453 17.2 3.14453H20.8C21.46 3.14453 22 3.69083 22 4.35852V5.97712C22 6.64481 21.46 7.19111 20.8 7.19111Z" stroke="#009EF7" stroke-width="1.5" stroke-linecap="round" stroke-linejoin="round"/>
<path d="M20.8 14.778H17.2C16.54 14.778 16 14.2317 16 13.564V11.9454C16 11.2777 16.54 10.7314 17.2 10.7314H20.8C21.46 10.7314 22 11.2777 22 11.9454V13.564C22 14.2317 21.46 14.778 20.8 14.778Z" stroke="#009EF7" stroke-width="1.5" stroke-linecap="round" stroke-linejoin="round"/>
<path d="M9 5.16797H16" stroke="#009EF7" stroke-width="1.5" stroke-miterlimit="10" stroke-linecap="round" stroke-linejoin="round"/>
<path d="M12.5 5.16797V18.3193C12.5 19.4322 13.4 20.3426 14.5 20.3426H16" stroke="#009EF7" stroke-width="1.5" stroke-miterlimit="10" stroke-linecap="round" stroke-linejoin="round"/>
<path d="M12.5 12.7549H16" stroke="#009EF7" stroke-width="1.5" stroke-miterlimit="10" stroke-linecap="round" stroke-linejoin="round"/>
<path d="M20.8 22.3659H17.2C16.54 22.3659 16 21.8196 16 21.1519V19.5333C16 18.8656 16.54 18.3193 17.2 18.3193H20.8C21.46 18.3193 22 18.8656 22 19.5333V21.1519C22 21.8196 21.46 22.3659 20.8 22.3659Z" stroke="#009EF7" stroke-width="1.5" stroke-linecap="round" stroke-linejoin="round"/>
</svg>