<svg width="234" height="19" viewBox="0 0 234 19" fill="none" xmlns="http://www.w3.org/2000/svg">
<rect x="54" y="0.0664062" width="180" height="18" rx="9" fill="#F0F0F0"/>
<rect y="0.0664062" width="165" height="18" rx="9" fill="#52CD50"/>
<path d="M74.9418 5.93841H70.2498V5.11041H75.9618V5.81841L71.8218 13.2224H70.8138L74.9418 5.93841ZM80.2608 12.4784C80.9688 12.4784 81.5328 12.2144 81.9528 11.6624C82.3728 11.1224 82.5888 10.2704 82.5888 9.11841C82.5888 7.96641 82.3728 7.11441 81.9528 6.55041C81.5208 5.98641 80.9568 5.69841 80.2608 5.69841C79.5408 5.69841 78.9648 5.98641 78.5568 6.53841C78.1488 7.10241 77.9448 7.96641 77.9448 9.11841C77.9448 10.2704 78.1488 11.1224 78.5568 11.6624C78.9648 12.2144 79.5408 12.4784 80.2608 12.4784ZM80.2608 13.3184C79.7088 13.3184 79.2288 13.2224 78.8208 13.0064C78.4128 12.8024 78.0768 12.5144 77.8128 12.1424C77.5488 11.7824 77.3448 11.3384 77.2248 10.8224C77.0928 10.3064 77.0328 9.74241 77.0328 9.11841C77.0328 8.50641 77.0928 7.94241 77.2248 7.42641C77.3448 6.92241 77.5488 6.47841 77.8128 6.09441C78.0768 5.71041 78.4128 5.42241 78.8208 5.20641C79.2288 4.99041 79.7088 4.88241 80.2608 4.88241C80.8008 4.88241 81.2688 4.99041 81.6768 5.20641C82.0848 5.42241 82.4208 5.71041 82.6848 6.09441C82.9488 6.47841 83.1408 6.92241 83.2728 7.42641C83.3928 7.94241 83.4648 8.50641 83.4648 9.11841C83.4648 9.74241 83.3928 10.3064 83.2728 10.8224C83.1408 11.3384 82.9488 11.7824 82.6848 12.1424C82.4208 12.5144 82.0848 12.8024 81.6768 13.0064C81.2688 13.2224 80.8008 13.3184 80.2608 13.3184ZM86.0949 13.2224L93.1149 3.17841H94.1109L87.0909 13.2224H86.0949ZM93.0429 13.3424C92.6349 13.3424 92.2869 13.2704 91.9989 13.1144C91.6989 12.9704 91.4589 12.7544 91.2669 12.4784C91.0749 12.2144 90.9429 11.8904 90.8469 11.5184C90.7509 11.1584 90.7149 10.7504 90.7149 10.2944C90.7149 9.85041 90.7509 9.44241 90.8469 9.08241C90.9429 8.72241 91.0749 8.39841 91.2669 8.12241C91.4589 7.85841 91.6989 7.64241 91.9989 7.49841C92.2869 7.35441 92.6349 7.27041 93.0429 7.27041C93.4269 7.27041 93.7749 7.35441 94.0749 7.49841C94.3629 7.64241 94.6149 7.85841 94.8069 8.12241C94.9989 8.38641 95.1309 8.71041 95.2269 9.07041C95.3229 9.44241 95.3709 9.85041 95.3709 10.2944C95.3709 10.7504 95.3229 11.1584 95.2269 11.5304C95.1309 11.9024 94.9989 12.2264 94.8069 12.4904C94.6149 12.7544 94.3629 12.9704 94.0749 13.1144C93.7749 13.2704 93.4269 13.3424 93.0429 13.3424ZM93.0429 12.5264C93.4869 12.5264 93.8469 12.3584 94.1109 11.9984C94.3749 11.6384 94.5069 11.0744 94.5069 10.2944C94.5069 9.52641 94.3749 8.96241 94.1109 8.60241C93.8469 8.25441 93.4869 8.07441 93.0429 8.07441C92.5869 8.07441 92.2389 8.25441 91.9749 8.60241C91.7109 8.96241 91.5789 9.52641 91.5789 10.2944C91.5789 11.0744 91.7109 11.6384 91.9749 11.9984C92.2389 12.3584 92.5989 12.5264 93.0429 12.5264ZM87.1629 9.11841C86.7549 9.11841 86.4069 9.04641 86.1189 8.89041C85.8189 8.74641 85.5789 8.53041 85.3869 8.25441C85.1949 7.99041 85.0629 7.66641 84.9669 7.29441C84.8709 6.93441 84.8349 6.52641 84.8349 6.07041C84.8349 5.62641 84.8709 5.21841 84.9669 4.85841C85.0629 4.49841 85.1949 4.17441 85.3869 3.89841C85.5789 3.63441 85.8189 3.41841 86.1189 3.27441C86.4069 3.13041 86.7549 3.04641 87.1629 3.04641C87.5469 3.04641 87.8949 3.13041 88.1949 3.27441C88.4829 3.41841 88.7349 3.63441 88.9269 3.89841C89.1189 4.16241 89.2509 4.48641 89.3469 4.84641C89.4429 5.21841 89.4909 5.62641 89.4909 6.07041C89.4909 6.52641 89.4429 6.93441 89.3469 7.30641C89.2509 7.67841 89.1189 8.00241 88.9269 8.26641C88.7349 8.53041 88.4829 8.74641 88.1949 8.89041C87.8949 9.04641 87.5469 9.11841 87.1629 9.11841ZM87.1629 8.30241C87.6069 8.30241 87.9669 8.13441 88.2309 7.77441C88.4949 7.41441 88.6269 6.85041 88.6269 6.07041C88.6269 5.30241 88.4949 4.73841 88.2309 4.37841C87.9669 4.03041 87.6069 3.85041 87.1629 3.85041C86.7069 3.85041 86.3589 4.03041 86.0949 4.37841C85.8309 4.73841 85.6989 5.30241 85.6989 6.07041C85.6989 6.85041 85.8309 7.41441 86.0949 7.77441C86.3589 8.13441 86.7189 8.30241 87.1629 8.30241Z" fill="white"/>
</svg>
