<svg width="588" height="283" viewBox="0 0 588 283" fill="none" xmlns="http://www.w3.org/2000/svg">
<path d="M0 9.79943C0 4.38734 4.38736 0 9.79945 0H578.201C583.613 0 588 4.38736 588 9.79945V273.201C588 278.613 583.613 283 578.201 283H9.79943C4.38735 283 0 278.613 0 273.201V9.79943Z" fill="white"/>
<path d="M532.02 226.808C531.792 226.808 531.528 226.748 531.216 226.604L531.528 225.812C531.756 225.908 531.936 225.956 532.068 225.956C532.26 225.956 532.404 225.92 532.512 225.848C532.608 225.776 532.692 225.668 532.752 225.536C532.8 225.416 532.836 225.26 532.86 225.092C532.872 224.924 532.884 224.756 532.884 224.588V217.484H533.736V224.588C533.736 224.876 533.712 225.164 533.664 225.428C533.616 225.692 533.532 225.932 533.412 226.136C533.292 226.352 533.112 226.508 532.884 226.628C532.656 226.748 532.368 226.808 532.02 226.808ZM538.546 226.796C538.15 226.796 537.802 226.748 537.49 226.628C537.178 226.52 536.83 226.34 536.422 226.1L536.818 225.344C537.19 225.56 537.502 225.704 537.766 225.8C538.018 225.896 538.294 225.944 538.594 225.944C539.11 225.944 539.518 225.824 539.806 225.584C540.094 225.344 540.25 225.008 540.25 224.576V224.156H539.686C539.158 224.156 538.654 224.108 538.174 223.988C537.682 223.868 537.238 223.676 536.854 223.412C536.47 223.148 536.158 222.812 535.918 222.38C535.678 221.948 535.57 221.432 535.57 220.82C535.57 220.34 535.666 219.884 535.858 219.476C536.05 219.068 536.326 218.708 536.686 218.408C537.046 218.12 537.478 217.892 537.982 217.724C538.486 217.568 539.05 217.484 539.686 217.484H541.102V223.304H542.962V224.156H541.102V224.576C541.102 225.272 540.862 225.812 540.394 226.208C539.926 226.604 539.314 226.796 538.546 226.796ZM536.422 220.82C536.422 221.24 536.494 221.6 536.65 221.912C536.794 222.224 537.01 222.476 537.274 222.68C537.538 222.884 537.85 223.04 538.21 223.148C538.57 223.256 538.942 223.304 539.35 223.304H540.25V218.336H539.35C538.99 218.336 538.63 218.396 538.282 218.516C537.922 218.636 537.61 218.804 537.334 219.02C537.058 219.236 536.842 219.5 536.674 219.8C536.506 220.1 536.422 220.436 536.422 220.82ZM542.633 223.304H544.373C544.349 223.268 544.325 223.1 544.277 222.812C544.229 222.524 544.205 222.224 544.205 221.936C544.205 221.48 544.253 221.072 544.373 220.688C544.481 220.304 544.649 219.98 544.877 219.704C545.093 219.44 545.369 219.224 545.681 219.068C545.993 218.924 546.365 218.84 546.773 218.84C547.181 218.84 547.541 218.924 547.853 219.068C548.165 219.224 548.429 219.44 548.645 219.704C548.861 219.98 549.029 220.304 549.137 220.688C549.245 221.072 549.305 221.48 549.305 221.936C549.305 222.224 549.281 222.512 549.245 222.8C549.197 223.088 549.173 223.256 549.161 223.304H550.673C550.721 223.088 550.757 222.812 550.805 222.476C550.841 222.152 550.865 221.84 550.865 221.552C550.865 221.036 550.829 220.58 550.757 220.172C550.685 219.776 550.565 219.38 550.373 218.972C550.097 218.396 549.677 217.952 549.101 217.628C548.525 217.304 547.805 217.136 546.953 217.136C546.473 217.136 546.017 217.22 545.585 217.376C545.153 217.532 544.733 217.724 544.301 217.952L543.941 217.172C544.529 216.872 545.069 216.644 545.573 216.5C546.065 216.356 546.617 216.272 547.241 216.272C547.685 216.272 548.105 216.332 548.513 216.452C548.909 216.572 549.269 216.74 549.605 216.932C549.929 217.136 550.217 217.364 550.469 217.628C550.721 217.892 550.925 218.18 551.081 218.468C551.309 218.924 551.477 219.392 551.573 219.884C551.669 220.388 551.717 220.892 551.717 221.396C551.717 221.768 551.693 222.128 551.645 222.476C551.597 222.824 551.561 223.1 551.525 223.304H553.073V224.156H542.633V223.304ZM545.057 221.936C545.057 222.236 545.069 222.524 545.117 222.788C545.153 223.052 545.177 223.232 545.201 223.304H548.309C548.321 223.232 548.345 223.052 548.393 222.788C548.429 222.524 548.453 222.248 548.453 221.936C548.453 221.624 548.417 221.324 548.345 221.048C548.273 220.772 548.165 220.532 548.021 220.328C547.877 220.136 547.697 219.98 547.493 219.86C547.289 219.752 547.049 219.692 546.773 219.692C546.485 219.692 546.233 219.752 546.017 219.86C545.801 219.968 545.633 220.124 545.489 220.316C545.345 220.52 545.237 220.76 545.165 221.036C545.093 221.312 545.057 221.612 545.057 221.936ZM552.983 223.304H555.695V218.084H556.547V223.304H558.659C559.091 223.304 559.439 223.184 559.715 222.92C559.979 222.656 560.123 222.272 560.123 221.768V218.084H560.975V221.672C560.975 221.912 561.035 222.128 561.131 222.344C561.227 222.56 561.359 222.752 561.527 222.92C561.695 223.088 561.911 223.22 562.151 223.316C562.391 223.412 562.667 223.46 562.979 223.46C563.603 223.46 564.059 223.292 564.359 222.944C564.647 222.608 564.803 222.152 564.803 221.588V216.644H565.655V221.468C565.655 221.612 565.643 221.744 565.631 221.864C565.619 221.984 565.607 222.092 565.595 222.164C565.667 222.332 565.763 222.488 565.883 222.632C566.003 222.776 566.135 222.908 566.303 223.004C566.471 223.1 566.663 223.184 566.903 223.232C567.131 223.28 567.467 223.304 567.899 223.304V224.156C567.395 224.156 567.011 224.132 566.723 224.06C566.435 223.988 566.195 223.904 565.991 223.784C565.775 223.664 565.607 223.532 565.463 223.388C565.319 223.244 565.259 223.172 565.271 223.184C565.151 223.472 564.875 223.724 564.467 223.94C564.047 224.168 563.555 224.276 562.979 224.276C562.415 224.276 561.911 224.156 561.467 223.916C561.011 223.676 560.735 223.436 560.615 223.172C560.519 223.364 560.291 223.58 559.931 223.808C559.571 224.048 559.139 224.156 558.659 224.156H552.983V223.304ZM561.587 216.248C561.407 216.248 561.251 216.188 561.131 216.056C560.999 215.936 560.939 215.78 560.939 215.6C560.939 215.432 560.999 215.276 561.131 215.144C561.251 215.024 561.407 214.952 561.587 214.952C561.755 214.952 561.911 215.024 562.043 215.144C562.163 215.276 562.235 215.432 562.235 215.6C562.235 215.78 562.163 215.936 562.043 216.056C561.911 216.188 561.755 216.248 561.587 216.248ZM559.439 216.248C559.259 216.248 559.103 216.188 558.983 216.056C558.851 215.936 558.791 215.78 558.791 215.6C558.791 215.432 558.851 215.276 558.983 215.144C559.103 215.024 559.259 214.952 559.439 214.952C559.607 214.952 559.763 215.024 559.895 215.144C560.015 215.276 560.087 215.432 560.087 215.6C560.087 215.78 560.015 215.936 559.895 216.056C559.763 216.188 559.607 216.248 559.439 216.248ZM560.507 214.64C560.327 214.64 560.171 214.58 560.051 214.448C559.919 214.328 559.859 214.172 559.859 213.992C559.859 213.824 559.919 213.668 560.051 213.536C560.171 213.416 560.327 213.344 560.507 213.344C560.675 213.344 560.831 213.416 560.963 213.536C561.083 213.668 561.155 213.824 561.155 213.992C561.155 214.172 561.083 214.328 560.963 214.448C560.831 214.58 560.675 214.64 560.507 214.64ZM567.815 223.304H569.687V214.112H571.727V214.964H570.539V224.156H567.815V223.304ZM573.743 214.112H574.595V224.156H573.743V214.112Z" fill="#181C32"/>
<path d="M303.145 24.188V25.182H299.617C299.001 25.182 298.413 25.112 297.853 24.972C297.279 24.832 296.775 24.594 296.341 24.272C295.893 23.964 295.543 23.558 295.277 23.054C295.011 22.564 294.885 21.976 294.885 21.29C294.885 20.744 294.983 20.226 295.207 19.75C295.431 19.274 295.753 18.868 296.173 18.518C296.593 18.168 297.083 17.888 297.671 17.692C298.245 17.496 298.889 17.398 299.617 17.398H300.275V16.698H301.269V24.188H303.145ZM300.275 24.188V18.392H299.225C298.805 18.392 298.385 18.476 297.979 18.616C297.573 18.756 297.209 18.952 296.901 19.204C296.593 19.456 296.341 19.75 296.159 20.114C295.963 20.478 295.879 20.87 295.879 21.29C295.879 21.752 295.963 22.158 296.131 22.522C296.299 22.886 296.537 23.18 296.845 23.418C297.139 23.67 297.489 23.852 297.909 23.992C298.315 24.132 298.749 24.188 299.225 24.188H300.275ZM302.226 24.188H305.39V17.398H306.384V24.188H309.38V25.182H302.226V24.188ZM307.014 28.08C306.804 28.08 306.622 28.01 306.482 27.856C306.328 27.716 306.258 27.534 306.258 27.324C306.258 27.128 306.328 26.946 306.482 26.792C306.622 26.652 306.804 26.568 307.014 26.568C307.21 26.568 307.392 26.652 307.546 26.792C307.686 26.946 307.77 27.128 307.77 27.324C307.77 27.534 307.686 27.716 307.546 27.856C307.392 28.01 307.21 28.08 307.014 28.08ZM304.508 28.08C304.298 28.08 304.116 28.01 303.976 27.856C303.822 27.716 303.752 27.534 303.752 27.324C303.752 27.128 303.822 26.946 303.976 26.792C304.116 26.652 304.298 26.568 304.508 26.568C304.704 26.568 304.886 26.652 305.04 26.792C305.18 26.946 305.264 27.128 305.264 27.324C305.264 27.534 305.18 27.716 305.04 27.856C304.886 28.01 304.704 28.08 304.508 28.08ZM308.454 24.188H310.638V13.464H313.018V14.458H311.632V25.182H308.454V24.188ZM314.546 13.464H315.54V24.188H317.724V25.182H314.546V13.464ZM316.794 24.188H323.234C323.318 23.908 323.388 23.516 323.444 23.012C323.5 22.522 323.528 21.864 323.528 21.038C323.528 20.646 323.458 20.268 323.346 19.932C323.22 19.596 322.996 19.288 322.66 18.994C322.436 18.826 322.156 18.672 321.848 18.56C321.526 18.448 321.148 18.392 320.728 18.392C320.364 18.392 319.986 18.462 319.594 18.588C319.202 18.714 318.782 18.938 318.362 19.26L317.984 18.308C318.292 18.112 318.558 17.972 318.768 17.86C318.978 17.762 319.202 17.678 319.426 17.608C319.65 17.538 319.874 17.482 320.126 17.454C320.378 17.426 320.658 17.398 320.966 17.398C321.386 17.398 321.806 17.482 322.212 17.622C322.618 17.776 322.968 17.972 323.276 18.224C323.682 18.56 323.99 18.98 324.214 19.484C324.424 19.988 324.536 20.576 324.536 21.248C324.536 21.836 324.494 22.41 324.438 22.956C324.368 23.516 324.298 23.922 324.242 24.188H326.076V25.182H316.794V24.188ZM325.155 24.188H327.339V13.464H329.719V14.458H328.333V25.182H325.155V24.188ZM331.247 13.464H332.241V25.182H331.247V13.464ZM346.432 24.188V25.182H342.904C342.288 25.182 341.7 25.112 341.14 24.972C340.566 24.832 340.062 24.594 339.628 24.272C339.18 23.964 338.83 23.558 338.564 23.054C338.298 22.564 338.172 21.976 338.172 21.29C338.172 20.744 338.27 20.226 338.494 19.75C338.718 19.274 339.04 18.868 339.46 18.518C339.88 18.168 340.37 17.888 340.958 17.692C341.532 17.496 342.176 17.398 342.904 17.398H343.562V16.698H344.556V24.188H346.432ZM343.562 24.188V18.392H342.512C342.092 18.392 341.672 18.476 341.266 18.616C340.86 18.756 340.496 18.952 340.188 19.204C339.88 19.456 339.628 19.75 339.446 20.114C339.25 20.478 339.166 20.87 339.166 21.29C339.166 21.752 339.25 22.158 339.418 22.522C339.586 22.886 339.824 23.18 340.132 23.418C340.426 23.67 340.776 23.852 341.196 23.992C341.602 24.132 342.036 24.188 342.512 24.188H343.562ZM345.513 24.188H347.277V17.398H348.271V24.188H350.147V25.182H345.513V24.188ZM347.725 15.956C347.515 15.956 347.333 15.886 347.193 15.732C347.039 15.592 346.969 15.41 346.969 15.2C346.969 15.004 347.039 14.822 347.193 14.668C347.333 14.528 347.515 14.444 347.725 14.444C347.921 14.444 348.103 14.528 348.257 14.668C348.397 14.822 348.481 15.004 348.481 15.2C348.481 15.41 348.397 15.592 348.257 15.732C348.103 15.886 347.921 15.956 347.725 15.956ZM349.225 24.188H352.389V18.098H353.383V24.188H355.847C356.351 24.188 356.757 24.048 357.079 23.74C357.387 23.432 357.555 22.984 357.555 22.396V18.098H358.549V22.186C358.549 22.466 358.591 22.746 358.703 23.012C358.815 23.292 358.969 23.516 359.165 23.712C359.361 23.908 359.613 24.076 359.907 24.188C360.187 24.314 360.523 24.37 360.887 24.37C361.615 24.37 362.147 24.174 362.497 23.768C362.833 23.376 363.015 22.844 363.015 22.186V16.418H364.009V22.046C364.009 22.214 363.995 22.368 363.981 22.508C363.967 22.648 363.953 22.76 363.939 22.844C364.023 23.04 364.135 23.236 364.275 23.404C364.415 23.572 364.569 23.726 364.765 23.838C364.961 23.95 365.185 24.048 365.465 24.104C365.731 24.16 366.123 24.188 366.627 24.188V25.182C366.039 25.182 365.591 25.154 365.255 25.07C364.919 24.986 364.639 24.888 364.401 24.748C364.149 24.608 363.953 24.454 363.785 24.286C363.617 24.118 363.547 24.034 363.561 24.048C363.421 24.384 363.099 24.678 362.623 24.93C362.133 25.196 361.559 25.322 360.887 25.322C360.229 25.322 359.641 25.182 359.123 24.902C358.591 24.622 358.269 24.342 358.129 24.034C358.017 24.258 357.751 24.51 357.331 24.776C356.911 25.056 356.407 25.182 355.847 25.182H349.225V24.188ZM365.707 24.188H367.611V13.464H368.605V24.188H370.789V25.182H365.707V24.188ZM369.871 24.188H372.055V13.464H374.435V14.458H373.049V25.182H369.871V24.188ZM383.608 26.932C383.216 26.932 382.866 26.918 382.572 26.89C382.264 26.862 381.998 26.806 381.746 26.722C381.494 26.652 381.27 26.554 381.074 26.442C380.864 26.33 380.654 26.204 380.458 26.036C380.094 25.77 379.814 25.406 379.646 24.958C379.478 24.51 379.394 24.076 379.394 23.656V18.35H380.388V23.516C380.388 23.992 380.444 24.37 380.584 24.65C380.71 24.93 380.906 25.168 381.158 25.35C381.41 25.546 381.718 25.7 382.082 25.798C382.432 25.896 382.81 25.938 383.216 25.938H385.162V18.35H386.156V26.932H383.608ZM382.866 16.782C382.656 16.782 382.474 16.712 382.334 16.558C382.18 16.418 382.11 16.236 382.11 16.026C382.11 15.83 382.18 15.648 382.334 15.494C382.474 15.354 382.656 15.27 382.866 15.27C383.062 15.27 383.244 15.354 383.398 15.494C383.538 15.648 383.622 15.83 383.622 16.026C383.622 16.236 383.538 16.418 383.398 16.558C383.244 16.712 383.062 16.782 382.866 16.782ZM388.378 13.464H389.372V24.188H391.556V25.182H388.378V13.464ZM390.626 24.188H397.066C397.15 23.908 397.22 23.516 397.276 23.012C397.332 22.522 397.36 21.864 397.36 21.038C397.36 20.646 397.29 20.268 397.178 19.932C397.052 19.596 396.828 19.288 396.492 18.994C396.268 18.826 395.988 18.672 395.68 18.56C395.358 18.448 394.98 18.392 394.56 18.392C394.196 18.392 393.818 18.462 393.426 18.588C393.034 18.714 392.614 18.938 392.194 19.26L391.816 18.308C392.124 18.112 392.39 17.972 392.6 17.86C392.81 17.762 393.034 17.678 393.258 17.608C393.482 17.538 393.706 17.482 393.958 17.454C394.21 17.426 394.49 17.398 394.798 17.398C395.218 17.398 395.638 17.482 396.044 17.622C396.45 17.776 396.8 17.972 397.108 18.224C397.514 18.56 397.822 18.98 398.046 19.484C398.256 19.988 398.368 20.576 398.368 21.248C398.368 21.836 398.326 22.41 398.27 22.956C398.2 23.516 398.13 23.922 398.074 24.188H399.908V25.182H390.626V24.188ZM394.644 28.08C394.434 28.08 394.252 28.01 394.112 27.856C393.958 27.716 393.888 27.534 393.888 27.324C393.888 27.128 393.958 26.946 394.112 26.792C394.252 26.652 394.434 26.568 394.644 26.568C394.84 26.568 395.022 26.652 395.176 26.792C395.316 26.946 395.4 27.128 395.4 27.324C395.4 27.534 395.316 27.716 395.176 27.856C395.022 28.01 394.84 28.08 394.644 28.08ZM398.986 24.188H400.89V13.464H401.884V24.188H404.068V25.182H398.986V24.188ZM403.149 24.188H405.333V13.464H407.713V14.458H406.327V25.182H403.149V24.188ZM413.583 21.948C413.583 20.8 413.835 19.918 414.353 19.288C414.871 18.672 415.613 18.35 416.579 18.35H418.063V19.344H416.383C415.851 19.344 415.417 19.568 415.081 19.988C414.745 20.408 414.577 20.996 414.577 21.724V24.188H418.679V25.182H413.583V21.948ZM420.905 13.464H421.899V24.188H424.083V25.182H420.905V13.464ZM423.153 24.188H425.337V17.398H426.331V18.35H431.497C431.973 18.35 432.379 18.434 432.715 18.588C433.051 18.756 433.373 18.994 433.667 19.302C433.891 19.582 434.059 19.89 434.171 20.24C434.269 20.59 434.325 20.94 434.325 21.29V24.188H436.201V25.182H423.153V24.188ZM426.331 19.344V24.188H433.331V21.458C433.331 21.122 433.289 20.842 433.233 20.604C433.163 20.38 433.051 20.17 432.911 19.974C432.757 19.778 432.561 19.624 432.309 19.512C432.057 19.4 431.819 19.344 431.581 19.344H426.331ZM429.635 16.782C429.425 16.782 429.243 16.712 429.103 16.558C428.949 16.418 428.879 16.236 428.879 16.026C428.879 15.83 428.949 15.648 429.103 15.494C429.243 15.354 429.425 15.27 429.635 15.27C429.831 15.27 430.013 15.354 430.167 15.494C430.307 15.648 430.391 15.83 430.391 16.026C430.391 16.236 430.307 16.418 430.167 16.558C430.013 16.712 429.831 16.782 429.635 16.782ZM435.273 24.188H437.233L437.009 23.782C436.883 23.544 436.771 23.292 436.673 23.012C436.575 22.746 436.491 22.466 436.435 22.158C436.379 21.864 436.351 21.556 436.351 21.248C436.351 20.576 436.477 19.988 436.743 19.484C437.009 18.98 437.345 18.56 437.751 18.224C438.045 17.972 438.395 17.776 438.801 17.622C439.207 17.482 439.627 17.398 440.061 17.398C440.355 17.398 440.621 17.426 440.873 17.454C441.125 17.482 441.349 17.538 441.573 17.608C441.797 17.678 442.007 17.762 442.217 17.86C442.427 17.972 442.693 18.112 443.015 18.308L442.665 19.26C442.231 18.938 441.811 18.714 441.419 18.588C441.027 18.462 440.649 18.392 440.299 18.392C439.865 18.392 439.487 18.448 439.179 18.56C438.857 18.672 438.591 18.826 438.367 18.994C437.695 19.568 437.359 20.254 437.359 21.038C437.359 21.444 437.387 21.808 437.443 22.116C437.499 22.424 437.583 22.718 437.681 22.97C437.765 23.222 437.877 23.446 437.989 23.642L438.311 24.188H443.393V25.182H435.273V24.188ZM444.263 24.188H448.253C448.645 24.188 449.023 24.146 449.387 24.048C449.737 23.95 450.045 23.796 450.311 23.6C450.563 23.418 450.745 23.18 450.885 22.9C451.011 22.62 451.081 22.242 451.081 21.766V12.428H453.181V13.422H452.075V21.906C452.075 22.326 451.977 22.76 451.809 23.208C451.641 23.656 451.375 24.02 451.011 24.286C450.591 24.608 450.115 24.832 449.583 24.972C449.037 25.112 448.463 25.182 447.861 25.182H444.375L444.263 24.188ZM446.881 15.242H447.875V23.782H446.881V15.242ZM454.99 13.464H455.984V25.182H454.99V13.464ZM462.376 28.276C462.11 28.276 461.802 28.206 461.438 28.038L461.802 27.114C462.068 27.226 462.278 27.282 462.432 27.282C462.656 27.282 462.824 27.24 462.95 27.156C463.062 27.072 463.16 26.946 463.23 26.792C463.286 26.652 463.328 26.47 463.356 26.274C463.37 26.078 463.384 25.882 463.384 25.686V17.398H464.378V25.686C464.378 26.022 464.35 26.358 464.294 26.666C464.238 26.974 464.14 27.254 464 27.492C463.86 27.744 463.65 27.926 463.384 28.066C463.118 28.206 462.782 28.276 462.376 28.276ZM469.167 28.262C468.705 28.262 468.299 28.206 467.935 28.066C467.571 27.94 467.165 27.73 466.689 27.45L467.151 26.568C467.585 26.82 467.949 26.988 468.257 27.1C468.551 27.212 468.873 27.268 469.223 27.268C469.825 27.268 470.301 27.128 470.637 26.848C470.973 26.568 471.155 26.176 471.155 25.672V25.182H470.497C469.881 25.182 469.293 25.126 468.733 24.986C468.159 24.846 467.641 24.622 467.193 24.314C466.745 24.006 466.381 23.614 466.101 23.11C465.821 22.606 465.695 22.004 465.695 21.29C465.695 20.73 465.807 20.198 466.031 19.722C466.255 19.246 466.577 18.826 466.997 18.476C467.417 18.14 467.921 17.874 468.509 17.678C469.097 17.496 469.755 17.398 470.497 17.398H472.149V24.188H474.319V25.182H472.149V25.672C472.149 26.484 471.869 27.114 471.323 27.576C470.777 28.038 470.063 28.262 469.167 28.262ZM466.689 21.29C466.689 21.78 466.773 22.2 466.955 22.564C467.123 22.928 467.375 23.222 467.683 23.46C467.991 23.698 468.355 23.88 468.775 24.006C469.195 24.132 469.629 24.188 470.105 24.188H471.155V18.392H470.105C469.685 18.392 469.265 18.462 468.859 18.602C468.439 18.742 468.075 18.938 467.753 19.19C467.431 19.442 467.179 19.75 466.983 20.1C466.787 20.45 466.689 20.842 466.689 21.29ZM473.392 24.188H475.576V17.398H476.57V18.35H481.736C482.212 18.35 482.618 18.434 482.954 18.588C483.29 18.756 483.612 18.994 483.906 19.302C484.13 19.582 484.298 19.89 484.41 20.24C484.508 20.59 484.564 20.94 484.564 21.29V24.188H486.44V25.182H473.392V24.188ZM476.57 19.344V24.188H483.57V21.458C483.57 21.122 483.528 20.842 483.472 20.604C483.402 20.38 483.29 20.17 483.15 19.974C482.996 19.778 482.8 19.624 482.548 19.512C482.296 19.4 482.058 19.344 481.82 19.344H476.57ZM479.874 16.782C479.664 16.782 479.482 16.712 479.342 16.558C479.188 16.418 479.118 16.236 479.118 16.026C479.118 15.83 479.188 15.648 479.342 15.494C479.482 15.354 479.664 15.27 479.874 15.27C480.07 15.27 480.252 15.354 480.406 15.494C480.546 15.648 480.63 15.83 480.63 16.026C480.63 16.236 480.546 16.418 480.406 16.558C480.252 16.712 480.07 16.782 479.874 16.782ZM485.512 24.188H491.952C492.036 23.908 492.106 23.516 492.162 23.012C492.218 22.522 492.246 21.864 492.246 21.038C492.246 20.646 492.176 20.268 492.064 19.932C491.938 19.596 491.714 19.288 491.378 18.994C491.154 18.826 490.874 18.672 490.566 18.56C490.244 18.448 489.866 18.392 489.446 18.392C489.082 18.392 488.704 18.462 488.312 18.588C487.92 18.714 487.5 18.938 487.08 19.26L486.702 18.308C487.01 18.112 487.276 17.972 487.486 17.86C487.696 17.762 487.92 17.678 488.144 17.608C488.368 17.538 488.592 17.482 488.844 17.454C489.096 17.426 489.376 17.398 489.684 17.398C490.104 17.398 490.524 17.482 490.93 17.622C491.336 17.776 491.686 17.972 491.994 18.224C492.4 18.56 492.708 18.98 492.932 19.484C493.142 19.988 493.254 20.576 493.254 21.248C493.254 21.626 493.24 22.004 493.212 22.368C493.184 22.732 493.142 23.082 493.1 23.418C493.044 23.754 492.988 24.048 492.932 24.328C492.876 24.608 492.792 24.902 492.694 25.182H485.512V24.188ZM506.892 24.188V25.182H503.364C502.748 25.182 502.16 25.112 501.6 24.972C501.026 24.832 500.522 24.594 500.088 24.272C499.64 23.964 499.29 23.558 499.024 23.054C498.758 22.564 498.632 21.976 498.632 21.29C498.632 20.744 498.73 20.226 498.954 19.75C499.178 19.274 499.5 18.868 499.92 18.518C500.34 18.168 500.83 17.888 501.418 17.692C501.992 17.496 502.636 17.398 503.364 17.398H504.022V16.698H505.016V24.188H506.892ZM504.022 24.188V18.392H502.972C502.552 18.392 502.132 18.476 501.726 18.616C501.32 18.756 500.956 18.952 500.648 19.204C500.34 19.456 500.088 19.75 499.906 20.114C499.71 20.478 499.626 20.87 499.626 21.29C499.626 21.752 499.71 22.158 499.878 22.522C500.046 22.886 500.284 23.18 500.592 23.418C500.886 23.67 501.236 23.852 501.656 23.992C502.062 24.132 502.496 24.188 502.972 24.188H504.022ZM505.973 24.188H507.737V17.398H508.731V24.188H510.607V25.182H505.973V24.188ZM508.241 28.08C508.031 28.08 507.849 28.01 507.709 27.856C507.555 27.716 507.485 27.534 507.485 27.324C507.485 27.128 507.555 26.946 507.709 26.792C507.849 26.652 508.031 26.568 508.241 26.568C508.437 26.568 508.619 26.652 508.773 26.792C508.913 26.946 508.997 27.128 508.997 27.324C508.997 27.534 508.913 27.716 508.773 27.856C508.619 28.01 508.437 28.08 508.241 28.08ZM509.685 24.188H512.849V18.098H513.843V24.188H516.307C516.811 24.188 517.217 24.048 517.539 23.74C517.847 23.432 518.015 22.984 518.015 22.396V18.098H519.009V22.186C519.009 22.466 519.051 22.746 519.163 23.012C519.275 23.292 519.429 23.516 519.625 23.712C519.821 23.908 520.073 24.076 520.367 24.188C520.647 24.314 520.983 24.37 521.347 24.37C522.075 24.37 522.607 24.174 522.957 23.768C523.293 23.376 523.475 22.844 523.475 22.186V16.418H524.469V22.046C524.469 22.214 524.455 22.368 524.441 22.508C524.427 22.648 524.413 22.76 524.399 22.844C524.483 23.04 524.595 23.236 524.735 23.404C524.875 23.572 525.029 23.726 525.225 23.838C525.421 23.95 525.645 24.048 525.925 24.104C526.191 24.16 526.583 24.188 527.087 24.188V25.182C526.499 25.182 526.051 25.154 525.715 25.07C525.379 24.986 525.099 24.888 524.861 24.748C524.609 24.608 524.413 24.454 524.245 24.286C524.077 24.118 524.007 24.034 524.021 24.048C523.881 24.384 523.559 24.678 523.083 24.93C522.593 25.196 522.019 25.322 521.347 25.322C520.689 25.322 520.101 25.182 519.583 24.902C519.051 24.622 518.729 24.342 518.589 24.034C518.477 24.258 518.211 24.51 517.791 24.776C517.371 25.056 516.867 25.182 516.307 25.182H509.685V24.188ZM526.167 24.188H527.931V17.398H528.925V25.182H526.167V24.188ZM528.393 15.956C528.183 15.956 528.001 15.886 527.861 15.732C527.707 15.592 527.637 15.41 527.637 15.2C527.637 15.004 527.707 14.822 527.861 14.668C528.001 14.528 528.183 14.444 528.393 14.444C528.589 14.444 528.771 14.528 528.925 14.668C529.065 14.822 529.149 15.004 529.149 15.2C529.149 15.41 529.065 15.592 528.925 15.732C528.771 15.886 528.589 15.956 528.393 15.956ZM535.264 28.276C534.998 28.276 534.69 28.206 534.326 28.038L534.69 27.114C534.956 27.226 535.166 27.282 535.32 27.282C535.544 27.282 535.712 27.24 535.838 27.156C535.95 27.072 536.048 26.946 536.118 26.792C536.174 26.652 536.216 26.47 536.244 26.274C536.258 26.078 536.272 25.882 536.272 25.686V17.398H537.266V24.188H539.436V25.182H537.266V25.686C537.266 26.022 537.238 26.358 537.182 26.666C537.126 26.974 537.028 27.254 536.888 27.492C536.748 27.744 536.538 27.926 536.272 28.066C536.006 28.206 535.67 28.276 535.264 28.276ZM538.507 24.188H541.671V18.098H542.665V24.188H545.129C545.633 24.188 546.039 24.048 546.361 23.74C546.669 23.432 546.837 22.984 546.837 22.396V18.098H547.831V22.186C547.831 22.466 547.873 22.746 547.985 23.012C548.097 23.292 548.251 23.516 548.447 23.712C548.643 23.908 548.895 24.076 549.189 24.188C549.469 24.314 549.805 24.37 550.169 24.37C550.897 24.37 551.429 24.174 551.779 23.768C552.115 23.376 552.297 22.844 552.297 22.186V16.418H553.291V22.046C553.291 23.18 552.997 24.006 552.437 24.538C551.877 25.07 551.121 25.322 550.169 25.322C549.511 25.322 548.923 25.182 548.405 24.902C547.873 24.622 547.551 24.342 547.411 24.034C547.299 24.258 547.033 24.51 546.613 24.776C546.193 25.056 545.689 25.182 545.129 25.182H538.507V24.188ZM546.053 15.956C545.843 15.956 545.661 15.886 545.521 15.732C545.367 15.592 545.297 15.41 545.297 15.2C545.297 15.004 545.367 14.822 545.521 14.668C545.661 14.528 545.843 14.444 546.053 14.444C546.249 14.444 546.431 14.528 546.585 14.668C546.725 14.822 546.809 15.004 546.809 15.2C546.809 15.41 546.725 15.592 546.585 15.732C546.431 15.886 546.249 15.956 546.053 15.956ZM547.299 14.08C547.089 14.08 546.907 14.01 546.767 13.856C546.613 13.716 546.543 13.534 546.543 13.324C546.543 13.128 546.613 12.946 546.767 12.792C546.907 12.652 547.089 12.568 547.299 12.568C547.495 12.568 547.677 12.652 547.831 12.792C547.971 12.946 548.055 13.128 548.055 13.324C548.055 13.534 547.971 13.716 547.831 13.856C547.677 14.01 547.495 14.08 547.299 14.08ZM548.559 15.956C548.349 15.956 548.167 15.886 548.027 15.732C547.873 15.592 547.803 15.41 547.803 15.2C547.803 15.004 547.873 14.822 548.027 14.668C548.167 14.528 548.349 14.444 548.559 14.444C548.755 14.444 548.937 14.528 549.091 14.668C549.231 14.822 549.315 15.004 549.315 15.2C549.315 15.41 549.231 15.592 549.091 15.732C548.937 15.886 548.755 15.956 548.559 15.956ZM557.935 28.262C557.473 28.262 557.067 28.206 556.703 28.066C556.339 27.94 555.933 27.73 555.457 27.45L555.919 26.568C556.353 26.82 556.717 26.988 557.025 27.1C557.319 27.212 557.641 27.268 557.991 27.268C558.593 27.268 559.069 27.128 559.405 26.848C559.741 26.568 559.923 26.176 559.923 25.672V25.182H559.265C558.649 25.182 558.061 25.126 557.501 24.986C556.927 24.846 556.409 24.622 555.961 24.314C555.513 24.006 555.149 23.614 554.869 23.11C554.589 22.606 554.463 22.004 554.463 21.29C554.463 20.73 554.575 20.198 554.799 19.722C555.023 19.246 555.345 18.826 555.765 18.476C556.185 18.14 556.689 17.874 557.277 17.678C557.865 17.496 558.523 17.398 559.265 17.398H560.917V24.188H563.087V25.182H560.917V25.672C560.917 26.484 560.637 27.114 560.091 27.576C559.545 28.038 558.831 28.262 557.935 28.262ZM555.457 21.29C555.457 21.78 555.541 22.2 555.723 22.564C555.891 22.928 556.143 23.222 556.451 23.46C556.759 23.698 557.123 23.88 557.543 24.006C557.963 24.132 558.397 24.188 558.873 24.188H559.923V18.392H558.873C558.453 18.392 558.033 18.462 557.627 18.602C557.207 18.742 556.843 18.938 556.521 19.19C556.199 19.442 555.947 19.75 555.751 20.1C555.555 20.45 555.457 20.842 555.457 21.29ZM557.991 14.85C557.991 14.262 558.117 13.814 558.397 13.478C558.677 13.156 559.097 12.988 559.657 12.988H560.623V13.982H559.755C559.447 13.982 559.251 14.038 559.153 14.15C559.041 14.262 558.999 14.416 558.999 14.64V15.018H561.071V16.012H557.991V14.85ZM562.159 24.188H563.601C563.293 23.712 563.153 23.068 563.153 22.228C563.153 21.668 563.251 21.122 563.461 20.618C563.671 20.114 563.951 19.68 564.315 19.288C564.679 18.91 565.099 18.616 565.603 18.392C566.093 18.168 566.625 18.056 567.213 18.056C567.815 18.056 568.375 18.168 568.879 18.378C569.383 18.602 569.831 18.896 570.209 19.26C570.573 19.638 570.867 20.072 571.077 20.576C571.287 21.08 571.399 21.64 571.399 22.228C571.399 22.844 571.287 23.39 571.077 23.894C570.853 24.398 570.559 24.832 570.181 25.196C569.803 25.574 569.369 25.868 568.865 26.064C568.361 26.274 567.801 26.372 567.213 26.372C566.611 26.372 566.065 26.26 565.561 26.036C565.057 25.812 564.651 25.532 564.329 25.182H562.159V24.188ZM567.213 25.378C567.661 25.378 568.095 25.308 568.487 25.14C568.879 24.986 569.215 24.776 569.495 24.496C569.775 24.216 569.985 23.894 570.153 23.502C570.321 23.11 570.405 22.69 570.405 22.228C570.405 21.78 570.321 21.346 570.167 20.954C569.999 20.562 569.775 20.226 569.495 19.946C569.215 19.666 568.879 19.456 568.487 19.288C568.095 19.134 567.661 19.05 567.213 19.05C566.765 19.05 566.345 19.134 565.981 19.302C565.603 19.47 565.281 19.708 565.015 19.988C564.735 20.282 564.525 20.618 564.371 21.01C564.217 21.402 564.147 21.808 564.147 22.228C564.147 22.648 564.217 23.054 564.371 23.446C564.525 23.838 564.735 24.174 565.015 24.454C565.295 24.734 565.617 24.958 565.995 25.126C566.359 25.294 566.765 25.378 567.213 25.378Z" fill="#181C32"/>
<path d="M17.404 37.5051C17.404 36.5211 17.62 35.7651 18.064 35.2251C18.508 34.6971 19.144 34.4211 19.972 34.4211H21.244V35.2731H19.804C19.348 35.2731 18.976 35.4651 18.688 35.8251C18.4 36.1851 18.256 36.6891 18.256 37.3131V39.4251H21.772V40.2771H17.404V37.5051ZM24.3851 30.2331H25.2371V39.4251H27.1091V40.2771H24.3851V30.2331ZM27.0171 39.4251H28.8891V33.6051H29.7411V34.4211H34.1691C34.5771 34.4211 34.9251 34.4931 35.2131 34.6251C35.5011 34.7691 35.7771 34.9731 36.0291 35.2371C36.2211 35.4771 36.3651 35.7411 36.4611 36.0411C36.5451 36.3411 36.5931 36.6411 36.5931 36.9411V39.4251H38.2011V40.2771H27.0171V39.4251ZM29.7411 35.2731V39.4251H35.7411V37.0851C35.7411 36.7971 35.7051 36.5571 35.6571 36.3531C35.5971 36.1611 35.5011 35.9811 35.3811 35.8131C35.2491 35.6451 35.0811 35.5131 34.8651 35.4171C34.6491 35.3211 34.4451 35.2731 34.2411 35.2731H29.7411ZM32.5731 33.0771C32.3931 33.0771 32.2371 33.0171 32.1171 32.8851C31.9851 32.7651 31.9251 32.6091 31.9251 32.4291C31.9251 32.2611 31.9851 32.1051 32.1171 31.9731C32.2371 31.8531 32.3931 31.7811 32.5731 31.7811C32.7411 31.7811 32.8971 31.8531 33.0291 31.9731C33.1491 32.1051 33.2211 32.2611 33.2211 32.4291C33.2211 32.6091 33.1491 32.7651 33.0291 32.8851C32.8971 33.0171 32.7411 33.0771 32.5731 33.0771ZM38.1115 39.4251H39.7915L39.5995 39.0771C39.4915 38.8731 39.3955 38.6571 39.3115 38.4171C39.2275 38.1891 39.1555 37.9491 39.1075 37.6851C39.0595 37.4331 39.0355 37.1691 39.0355 36.9051C39.0355 36.3291 39.1435 35.8251 39.3715 35.3931C39.5995 34.9611 39.8875 34.6011 40.2355 34.3131C40.4875 34.0971 40.7875 33.9291 41.1355 33.7971C41.4835 33.6771 41.8435 33.6051 42.2155 33.6051C42.4675 33.6051 42.6955 33.6291 42.9115 33.6531C43.1275 33.6771 43.3195 33.7251 43.5115 33.7851C43.7035 33.8451 43.8835 33.9171 44.0635 34.0011C44.2435 34.0971 44.4715 34.2171 44.7475 34.3851L44.4475 35.2011C44.0755 34.9251 43.7155 34.7331 43.3795 34.6251C43.0435 34.5171 42.7195 34.4571 42.4195 34.4571C42.0475 34.4571 41.7235 34.5051 41.4595 34.6011C41.1835 34.6971 40.9555 34.8291 40.7635 34.9731C40.1875 35.4651 39.8995 36.0531 39.8995 36.7251C39.8995 37.0731 39.9235 37.3851 39.9715 37.6491C40.0195 37.9131 40.0915 38.1651 40.1755 38.3811C40.2475 38.5971 40.3435 38.7891 40.4395 38.9571L40.7155 39.4251H45.0715V40.2771H38.1115V39.4251ZM46.5227 39.4251H49.9427C50.2787 39.4251 50.6027 39.3891 50.9147 39.3051C51.2147 39.2211 51.4787 39.0891 51.7067 38.9211C51.9227 38.7651 52.0787 38.5611 52.1987 38.3211C52.3067 38.0811 52.3667 37.7571 52.3667 37.3491V29.3451H54.1667V30.1971H53.2187V37.4691C53.2187 37.8291 53.1347 38.2011 52.9907 38.5851C52.8467 38.9691 52.6187 39.2811 52.3067 39.5091C51.9467 39.7851 51.5387 39.9771 51.0827 40.0971C50.6147 40.2171 50.1227 40.2771 49.6067 40.2771H46.6187L46.5227 39.4251ZM48.7667 31.7571H49.6187V39.0771H48.7667V31.7571ZM56.4228 30.2331H57.2748V40.2771H56.4228V30.2331ZM63.4091 39.4251H68.0651V36.2691C68.0651 35.9811 68.0291 35.7411 67.9811 35.5371C67.9211 35.3451 67.8251 35.1651 67.7051 34.9971C67.5731 34.8291 67.4051 34.6971 67.1891 34.6011C66.9731 34.5051 66.7691 34.4571 66.5651 34.4571H65.5331V33.6051H66.4931C66.9011 33.6051 67.2491 33.6771 67.5371 33.8091C67.8251 33.9531 68.1011 34.1571 68.3531 34.4211C68.5451 34.6611 68.6891 34.9251 68.7851 35.2251C68.8691 35.5251 68.9171 35.8251 68.9171 36.1251V40.2771H63.4091V39.4251ZM70.273 39.4251H74.929V36.2691C74.929 35.9811 74.893 35.7411 74.845 35.5371C74.785 35.3451 74.689 35.1651 74.569 34.9971C74.437 34.8291 74.269 34.6971 74.053 34.6011C73.837 34.5051 73.633 34.4571 73.429 34.4571H72.397V33.6051H73.357C73.765 33.6051 74.113 33.6771 74.401 33.8091C74.689 33.9531 74.965 34.1571 75.217 34.4211C75.409 34.6611 75.553 34.9251 75.649 35.2251C75.733 35.5251 75.781 35.8251 75.781 36.1251V39.4251H77.389V40.2771H70.273V39.4251ZM77.3028 39.4251H78.9828L78.7908 39.0771C78.6828 38.8731 78.5868 38.6571 78.5028 38.4171C78.4188 38.1891 78.3468 37.9491 78.2988 37.6851C78.2508 37.4331 78.2268 37.1691 78.2268 36.9051C78.2268 36.3291 78.3348 35.8251 78.5628 35.3931C78.7908 34.9611 79.0788 34.6011 79.4268 34.3131C79.6788 34.0971 79.9788 33.9291 80.3268 33.7971C80.6748 33.6771 81.0348 33.6051 81.4068 33.6051C81.6588 33.6051 81.8868 33.6291 82.1028 33.6531C82.3188 33.6771 82.5108 33.7251 82.7028 33.7851C82.8948 33.8451 83.0748 33.9171 83.2548 34.0011C83.4348 34.0971 83.6628 34.2171 83.9388 34.3851L83.6388 35.2011C83.2668 34.9251 82.9068 34.7331 82.5708 34.6251C82.2348 34.5171 81.9108 34.4571 81.6108 34.4571C81.2388 34.4571 80.9148 34.5051 80.6508 34.6011C80.3748 34.6971 80.1468 34.8291 79.9548 34.9731C79.3788 35.4651 79.0908 36.0531 79.0908 36.7251C79.0908 37.0731 79.1148 37.3851 79.1628 37.6491C79.2108 37.9131 79.2828 38.1651 79.3668 38.3811C79.4388 38.5971 79.5348 38.7891 79.6308 38.9571L79.9068 39.4251H84.2628V40.2771H77.3028V39.4251Z" fill="#181C32"/>
<path d="M44.228 78.6736C43.796 78.6736 43.436 78.7336 43.136 78.8536C42.824 78.9736 42.488 79.1896 42.116 79.4896L41.624 78.7576C42.056 78.4336 42.476 78.1936 42.884 78.0496C43.292 77.9056 43.736 77.8336 44.24 77.8336C44.6 77.8336 44.936 77.8816 45.248 77.9776C45.56 78.0736 45.848 78.2176 46.088 78.3976C46.328 78.5896 46.52 78.8176 46.664 79.1056C46.808 79.3936 46.88 79.7056 46.88 80.0656C46.88 80.5216 46.772 80.9656 46.568 81.3976C46.364 81.8296 46.064 82.2736 45.68 82.7296C45.296 83.1856 44.816 83.6416 44.264 84.1216C43.7 84.6016 43.184 85.0096 42.728 85.3456H47.108V86.1736H41.324V85.4056C42.104 84.8296 42.788 84.3016 43.364 83.8216C43.94 83.3416 44.42 82.8976 44.804 82.4656C45.188 82.0336 45.488 81.6256 45.68 81.2416C45.872 80.8576 45.98 80.4856 45.98 80.1256C45.98 79.8736 45.932 79.6576 45.836 79.4776C45.74 79.3096 45.62 79.1536 45.464 79.0336C45.296 78.9136 45.116 78.8296 44.9 78.7696C44.684 78.7096 44.456 78.6736 44.228 78.6736ZM51.6092 86.2696C51.1052 86.2696 50.6372 86.1976 50.2052 86.0536C49.7612 85.9096 49.3172 85.6816 48.8852 85.3456L49.3772 84.6136C49.7372 84.9136 50.0972 85.1296 50.4452 85.2496C50.7932 85.3696 51.1772 85.4296 51.5972 85.4296C51.8852 85.4296 52.1612 85.3936 52.4372 85.3096C52.7012 85.2376 52.9412 85.1176 53.1452 84.9616C53.3492 84.8056 53.5172 84.6136 53.6372 84.3856C53.7572 84.1696 53.8292 83.9056 53.8292 83.5936C53.8292 83.2696 53.7692 82.9816 53.6612 82.7416C53.5532 82.5016 53.4092 82.2976 53.2292 82.1416C53.0372 81.9856 52.8092 81.8656 52.5452 81.7816C52.2812 81.7096 51.9932 81.6616 51.6812 81.6616C51.3572 81.6616 51.0092 81.7096 50.6492 81.7936C50.2892 81.8776 49.8332 82.0336 49.2932 82.2616L49.8212 78.0616H54.3932V78.8896H50.5172L50.2412 81.0496C50.6612 80.9056 51.1652 80.8336 51.7412 80.8336C52.1372 80.8336 52.5212 80.8936 52.8812 80.9896C53.2412 81.0976 53.5532 81.2656 53.8292 81.4936C54.1052 81.7216 54.3212 82.0096 54.4892 82.3576C54.6452 82.7056 54.7292 83.1136 54.7292 83.5936C54.7292 84.0256 54.6332 84.4096 54.4652 84.7456C54.2852 85.0816 54.0452 85.3696 53.7572 85.5856C53.4692 85.8136 53.1332 85.9816 52.7612 86.1016C52.3892 86.2216 52.0052 86.2696 51.6092 86.2696Z" fill="#181C32"/>
<path d="M43.228 108.674C42.796 108.674 42.436 108.734 42.136 108.854C41.824 108.974 41.488 109.19 41.116 109.49L40.624 108.758C41.056 108.434 41.476 108.194 41.884 108.05C42.292 107.906 42.736 107.834 43.24 107.834C43.6 107.834 43.936 107.882 44.248 107.978C44.56 108.074 44.848 108.218 45.088 108.398C45.328 108.59 45.52 108.818 45.664 109.106C45.808 109.394 45.88 109.706 45.88 110.066C45.88 110.522 45.772 110.966 45.568 111.398C45.364 111.83 45.064 112.274 44.68 112.73C44.296 113.186 43.816 113.642 43.264 114.122C42.7 114.602 42.184 115.01 41.728 115.346H46.108V116.174H40.324V115.406C41.104 114.83 41.788 114.302 42.364 113.822C42.94 113.342 43.42 112.898 43.804 112.466C44.188 112.034 44.488 111.626 44.68 111.242C44.872 110.858 44.98 110.486 44.98 110.126C44.98 109.874 44.932 109.658 44.836 109.478C44.74 109.31 44.62 109.154 44.464 109.034C44.296 108.914 44.116 108.83 43.9 108.77C43.684 108.71 43.456 108.674 43.228 108.674ZM51.2692 115.43C51.9772 115.43 52.5412 115.166 52.9612 114.614C53.3812 114.074 53.5972 113.222 53.5972 112.07C53.5972 110.918 53.3812 110.066 52.9612 109.502C52.5292 108.938 51.9652 108.65 51.2692 108.65C50.5492 108.65 49.9732 108.938 49.5652 109.49C49.1572 110.054 48.9532 110.918 48.9532 112.07C48.9532 113.222 49.1572 114.074 49.5652 114.614C49.9732 115.166 50.5492 115.43 51.2692 115.43ZM51.2692 116.27C50.7172 116.27 50.2372 116.174 49.8292 115.958C49.4212 115.754 49.0852 115.466 48.8212 115.094C48.5572 114.734 48.3532 114.29 48.2332 113.774C48.1012 113.258 48.0412 112.694 48.0412 112.07C48.0412 111.458 48.1012 110.894 48.2332 110.378C48.3532 109.874 48.5572 109.43 48.8212 109.046C49.0852 108.662 49.4212 108.374 49.8292 108.158C50.2372 107.942 50.7172 107.834 51.2692 107.834C51.8092 107.834 52.2772 107.942 52.6852 108.158C53.0932 108.374 53.4292 108.662 53.6932 109.046C53.9572 109.43 54.1492 109.874 54.2812 110.378C54.4012 110.894 54.4732 111.458 54.4732 112.07C54.4732 112.694 54.4012 113.258 54.2812 113.774C54.1492 114.29 53.9572 114.734 53.6932 115.094C53.4292 115.466 53.0932 115.754 52.6852 115.958C52.2772 116.174 51.8092 116.27 51.2692 116.27Z" fill="#181C32"/>
<path d="M43.04 139.034L41.276 139.538V138.746L43.892 138.002V146.174H43.04V139.034ZM48.9256 146.27C48.4216 146.27 47.9536 146.198 47.5216 146.054C47.0776 145.91 46.6336 145.682 46.2016 145.346L46.6936 144.614C47.0536 144.914 47.4136 145.13 47.7616 145.25C48.1096 145.37 48.4936 145.43 48.9136 145.43C49.2016 145.43 49.4776 145.394 49.7536 145.31C50.0176 145.238 50.2576 145.118 50.4616 144.962C50.6656 144.806 50.8336 144.614 50.9536 144.386C51.0736 144.17 51.1456 143.906 51.1456 143.594C51.1456 143.27 51.0856 142.982 50.9776 142.742C50.8696 142.502 50.7256 142.298 50.5456 142.142C50.3536 141.986 50.1256 141.866 49.8616 141.782C49.5976 141.71 49.3096 141.662 48.9976 141.662C48.6736 141.662 48.3256 141.71 47.9656 141.794C47.6056 141.878 47.1496 142.034 46.6096 142.262L47.1376 138.062H51.7096V138.89H47.8336L47.5576 141.05C47.9776 140.906 48.4816 140.834 49.0576 140.834C49.4536 140.834 49.8376 140.894 50.1976 140.99C50.5576 141.098 50.8696 141.266 51.1456 141.494C51.4216 141.722 51.6376 142.01 51.8056 142.358C51.9616 142.706 52.0456 143.114 52.0456 143.594C52.0456 144.026 51.9496 144.41 51.7816 144.746C51.6016 145.082 51.3616 145.37 51.0736 145.586C50.7856 145.814 50.4496 145.982 50.0776 146.102C49.7056 146.222 49.3216 146.27 48.9256 146.27Z" fill="#181C32"/>
<path d="M43.04 169.034L41.276 169.538V168.746L43.892 168.002V176.174H43.04V169.034ZM49.5856 175.43C50.2936 175.43 50.8576 175.166 51.2776 174.614C51.6976 174.074 51.9136 173.222 51.9136 172.07C51.9136 170.918 51.6976 170.066 51.2776 169.502C50.8456 168.938 50.2816 168.65 49.5856 168.65C48.8656 168.65 48.2896 168.938 47.8816 169.49C47.4736 170.054 47.2696 170.918 47.2696 172.07C47.2696 173.222 47.4736 174.074 47.8816 174.614C48.2896 175.166 48.8656 175.43 49.5856 175.43ZM49.5856 176.27C49.0336 176.27 48.5536 176.174 48.1456 175.958C47.7376 175.754 47.4016 175.466 47.1376 175.094C46.8736 174.734 46.6696 174.29 46.5496 173.774C46.4176 173.258 46.3576 172.694 46.3576 172.07C46.3576 171.458 46.4176 170.894 46.5496 170.378C46.6696 169.874 46.8736 169.43 47.1376 169.046C47.4016 168.662 47.7376 168.374 48.1456 168.158C48.5536 167.942 49.0336 167.834 49.5856 167.834C50.1256 167.834 50.5936 167.942 51.0016 168.158C51.4096 168.374 51.7456 168.662 52.0096 169.046C52.2736 169.43 52.4656 169.874 52.5976 170.378C52.7176 170.894 52.7896 171.458 52.7896 172.07C52.7896 172.694 52.7176 173.258 52.5976 173.774C52.4656 174.29 52.2736 174.734 52.0096 175.094C51.7456 175.466 51.4096 175.754 51.0016 175.958C50.5936 176.174 50.1256 176.27 49.5856 176.27Z" fill="#181C32"/>
<path d="M46.3 206.27C45.796 206.27 45.328 206.198 44.896 206.054C44.452 205.91 44.008 205.682 43.576 205.346L44.068 204.614C44.428 204.914 44.788 205.13 45.136 205.25C45.484 205.37 45.868 205.43 46.288 205.43C46.576 205.43 46.852 205.394 47.128 205.31C47.392 205.238 47.632 205.118 47.836 204.962C48.04 204.806 48.208 204.614 48.328 204.386C48.448 204.17 48.52 203.906 48.52 203.594C48.52 203.27 48.46 202.982 48.352 202.742C48.244 202.502 48.1 202.298 47.92 202.142C47.728 201.986 47.5 201.866 47.236 201.782C46.972 201.71 46.684 201.662 46.372 201.662C46.048 201.662 45.7 201.71 45.34 201.794C44.98 201.878 44.524 202.034 43.984 202.262L44.512 198.062H49.084V198.89H45.208L44.932 201.05C45.352 200.906 45.856 200.834 46.432 200.834C46.828 200.834 47.212 200.894 47.572 200.99C47.932 201.098 48.244 201.266 48.52 201.494C48.796 201.722 49.012 202.01 49.18 202.358C49.336 202.706 49.42 203.114 49.42 203.594C49.42 204.026 49.324 204.41 49.156 204.746C48.976 205.082 48.736 205.37 48.448 205.586C48.16 205.814 47.824 205.982 47.452 206.102C47.08 206.222 46.696 206.27 46.3 206.27Z" fill="#181C32"/>
<path d="M46.96 235.43C47.668 235.43 48.232 235.166 48.652 234.614C49.072 234.074 49.288 233.222 49.288 232.07C49.288 230.918 49.072 230.066 48.652 229.502C48.22 228.938 47.656 228.65 46.96 228.65C46.24 228.65 45.664 228.938 45.256 229.49C44.848 230.054 44.644 230.918 44.644 232.07C44.644 233.222 44.848 234.074 45.256 234.614C45.664 235.166 46.24 235.43 46.96 235.43ZM46.96 236.27C46.408 236.27 45.928 236.174 45.52 235.958C45.112 235.754 44.776 235.466 44.512 235.094C44.248 234.734 44.044 234.29 43.924 233.774C43.792 233.258 43.732 232.694 43.732 232.07C43.732 231.458 43.792 230.894 43.924 230.378C44.044 229.874 44.248 229.43 44.512 229.046C44.776 228.662 45.112 228.374 45.52 228.158C45.928 227.942 46.408 227.834 46.96 227.834C47.5 227.834 47.968 227.942 48.376 228.158C48.784 228.374 49.12 228.662 49.384 229.046C49.648 229.43 49.84 229.874 49.972 230.378C50.092 230.894 50.164 231.458 50.164 232.07C50.164 232.694 50.092 233.258 49.972 233.774C49.84 234.29 49.648 234.734 49.384 235.094C49.12 235.466 48.784 235.754 48.376 235.958C47.968 236.174 47.5 236.27 46.96 236.27Z" fill="#181C32"/>
<path d="M95 66V219" stroke="#F2F2F2" stroke-width="0.465478" stroke-linecap="square"/>
<path d="M99 79H523" stroke="#F2F2F2" stroke-width="0.465478" stroke-linecap="square"/>
<path d="M99 107H523" stroke="#F2F2F2" stroke-width="0.465478" stroke-linecap="square"/>
<path d="M99 135H523" stroke="#F2F2F2" stroke-width="0.465478" stroke-linecap="square"/>
<path d="M99 163H523" stroke="#F2F2F2" stroke-width="0.465478" stroke-linecap="square"/>
<path d="M99 191H523" stroke="#F2F2F2" stroke-width="0.465478" stroke-linecap="square"/>
<path d="M96 219L523 219" stroke="#F2F2F2" stroke-width="0.465478" stroke-linecap="square"/>
<rect x="103" y="98" width="25" height="120" rx="2" fill="#009EF7"/>
<path d="M112.96 240.412C113.668 240.412 114.232 240.148 114.652 239.596C115.072 239.056 115.288 238.204 115.288 237.052C115.288 235.9 115.072 235.048 114.652 234.484C114.22 233.92 113.656 233.632 112.96 233.632C112.24 233.632 111.664 233.92 111.256 234.472C110.848 235.036 110.644 235.9 110.644 237.052C110.644 238.204 110.848 239.056 111.256 239.596C111.664 240.148 112.24 240.412 112.96 240.412ZM112.96 241.252C112.408 241.252 111.928 241.156 111.52 240.94C111.112 240.736 110.776 240.448 110.512 240.076C110.248 239.716 110.044 239.272 109.924 238.756C109.792 238.24 109.732 237.676 109.732 237.052C109.732 236.44 109.792 235.876 109.924 235.36C110.044 234.856 110.248 234.412 110.512 234.028C110.776 233.644 111.112 233.356 111.52 233.14C111.928 232.924 112.408 232.816 112.96 232.816C113.5 232.816 113.968 232.924 114.376 233.14C114.784 233.356 115.12 233.644 115.384 234.028C115.648 234.412 115.84 234.856 115.972 235.36C116.092 235.876 116.164 236.44 116.164 237.052C116.164 237.676 116.092 238.24 115.972 238.756C115.84 239.272 115.648 239.716 115.384 240.076C115.12 240.448 114.784 240.736 114.376 240.94C113.968 241.156 113.5 241.252 112.96 241.252ZM119.416 234.016L117.652 234.52V233.728L120.268 232.984V241.156H119.416V234.016Z" fill="#181C32"/>
<rect x="138" y="161" width="25" height="57" rx="2" fill="#A1A5B7"/>
<path d="M146.96 240.412C147.668 240.412 148.232 240.148 148.652 239.596C149.072 239.056 149.288 238.204 149.288 237.052C149.288 235.9 149.072 235.048 148.652 234.484C148.22 233.92 147.656 233.632 146.96 233.632C146.24 233.632 145.664 233.92 145.256 234.472C144.848 235.036 144.644 235.9 144.644 237.052C144.644 238.204 144.848 239.056 145.256 239.596C145.664 240.148 146.24 240.412 146.96 240.412ZM146.96 241.252C146.408 241.252 145.928 241.156 145.52 240.94C145.112 240.736 144.776 240.448 144.512 240.076C144.248 239.716 144.044 239.272 143.924 238.756C143.792 238.24 143.732 237.676 143.732 237.052C143.732 236.44 143.792 235.876 143.924 235.36C144.044 234.856 144.248 234.412 144.512 234.028C144.776 233.644 145.112 233.356 145.52 233.14C145.928 232.924 146.408 232.816 146.96 232.816C147.5 232.816 147.968 232.924 148.376 233.14C148.784 233.356 149.12 233.644 149.384 234.028C149.648 234.412 149.84 234.856 149.972 235.36C150.092 235.876 150.164 236.44 150.164 237.052C150.164 237.676 150.092 238.24 149.972 238.756C149.84 239.272 149.648 239.716 149.384 240.076C149.12 240.448 148.784 240.736 148.376 240.94C147.968 241.156 147.5 241.252 146.96 241.252ZM154.604 233.656C154.172 233.656 153.812 233.716 153.512 233.836C153.2 233.956 152.864 234.172 152.492 234.472L152 233.74C152.432 233.416 152.852 233.176 153.26 233.032C153.668 232.888 154.112 232.816 154.616 232.816C154.976 232.816 155.312 232.864 155.624 232.96C155.936 233.056 156.224 233.2 156.464 233.38C156.704 233.572 156.896 233.8 157.04 234.088C157.184 234.376 157.256 234.688 157.256 235.048C157.256 235.504 157.148 235.948 156.944 236.38C156.74 236.812 156.44 237.256 156.056 237.712C155.672 238.168 155.192 238.624 154.64 239.104C154.076 239.584 153.56 239.992 153.104 240.328H157.484V241.156H151.7V240.388C152.48 239.812 153.164 239.284 153.74 238.804C154.316 238.324 154.796 237.88 155.18 237.448C155.564 237.016 155.864 236.608 156.056 236.224C156.248 235.84 156.356 235.468 156.356 235.108C156.356 234.856 156.308 234.64 156.212 234.46C156.116 234.292 155.996 234.136 155.84 234.016C155.672 233.896 155.492 233.812 155.276 233.752C155.06 233.692 154.832 233.656 154.604 233.656Z" fill="#181C32"/>
<rect x="173" y="139" width="25" height="79" rx="2" fill="#009EF7"/>
<path d="M181.96 240.412C182.668 240.412 183.232 240.148 183.652 239.596C184.072 239.056 184.288 238.204 184.288 237.052C184.288 235.9 184.072 235.048 183.652 234.484C183.22 233.92 182.656 233.632 181.96 233.632C181.24 233.632 180.664 233.92 180.256 234.472C179.848 235.036 179.644 235.9 179.644 237.052C179.644 238.204 179.848 239.056 180.256 239.596C180.664 240.148 181.24 240.412 181.96 240.412ZM181.96 241.252C181.408 241.252 180.928 241.156 180.52 240.94C180.112 240.736 179.776 240.448 179.512 240.076C179.248 239.716 179.044 239.272 178.924 238.756C178.792 238.24 178.732 237.676 178.732 237.052C178.732 236.44 178.792 235.876 178.924 235.36C179.044 234.856 179.248 234.412 179.512 234.028C179.776 233.644 180.112 233.356 180.52 233.14C180.928 232.924 181.408 232.816 181.96 232.816C182.5 232.816 182.968 232.924 183.376 233.14C183.784 233.356 184.12 233.644 184.384 234.028C184.648 234.412 184.84 234.856 184.972 235.36C185.092 235.876 185.164 236.44 185.164 237.052C185.164 237.676 185.092 238.24 184.972 238.756C184.84 239.272 184.648 239.716 184.384 240.076C184.12 240.448 183.784 240.736 183.376 240.94C182.968 241.156 182.5 241.252 181.96 241.252ZM189.184 241.252C188.68 241.252 188.224 241.18 187.804 241.036C187.372 240.892 186.952 240.664 186.52 240.328L187.012 239.596C187.384 239.908 187.732 240.112 188.056 240.232C188.368 240.352 188.74 240.412 189.172 240.412C189.46 240.412 189.736 240.388 190 240.316C190.264 240.244 190.492 240.148 190.684 240.016C190.876 239.884 191.02 239.728 191.128 239.536C191.236 239.344 191.296 239.128 191.296 238.864C191.296 238.576 191.236 238.336 191.14 238.144C191.032 237.952 190.888 237.784 190.696 237.652C190.504 237.532 190.264 237.436 189.988 237.376C189.7 237.316 189.388 237.28 189.028 237.28H188.74V236.452H188.992C189.736 236.452 190.276 236.332 190.612 236.068C190.936 235.816 191.104 235.468 191.104 235.012C191.104 234.808 191.056 234.628 190.972 234.46C190.876 234.304 190.756 234.16 190.588 234.04C190.42 233.92 190.228 233.836 190 233.764C189.772 233.692 189.52 233.656 189.256 233.656C188.836 233.656 188.476 233.716 188.176 233.836C187.864 233.956 187.528 234.172 187.144 234.472L186.676 233.74C187.096 233.416 187.516 233.176 187.924 233.032C188.332 232.888 188.776 232.816 189.28 232.816C189.652 232.816 190 232.864 190.336 232.96C190.66 233.056 190.948 233.2 191.2 233.38C191.44 233.572 191.644 233.8 191.788 234.064C191.932 234.328 192.016 234.628 192.016 234.952C192.016 235.228 191.968 235.48 191.872 235.708C191.776 235.948 191.656 236.152 191.512 236.32C191.368 236.488 191.224 236.608 191.104 236.68C190.984 236.752 190.864 236.812 190.756 236.836C190.9 236.86 191.044 236.92 191.188 236.992C191.332 237.064 191.476 237.196 191.644 237.376C191.812 237.556 191.944 237.772 192.04 238.024C192.136 238.276 192.196 238.552 192.196 238.864C192.196 239.248 192.112 239.596 191.944 239.896C191.776 240.208 191.56 240.46 191.284 240.652C191.008 240.856 190.696 241.012 190.336 241.108C189.976 241.204 189.592 241.252 189.184 241.252Z" fill="#181C32"/>
<rect x="208" y="82" width="25" height="136" rx="2" fill="#009EF7"/>
<path d="M215.96 240.412C216.668 240.412 217.232 240.148 217.652 239.596C218.072 239.056 218.288 238.204 218.288 237.052C218.288 235.9 218.072 235.048 217.652 234.484C217.22 233.92 216.656 233.632 215.96 233.632C215.24 233.632 214.664 233.92 214.256 234.472C213.848 235.036 213.644 235.9 213.644 237.052C213.644 238.204 213.848 239.056 214.256 239.596C214.664 240.148 215.24 240.412 215.96 240.412ZM215.96 241.252C215.408 241.252 214.928 241.156 214.52 240.94C214.112 240.736 213.776 240.448 213.512 240.076C213.248 239.716 213.044 239.272 212.924 238.756C212.792 238.24 212.732 237.676 212.732 237.052C212.732 236.44 212.792 235.876 212.924 235.36C213.044 234.856 213.248 234.412 213.512 234.028C213.776 233.644 214.112 233.356 214.52 233.14C214.928 232.924 215.408 232.816 215.96 232.816C216.5 232.816 216.968 232.924 217.376 233.14C217.784 233.356 218.12 233.644 218.384 234.028C218.648 234.412 218.84 234.856 218.972 235.36C219.092 235.876 219.164 236.44 219.164 237.052C219.164 237.676 219.092 238.24 218.972 238.756C218.84 239.272 218.648 239.716 218.384 240.076C218.12 240.448 217.784 240.736 217.376 240.94C216.968 241.156 216.5 241.252 215.96 241.252ZM225.116 239.02H220.784V238.324L225.176 233.044H225.968V238.204H227.528V239.02H225.968V241.156H225.116V239.02ZM225.116 238.204V234.34L221.924 238.204H225.116Z" fill="#181C32"/>
<rect x="243" y="118" width="25" height="100" rx="2" fill="#009EF7"/>
<path d="M251.96 240.412C252.668 240.412 253.232 240.148 253.652 239.596C254.072 239.056 254.288 238.204 254.288 237.052C254.288 235.9 254.072 235.048 253.652 234.484C253.22 233.92 252.656 233.632 251.96 233.632C251.24 233.632 250.664 233.92 250.256 234.472C249.848 235.036 249.644 235.9 249.644 237.052C249.644 238.204 249.848 239.056 250.256 239.596C250.664 240.148 251.24 240.412 251.96 240.412ZM251.96 241.252C251.408 241.252 250.928 241.156 250.52 240.94C250.112 240.736 249.776 240.448 249.512 240.076C249.248 239.716 249.044 239.272 248.924 238.756C248.792 238.24 248.732 237.676 248.732 237.052C248.732 236.44 248.792 235.876 248.924 235.36C249.044 234.856 249.248 234.412 249.512 234.028C249.776 233.644 250.112 233.356 250.52 233.14C250.928 232.924 251.408 232.816 251.96 232.816C252.5 232.816 252.968 232.924 253.376 233.14C253.784 233.356 254.12 233.644 254.384 234.028C254.648 234.412 254.84 234.856 254.972 235.36C255.092 235.876 255.164 236.44 255.164 237.052C255.164 237.676 255.092 238.24 254.972 238.756C254.84 239.272 254.648 239.716 254.384 240.076C254.12 240.448 253.784 240.736 253.376 240.94C252.968 241.156 252.5 241.252 251.96 241.252ZM259.676 241.252C259.172 241.252 258.704 241.18 258.272 241.036C257.828 240.892 257.384 240.664 256.952 240.328L257.444 239.596C257.804 239.896 258.164 240.112 258.512 240.232C258.86 240.352 259.244 240.412 259.664 240.412C259.952 240.412 260.228 240.376 260.504 240.292C260.768 240.22 261.008 240.1 261.212 239.944C261.416 239.788 261.584 239.596 261.704 239.368C261.824 239.152 261.896 238.888 261.896 238.576C261.896 238.252 261.836 237.964 261.728 237.724C261.62 237.484 261.476 237.28 261.296 237.124C261.104 236.968 260.876 236.848 260.612 236.764C260.348 236.692 260.06 236.644 259.748 236.644C259.424 236.644 259.076 236.692 258.716 236.776C258.356 236.86 257.9 237.016 257.36 237.244L257.888 233.044H262.46V233.872H258.584L258.308 236.032C258.728 235.888 259.232 235.816 259.808 235.816C260.204 235.816 260.588 235.876 260.948 235.972C261.308 236.08 261.62 236.248 261.896 236.476C262.172 236.704 262.388 236.992 262.556 237.34C262.712 237.688 262.796 238.096 262.796 238.576C262.796 239.008 262.7 239.392 262.532 239.728C262.352 240.064 262.112 240.352 261.824 240.568C261.536 240.796 261.2 240.964 260.828 241.084C260.456 241.204 260.072 241.252 259.676 241.252Z" fill="#181C32"/>
<rect x="278" y="198" width="25" height="20" rx="2" fill="#A1A5B7"/>
<path d="M286.96 240.412C287.668 240.412 288.232 240.148 288.652 239.596C289.072 239.056 289.288 238.204 289.288 237.052C289.288 235.9 289.072 235.048 288.652 234.484C288.22 233.92 287.656 233.632 286.96 233.632C286.24 233.632 285.664 233.92 285.256 234.472C284.848 235.036 284.644 235.9 284.644 237.052C284.644 238.204 284.848 239.056 285.256 239.596C285.664 240.148 286.24 240.412 286.96 240.412ZM286.96 241.252C286.408 241.252 285.928 241.156 285.52 240.94C285.112 240.736 284.776 240.448 284.512 240.076C284.248 239.716 284.044 239.272 283.924 238.756C283.792 238.24 283.732 237.676 283.732 237.052C283.732 236.44 283.792 235.876 283.924 235.36C284.044 234.856 284.248 234.412 284.512 234.028C284.776 233.644 285.112 233.356 285.52 233.14C285.928 232.924 286.408 232.816 286.96 232.816C287.5 232.816 287.968 232.924 288.376 233.14C288.784 233.356 289.12 233.644 289.384 234.028C289.648 234.412 289.84 234.856 289.972 235.36C290.092 235.876 290.164 236.44 290.164 237.052C290.164 237.676 290.092 238.24 289.972 238.756C289.84 239.272 289.648 239.716 289.384 240.076C289.12 240.448 288.784 240.736 288.376 240.94C287.968 241.156 287.5 241.252 286.96 241.252ZM295.06 241.252C294.64 241.252 294.244 241.18 293.884 241.024C293.524 240.88 293.2 240.676 292.936 240.412C292.66 240.148 292.444 239.836 292.288 239.476C292.12 239.116 292.048 238.732 292.048 238.3C292.048 237.916 292.108 237.556 292.252 237.22C292.396 236.884 292.624 236.488 292.96 236.02L295.108 233.044H296.152L294.4 235.48C294.472 235.444 294.568 235.408 294.688 235.384C294.808 235.36 294.964 235.348 295.156 235.348C295.564 235.348 295.936 235.432 296.296 235.576C296.644 235.732 296.956 235.948 297.22 236.212C297.484 236.476 297.7 236.788 297.856 237.148C298.012 237.508 298.096 237.892 298.096 238.3C298.096 238.696 298.012 239.068 297.868 239.416C297.712 239.776 297.496 240.088 297.232 240.364C296.956 240.64 296.632 240.856 296.272 241.012C295.9 241.18 295.492 241.252 295.06 241.252ZM295.072 240.412C295.372 240.412 295.648 240.364 295.912 240.244C296.164 240.136 296.392 239.98 296.584 239.788C296.776 239.596 296.92 239.368 297.028 239.104C297.136 238.84 297.196 238.564 297.196 238.276C297.196 238 297.136 237.736 297.028 237.472C296.92 237.208 296.776 236.992 296.584 236.8C296.392 236.608 296.176 236.464 295.912 236.344C295.648 236.236 295.372 236.176 295.072 236.176C294.76 236.176 294.484 236.236 294.22 236.344C293.956 236.464 293.74 236.608 293.548 236.8C293.356 236.992 293.212 237.208 293.104 237.472C292.996 237.736 292.948 238 292.948 238.276C292.948 238.564 292.996 238.84 293.104 239.104C293.2 239.368 293.356 239.596 293.548 239.788C293.74 239.98 293.956 240.136 294.22 240.244C294.484 240.364 294.76 240.412 295.072 240.412Z" fill="#181C32"/>
<rect x="313" y="153" width="25" height="65" rx="2" fill="#A1A5B7"/>
<path d="M321.96 240.412C322.668 240.412 323.232 240.148 323.652 239.596C324.072 239.056 324.288 238.204 324.288 237.052C324.288 235.9 324.072 235.048 323.652 234.484C323.22 233.92 322.656 233.632 321.96 233.632C321.24 233.632 320.664 233.92 320.256 234.472C319.848 235.036 319.644 235.9 319.644 237.052C319.644 238.204 319.848 239.056 320.256 239.596C320.664 240.148 321.24 240.412 321.96 240.412ZM321.96 241.252C321.408 241.252 320.928 241.156 320.52 240.94C320.112 240.736 319.776 240.448 319.512 240.076C319.248 239.716 319.044 239.272 318.924 238.756C318.792 238.24 318.732 237.676 318.732 237.052C318.732 236.44 318.792 235.876 318.924 235.36C319.044 234.856 319.248 234.412 319.512 234.028C319.776 233.644 320.112 233.356 320.52 233.14C320.928 232.924 321.408 232.816 321.96 232.816C322.5 232.816 322.968 232.924 323.376 233.14C323.784 233.356 324.12 233.644 324.384 234.028C324.648 234.412 324.84 234.856 324.972 235.36C325.092 235.876 325.164 236.44 325.164 237.052C325.164 237.676 325.092 238.24 324.972 238.756C324.84 239.272 324.648 239.716 324.384 240.076C324.12 240.448 323.784 240.736 323.376 240.94C322.968 241.156 322.5 241.252 321.96 241.252ZM331.392 233.872H326.7V233.044H332.412V233.752L328.272 241.156H327.264L331.392 233.872Z" fill="#181C32"/>
<rect x="348" y="131" width="25" height="87" rx="2" fill="#009EF7"/>
<path d="M356.96 240.412C357.668 240.412 358.232 240.148 358.652 239.596C359.072 239.056 359.288 238.204 359.288 237.052C359.288 235.9 359.072 235.048 358.652 234.484C358.22 233.92 357.656 233.632 356.96 233.632C356.24 233.632 355.664 233.92 355.256 234.472C354.848 235.036 354.644 235.9 354.644 237.052C354.644 238.204 354.848 239.056 355.256 239.596C355.664 240.148 356.24 240.412 356.96 240.412ZM356.96 241.252C356.408 241.252 355.928 241.156 355.52 240.94C355.112 240.736 354.776 240.448 354.512 240.076C354.248 239.716 354.044 239.272 353.924 238.756C353.792 238.24 353.732 237.676 353.732 237.052C353.732 236.44 353.792 235.876 353.924 235.36C354.044 234.856 354.248 234.412 354.512 234.028C354.776 233.644 355.112 233.356 355.52 233.14C355.928 232.924 356.408 232.816 356.96 232.816C357.5 232.816 357.968 232.924 358.376 233.14C358.784 233.356 359.12 233.644 359.384 234.028C359.648 234.412 359.84 234.856 359.972 235.36C360.092 235.876 360.164 236.44 360.164 237.052C360.164 237.676 360.092 238.24 359.972 238.756C359.84 239.272 359.648 239.716 359.384 240.076C359.12 240.448 358.784 240.736 358.376 240.94C357.968 241.156 357.5 241.252 356.96 241.252ZM365.108 232.816C365.492 232.816 365.852 232.876 366.188 232.972C366.524 233.068 366.812 233.212 367.064 233.404C367.304 233.596 367.508 233.824 367.652 234.088C367.796 234.352 367.868 234.64 367.868 234.952C367.868 235.432 367.724 235.852 367.46 236.212C367.196 236.572 366.968 236.776 366.788 236.824C366.98 236.896 367.112 236.956 367.196 237.004C367.268 237.052 367.388 237.172 367.556 237.34C367.724 237.52 367.856 237.736 367.964 237.976C368.06 238.228 368.12 238.516 368.12 238.852C368.12 239.236 368.036 239.584 367.868 239.884C367.7 240.196 367.472 240.448 367.196 240.652C366.92 240.856 366.608 241.012 366.248 241.108C365.888 241.204 365.504 241.252 365.108 241.252C364.712 241.252 364.34 241.204 363.98 241.108C363.62 241.012 363.296 240.856 363.02 240.652C362.744 240.448 362.528 240.196 362.36 239.884C362.192 239.584 362.108 239.236 362.108 238.852C362.108 238.516 362.156 238.228 362.264 237.976C362.36 237.736 362.492 237.52 362.66 237.34C362.816 237.172 362.936 237.052 363.02 237.004C363.092 236.956 363.272 236.884 363.548 236.788C363.368 236.74 363.224 236.668 363.116 236.584C362.996 236.5 362.876 236.368 362.756 236.2C362.624 236.032 362.528 235.852 362.456 235.636C362.384 235.42 362.348 235.192 362.348 234.952C362.348 234.64 362.42 234.352 362.564 234.088C362.708 233.824 362.9 233.596 363.152 233.404C363.404 233.212 363.692 233.068 364.028 232.972C364.364 232.876 364.724 232.816 365.108 232.816ZM365.108 237.184C364.436 237.184 363.92 237.328 363.56 237.616C363.188 237.904 363.008 238.312 363.008 238.828C363.008 239.092 363.056 239.308 363.164 239.5C363.26 239.692 363.404 239.86 363.596 239.992C363.776 240.136 363.992 240.232 364.256 240.304C364.52 240.376 364.796 240.412 365.108 240.412C365.408 240.412 365.696 240.376 365.96 240.304C366.224 240.232 366.44 240.136 366.632 239.992C366.812 239.86 366.956 239.692 367.064 239.5C367.16 239.308 367.22 239.092 367.22 238.828C367.22 238.312 367.028 237.904 366.656 237.616C366.284 237.328 365.768 237.184 365.108 237.184ZM365.108 233.656C364.832 233.656 364.58 233.692 364.352 233.752C364.124 233.824 363.932 233.908 363.764 234.028C363.596 234.148 363.476 234.292 363.38 234.448C363.284 234.616 363.248 234.796 363.248 235.012C363.248 235.204 363.284 235.372 363.356 235.54C363.428 235.708 363.548 235.864 363.692 235.984C363.836 236.104 364.028 236.212 364.268 236.284C364.508 236.368 364.784 236.404 365.108 236.404C365.42 236.404 365.708 236.368 365.948 236.284C366.188 236.212 366.38 236.104 366.524 235.984C366.668 235.864 366.788 235.708 366.86 235.54C366.932 235.372 366.98 235.204 366.98 235.012C366.98 234.796 366.932 234.616 366.836 234.448C366.74 234.292 366.62 234.148 366.452 234.028C366.284 233.908 366.092 233.824 365.864 233.752C365.624 233.692 365.372 233.656 365.108 233.656Z" fill="#181C32"/>
<rect x="383" y="194" width="25" height="24" rx="2" fill="#A1A5B7"/>
<path d="M391.96 240.412C392.668 240.412 393.232 240.148 393.652 239.596C394.072 239.056 394.288 238.204 394.288 237.052C394.288 235.9 394.072 235.048 393.652 234.484C393.22 233.92 392.656 233.632 391.96 233.632C391.24 233.632 390.664 233.92 390.256 234.472C389.848 235.036 389.644 235.9 389.644 237.052C389.644 238.204 389.848 239.056 390.256 239.596C390.664 240.148 391.24 240.412 391.96 240.412ZM391.96 241.252C391.408 241.252 390.928 241.156 390.52 240.94C390.112 240.736 389.776 240.448 389.512 240.076C389.248 239.716 389.044 239.272 388.924 238.756C388.792 238.24 388.732 237.676 388.732 237.052C388.732 236.44 388.792 235.876 388.924 235.36C389.044 234.856 389.248 234.412 389.512 234.028C389.776 233.644 390.112 233.356 390.52 233.14C390.928 232.924 391.408 232.816 391.96 232.816C392.5 232.816 392.968 232.924 393.376 233.14C393.784 233.356 394.12 233.644 394.384 234.028C394.648 234.412 394.84 234.856 394.972 235.36C395.092 235.876 395.164 236.44 395.164 237.052C395.164 237.676 395.092 238.24 394.972 238.756C394.84 239.272 394.648 239.716 394.384 240.076C394.12 240.448 393.784 240.736 393.376 240.94C392.968 241.156 392.5 241.252 391.96 241.252ZM400.072 232.816C400.48 232.816 400.876 232.9 401.236 233.044C401.596 233.2 401.92 233.404 402.196 233.668C402.472 233.932 402.688 234.244 402.856 234.604C403.012 234.964 403.096 235.36 403.096 235.768C403.096 236.152 403.012 236.512 402.868 236.848C402.724 237.184 402.496 237.58 402.184 238.036L400.036 241.156H398.992L400.768 238.588C400.672 238.636 400.564 238.672 400.444 238.696C400.324 238.72 400.168 238.732 399.976 238.732C399.568 238.732 399.184 238.66 398.836 238.504C398.476 238.36 398.164 238.144 397.9 237.88C397.636 237.616 397.42 237.292 397.276 236.932C397.12 236.572 397.048 236.188 397.048 235.768C397.048 235.384 397.12 235.012 397.276 234.652C397.42 234.304 397.636 233.992 397.912 233.716C398.176 233.452 398.5 233.236 398.872 233.068C399.232 232.9 399.64 232.816 400.072 232.816ZM400.072 233.656C399.76 233.656 399.484 233.716 399.22 233.824C398.956 233.944 398.74 234.1 398.548 234.292C398.356 234.484 398.2 234.712 398.104 234.976C397.996 235.24 397.948 235.504 397.948 235.792C397.948 236.08 397.996 236.344 398.104 236.608C398.2 236.872 398.344 237.088 398.536 237.28C398.728 237.472 398.956 237.616 399.22 237.724C399.484 237.844 399.76 237.892 400.072 237.892C400.36 237.892 400.648 237.844 400.912 237.724C401.176 237.616 401.392 237.472 401.584 237.28C401.776 237.088 401.92 236.872 402.028 236.608C402.136 236.344 402.196 236.08 402.196 235.792C402.196 235.504 402.136 235.24 402.04 234.976C401.932 234.712 401.788 234.484 401.596 234.292C401.404 234.1 401.176 233.944 400.912 233.824C400.648 233.716 400.372 233.656 400.072 233.656Z" fill="#181C32"/>
<rect x="418" y="82" width="25" height="136" rx="2" fill="#009EF7"/>
<path d="M426.04 234.016L424.276 234.52V233.728L426.892 232.984V241.156H426.04V234.016ZM432.586 240.412C433.294 240.412 433.858 240.148 434.278 239.596C434.698 239.056 434.914 238.204 434.914 237.052C434.914 235.9 434.698 235.048 434.278 234.484C433.846 233.92 433.282 233.632 432.586 233.632C431.866 233.632 431.29 233.92 430.882 234.472C430.474 235.036 430.27 235.9 430.27 237.052C430.27 238.204 430.474 239.056 430.882 239.596C431.29 240.148 431.866 240.412 432.586 240.412ZM432.586 241.252C432.034 241.252 431.554 241.156 431.146 240.94C430.738 240.736 430.402 240.448 430.138 240.076C429.874 239.716 429.67 239.272 429.55 238.756C429.418 238.24 429.358 237.676 429.358 237.052C429.358 236.44 429.418 235.876 429.55 235.36C429.67 234.856 429.874 234.412 430.138 234.028C430.402 233.644 430.738 233.356 431.146 233.14C431.554 232.924 432.034 232.816 432.586 232.816C433.126 232.816 433.594 232.924 434.002 233.14C434.41 233.356 434.746 233.644 435.01 234.028C435.274 234.412 435.466 234.856 435.598 235.36C435.718 235.876 435.79 236.44 435.79 237.052C435.79 237.676 435.718 238.24 435.598 238.756C435.466 239.272 435.274 239.716 435.01 240.076C434.746 240.448 434.41 240.736 434.002 240.94C433.594 241.156 433.126 241.252 432.586 241.252Z" fill="#181C32"/>
<rect x="453" y="128" width="25" height="90" rx="2" fill="#009EF7"/>
<path d="M463.04 234.016L461.276 234.52V233.728L463.892 232.984V241.156H463.04V234.016ZM468.029 234.016L466.265 234.52V233.728L468.881 232.984V241.156H468.029V234.016Z" fill="#181C32"/>
<rect x="488" y="179" width="25" height="39" rx="2" fill="#A1A5B7"/>
<path d="M497.04 234.016L495.276 234.52V233.728L497.892 232.984V241.156H497.04V234.016ZM502.854 233.656C502.422 233.656 502.062 233.716 501.762 233.836C501.45 233.956 501.114 234.172 500.742 234.472L500.25 233.74C500.682 233.416 501.102 233.176 501.51 233.032C501.918 232.888 502.362 232.816 502.866 232.816C503.226 232.816 503.562 232.864 503.874 232.96C504.186 233.056 504.474 233.2 504.714 233.38C504.954 233.572 505.146 233.8 505.29 234.088C505.434 234.376 505.506 234.688 505.506 235.048C505.506 235.504 505.398 235.948 505.194 236.38C504.99 236.812 504.69 237.256 504.306 237.712C503.922 238.168 503.442 238.624 502.89 239.104C502.326 239.584 501.81 239.992 501.354 240.328H505.734V241.156H499.95V240.388C500.73 239.812 501.414 239.284 501.99 238.804C502.566 238.324 503.046 237.88 503.43 237.448C503.814 237.016 504.114 236.608 504.306 236.224C504.498 235.84 504.606 235.468 504.606 235.108C504.606 234.856 504.558 234.64 504.462 234.46C504.366 234.292 504.246 234.136 504.09 234.016C503.922 233.896 503.742 233.812 503.526 233.752C503.31 233.692 503.082 233.656 502.854 233.656Z" fill="#181C32"/>
</svg>
