<svg width="234" height="19" viewBox="0 0 234 19" fill="none" xmlns="http://www.w3.org/2000/svg">
<rect x="54" y="0.0664062" width="180" height="18" rx="9" fill="#F0F0F0"/>
<rect y="0.0664062" width="66" height="18" rx="9" fill="#F14141"/>
<path d="M23.1806 6.08241L21.4166 6.58641V5.79441L24.0326 5.05041V13.2224H23.1806V6.08241ZM29.2608 12.4784C29.9688 12.4784 30.5328 12.2144 30.9528 11.6624C31.3728 11.1224 31.5888 10.2704 31.5888 9.11841C31.5888 7.96641 31.3728 7.11441 30.9528 6.55041C30.5208 5.98641 29.9568 5.69841 29.2608 5.69841C28.5408 5.69841 27.9648 5.98641 27.5568 6.53841C27.1488 7.10241 26.9448 7.96641 26.9448 9.11841C26.9448 10.2704 27.1488 11.1224 27.5568 11.6624C27.9648 12.2144 28.5408 12.4784 29.2608 12.4784ZM29.2608 13.3184C28.7088 13.3184 28.2288 13.2224 27.8208 13.0064C27.4128 12.8024 27.0768 12.5144 26.8128 12.1424C26.5488 11.7824 26.3448 11.3384 26.2248 10.8224C26.0928 10.3064 26.0328 9.74241 26.0328 9.11841C26.0328 8.50641 26.0928 7.94241 26.2248 7.42641C26.3448 6.92241 26.5488 6.47841 26.8128 6.09441C27.0768 5.71041 27.4128 5.42241 27.8208 5.20641C28.2288 4.99041 28.7088 4.88241 29.2608 4.88241C29.8008 4.88241 30.2688 4.99041 30.6768 5.20641C31.0848 5.42241 31.4208 5.71041 31.6848 6.09441C31.9488 6.47841 32.1408 6.92241 32.2728 7.42641C32.3928 7.94241 32.4648 8.50641 32.4648 9.11841C32.4648 9.74241 32.3928 10.3064 32.2728 10.8224C32.1408 11.3384 31.9488 11.7824 31.6848 12.1424C31.4208 12.5144 31.0848 12.8024 30.6768 13.0064C30.2688 13.2224 29.8008 13.3184 29.2608 13.3184ZM35.0949 13.2224L42.1149 3.17841H43.1109L36.0909 13.2224H35.0949ZM42.0429 13.3424C41.6349 13.3424 41.2869 13.2704 40.9989 13.1144C40.6989 12.9704 40.4589 12.7544 40.2669 12.4784C40.0749 12.2144 39.9429 11.8904 39.8469 11.5184C39.7509 11.1584 39.7149 10.7504 39.7149 10.2944C39.7149 9.85041 39.7509 9.44241 39.8469 9.08241C39.9429 8.72241 40.0749 8.39841 40.2669 8.12241C40.4589 7.85841 40.6989 7.64241 40.9989 7.49841C41.2869 7.35441 41.6349 7.27041 42.0429 7.27041C42.4269 7.27041 42.7749 7.35441 43.0749 7.49841C43.3629 7.64241 43.6149 7.85841 43.8069 8.12241C43.9989 8.38641 44.1309 8.71041 44.2269 9.07041C44.3229 9.44241 44.3709 9.85041 44.3709 10.2944C44.3709 10.7504 44.3229 11.1584 44.2269 11.5304C44.1309 11.9024 43.9989 12.2264 43.8069 12.4904C43.6149 12.7544 43.3629 12.9704 43.0749 13.1144C42.7749 13.2704 42.4269 13.3424 42.0429 13.3424ZM42.0429 12.5264C42.4869 12.5264 42.8469 12.3584 43.1109 11.9984C43.3749 11.6384 43.5069 11.0744 43.5069 10.2944C43.5069 9.52641 43.3749 8.96241 43.1109 8.60241C42.8469 8.25441 42.4869 8.07441 42.0429 8.07441C41.5869 8.07441 41.2389 8.25441 40.9749 8.60241C40.7109 8.96241 40.5789 9.52641 40.5789 10.2944C40.5789 11.0744 40.7109 11.6384 40.9749 11.9984C41.2389 12.3584 41.5989 12.5264 42.0429 12.5264ZM36.1629 9.11841C35.7549 9.11841 35.4069 9.04641 35.1189 8.89041C34.8189 8.74641 34.5789 8.53041 34.3869 8.25441C34.1949 7.99041 34.0629 7.66641 33.9669 7.29441C33.8709 6.93441 33.8349 6.52641 33.8349 6.07041C33.8349 5.62641 33.8709 5.21841 33.9669 4.85841C34.0629 4.49841 34.1949 4.17441 34.3869 3.89841C34.5789 3.63441 34.8189 3.41841 35.1189 3.27441C35.4069 3.13041 35.7549 3.04641 36.1629 3.04641C36.5469 3.04641 36.8949 3.13041 37.1949 3.27441C37.4829 3.41841 37.7349 3.63441 37.9269 3.89841C38.1189 4.16241 38.2509 4.48641 38.3469 4.84641C38.4429 5.21841 38.4909 5.62641 38.4909 6.07041C38.4909 6.52641 38.4429 6.93441 38.3469 7.30641C38.2509 7.67841 38.1189 8.00241 37.9269 8.26641C37.7349 8.53041 37.4829 8.74641 37.1949 8.89041C36.8949 9.04641 36.5469 9.11841 36.1629 9.11841ZM36.1629 8.30241C36.6069 8.30241 36.9669 8.13441 37.2309 7.77441C37.4949 7.41441 37.6269 6.85041 37.6269 6.07041C37.6269 5.30241 37.4949 4.73841 37.2309 4.37841C36.9669 4.03041 36.6069 3.85041 36.1629 3.85041C35.7069 3.85041 35.3589 4.03041 35.0949 4.37841C34.8309 4.73841 34.6989 5.30241 34.6989 6.07041C34.6989 6.85041 34.8309 7.41441 35.0949 7.77441C35.3589 8.13441 35.7189 8.30241 36.1629 8.30241Z" fill="white"/>
</svg>
