<svg width="588" height="283" viewBox="0 0 588 283" fill="none" xmlns="http://www.w3.org/2000/svg">
<rect width="588" height="283" rx="8" fill="white"/>
<path d="M526.02 226.808C525.792 226.808 525.528 226.748 525.216 226.604L525.528 225.812C525.756 225.908 525.936 225.956 526.068 225.956C526.26 225.956 526.404 225.92 526.512 225.848C526.608 225.776 526.692 225.668 526.752 225.536C526.8 225.416 526.836 225.26 526.86 225.092C526.872 224.924 526.884 224.756 526.884 224.588V217.484H527.736V224.588C527.736 224.876 527.712 225.164 527.664 225.428C527.616 225.692 527.532 225.932 527.412 226.136C527.292 226.352 527.112 226.508 526.884 226.628C526.656 226.748 526.368 226.808 526.02 226.808ZM532.546 226.796C532.15 226.796 531.802 226.748 531.49 226.628C531.178 226.52 530.83 226.34 530.422 226.1L530.818 225.344C531.19 225.56 531.502 225.704 531.766 225.8C532.018 225.896 532.294 225.944 532.594 225.944C533.11 225.944 533.518 225.824 533.806 225.584C534.094 225.344 534.25 225.008 534.25 224.576V224.156H533.686C533.158 224.156 532.654 224.108 532.174 223.988C531.682 223.868 531.238 223.676 530.854 223.412C530.47 223.148 530.158 222.812 529.918 222.38C529.678 221.948 529.57 221.432 529.57 220.82C529.57 220.34 529.666 219.884 529.858 219.476C530.05 219.068 530.326 218.708 530.686 218.408C531.046 218.12 531.478 217.892 531.982 217.724C532.486 217.568 533.05 217.484 533.686 217.484H535.102V223.304H536.962V224.156H535.102V224.576C535.102 225.272 534.862 225.812 534.394 226.208C533.926 226.604 533.314 226.796 532.546 226.796ZM530.422 220.82C530.422 221.24 530.494 221.6 530.65 221.912C530.794 222.224 531.01 222.476 531.274 222.68C531.538 222.884 531.85 223.04 532.21 223.148C532.57 223.256 532.942 223.304 533.35 223.304H534.25V218.336H533.35C532.99 218.336 532.63 218.396 532.282 218.516C531.922 218.636 531.61 218.804 531.334 219.02C531.058 219.236 530.842 219.5 530.674 219.8C530.506 220.1 530.422 220.436 530.422 220.82ZM536.633 223.304H538.373C538.349 223.268 538.325 223.1 538.277 222.812C538.229 222.524 538.205 222.224 538.205 221.936C538.205 221.48 538.253 221.072 538.373 220.688C538.481 220.304 538.649 219.98 538.877 219.704C539.093 219.44 539.369 219.224 539.681 219.068C539.993 218.924 540.365 218.84 540.773 218.84C541.181 218.84 541.541 218.924 541.853 219.068C542.165 219.224 542.429 219.44 542.645 219.704C542.861 219.98 543.029 220.304 543.137 220.688C543.245 221.072 543.305 221.48 543.305 221.936C543.305 222.224 543.281 222.512 543.245 222.8C543.197 223.088 543.173 223.256 543.161 223.304H544.673C544.721 223.088 544.757 222.812 544.805 222.476C544.841 222.152 544.865 221.84 544.865 221.552C544.865 221.036 544.829 220.58 544.757 220.172C544.685 219.776 544.565 219.38 544.373 218.972C544.097 218.396 543.677 217.952 543.101 217.628C542.525 217.304 541.805 217.136 540.953 217.136C540.473 217.136 540.017 217.22 539.585 217.376C539.153 217.532 538.733 217.724 538.301 217.952L537.941 217.172C538.529 216.872 539.069 216.644 539.573 216.5C540.065 216.356 540.617 216.272 541.241 216.272C541.685 216.272 542.105 216.332 542.513 216.452C542.909 216.572 543.269 216.74 543.605 216.932C543.929 217.136 544.217 217.364 544.469 217.628C544.721 217.892 544.925 218.18 545.081 218.468C545.309 218.924 545.477 219.392 545.573 219.884C545.669 220.388 545.717 220.892 545.717 221.396C545.717 221.768 545.693 222.128 545.645 222.476C545.597 222.824 545.561 223.1 545.525 223.304H547.073V224.156H536.633V223.304ZM539.057 221.936C539.057 222.236 539.069 222.524 539.117 222.788C539.153 223.052 539.177 223.232 539.201 223.304H542.309C542.321 223.232 542.345 223.052 542.393 222.788C542.429 222.524 542.453 222.248 542.453 221.936C542.453 221.624 542.417 221.324 542.345 221.048C542.273 220.772 542.165 220.532 542.021 220.328C541.877 220.136 541.697 219.98 541.493 219.86C541.289 219.752 541.049 219.692 540.773 219.692C540.485 219.692 540.233 219.752 540.017 219.86C539.801 219.968 539.633 220.124 539.489 220.316C539.345 220.52 539.237 220.76 539.165 221.036C539.093 221.312 539.057 221.612 539.057 221.936ZM546.983 223.304H549.695V218.084H550.547V223.304H552.659C553.091 223.304 553.439 223.184 553.715 222.92C553.979 222.656 554.123 222.272 554.123 221.768V218.084H554.975V221.672C554.975 221.912 555.035 222.128 555.131 222.344C555.227 222.56 555.359 222.752 555.527 222.92C555.695 223.088 555.911 223.22 556.151 223.316C556.391 223.412 556.667 223.46 556.979 223.46C557.603 223.46 558.059 223.292 558.359 222.944C558.647 222.608 558.803 222.152 558.803 221.588V216.644H559.655V221.468C559.655 221.612 559.643 221.744 559.631 221.864C559.619 221.984 559.607 222.092 559.595 222.164C559.667 222.332 559.763 222.488 559.883 222.632C560.003 222.776 560.135 222.908 560.303 223.004C560.471 223.1 560.663 223.184 560.903 223.232C561.131 223.28 561.467 223.304 561.899 223.304V224.156C561.395 224.156 561.011 224.132 560.723 224.06C560.435 223.988 560.195 223.904 559.991 223.784C559.775 223.664 559.607 223.532 559.463 223.388C559.319 223.244 559.259 223.172 559.271 223.184C559.151 223.472 558.875 223.724 558.467 223.94C558.047 224.168 557.555 224.276 556.979 224.276C556.415 224.276 555.911 224.156 555.467 223.916C555.011 223.676 554.735 223.436 554.615 223.172C554.519 223.364 554.291 223.58 553.931 223.808C553.571 224.048 553.139 224.156 552.659 224.156H546.983V223.304ZM555.587 216.248C555.407 216.248 555.251 216.188 555.131 216.056C554.999 215.936 554.939 215.78 554.939 215.6C554.939 215.432 554.999 215.276 555.131 215.144C555.251 215.024 555.407 214.952 555.587 214.952C555.755 214.952 555.911 215.024 556.043 215.144C556.163 215.276 556.235 215.432 556.235 215.6C556.235 215.78 556.163 215.936 556.043 216.056C555.911 216.188 555.755 216.248 555.587 216.248ZM553.439 216.248C553.259 216.248 553.103 216.188 552.983 216.056C552.851 215.936 552.791 215.78 552.791 215.6C552.791 215.432 552.851 215.276 552.983 215.144C553.103 215.024 553.259 214.952 553.439 214.952C553.607 214.952 553.763 215.024 553.895 215.144C554.015 215.276 554.087 215.432 554.087 215.6C554.087 215.78 554.015 215.936 553.895 216.056C553.763 216.188 553.607 216.248 553.439 216.248ZM554.507 214.64C554.327 214.64 554.171 214.58 554.051 214.448C553.919 214.328 553.859 214.172 553.859 213.992C553.859 213.824 553.919 213.668 554.051 213.536C554.171 213.416 554.327 213.344 554.507 213.344C554.675 213.344 554.831 213.416 554.963 213.536C555.083 213.668 555.155 213.824 555.155 213.992C555.155 214.172 555.083 214.328 554.963 214.448C554.831 214.58 554.675 214.64 554.507 214.64ZM561.815 223.304H563.687V214.112H565.727V214.964H564.539V224.156H561.815V223.304ZM567.743 214.112H568.595V224.156H567.743V214.112Z" fill="#181C32"/>
<path d="M17.404 37.5051C17.404 36.5211 17.62 35.7651 18.064 35.2251C18.508 34.6971 19.144 34.4211 19.972 34.4211H21.244V35.2731H19.804C19.348 35.2731 18.976 35.4651 18.688 35.8251C18.4 36.1851 18.256 36.6891 18.256 37.3131V39.4251H21.772V40.2771H17.404V37.5051ZM24.3851 30.2331H25.2371V39.4251H27.1091V40.2771H24.3851V30.2331ZM27.0171 39.4251H28.8891V33.6051H29.7411V34.4211H34.1691C34.5771 34.4211 34.9251 34.4931 35.2131 34.6251C35.5011 34.7691 35.7771 34.9731 36.0291 35.2371C36.2211 35.4771 36.3651 35.7411 36.4611 36.0411C36.5451 36.3411 36.5931 36.6411 36.5931 36.9411V39.4251H38.2011V40.2771H27.0171V39.4251ZM29.7411 35.2731V39.4251H35.7411V37.0851C35.7411 36.7971 35.7051 36.5571 35.6571 36.3531C35.5971 36.1611 35.5011 35.9811 35.3811 35.8131C35.2491 35.6451 35.0811 35.5131 34.8651 35.4171C34.6491 35.3211 34.4451 35.2731 34.2411 35.2731H29.7411ZM32.5731 33.0771C32.3931 33.0771 32.2371 33.0171 32.1171 32.8851C31.9851 32.7651 31.9251 32.6091 31.9251 32.4291C31.9251 32.2611 31.9851 32.1051 32.1171 31.9731C32.2371 31.8531 32.3931 31.7811 32.5731 31.7811C32.7411 31.7811 32.8971 31.8531 33.0291 31.9731C33.1491 32.1051 33.2211 32.2611 33.2211 32.4291C33.2211 32.6091 33.1491 32.7651 33.0291 32.8851C32.8971 33.0171 32.7411 33.0771 32.5731 33.0771ZM38.1115 39.4251H39.7915L39.5995 39.0771C39.4915 38.8731 39.3955 38.6571 39.3115 38.4171C39.2275 38.1891 39.1555 37.9491 39.1075 37.6851C39.0595 37.4331 39.0355 37.1691 39.0355 36.9051C39.0355 36.3291 39.1435 35.8251 39.3715 35.3931C39.5995 34.9611 39.8875 34.6011 40.2355 34.3131C40.4875 34.0971 40.7875 33.9291 41.1355 33.7971C41.4835 33.6771 41.8435 33.6051 42.2155 33.6051C42.4675 33.6051 42.6955 33.6291 42.9115 33.6531C43.1275 33.6771 43.3195 33.7251 43.5115 33.7851C43.7035 33.8451 43.8835 33.9171 44.0635 34.0011C44.2435 34.0971 44.4715 34.2171 44.7475 34.3851L44.4475 35.2011C44.0755 34.9251 43.7155 34.7331 43.3795 34.6251C43.0435 34.5171 42.7195 34.4571 42.4195 34.4571C42.0475 34.4571 41.7235 34.5051 41.4595 34.6011C41.1835 34.6971 40.9555 34.8291 40.7635 34.9731C40.1875 35.4651 39.8995 36.0531 39.8995 36.7251C39.8995 37.0731 39.9235 37.3851 39.9715 37.6491C40.0195 37.9131 40.0915 38.1651 40.1755 38.3811C40.2475 38.5971 40.3435 38.7891 40.4395 38.9571L40.7155 39.4251H45.0715V40.2771H38.1115V39.4251ZM46.5227 39.4251H49.9427C50.2787 39.4251 50.6027 39.3891 50.9147 39.3051C51.2147 39.2211 51.4787 39.0891 51.7067 38.9211C51.9227 38.7651 52.0787 38.5611 52.1987 38.3211C52.3067 38.0811 52.3667 37.7571 52.3667 37.3491V29.3451H54.1667V30.1971H53.2187V37.4691C53.2187 37.8291 53.1347 38.2011 52.9907 38.5851C52.8467 38.9691 52.6187 39.2811 52.3067 39.5091C51.9467 39.7851 51.5387 39.9771 51.0827 40.0971C50.6147 40.2171 50.1227 40.2771 49.6067 40.2771H46.6187L46.5227 39.4251ZM48.7667 31.7571H49.6187V39.0771H48.7667V31.7571ZM56.4228 30.2331H57.2748V40.2771H56.4228V30.2331ZM63.4091 39.4251H68.0651V36.2691C68.0651 35.9811 68.0291 35.7411 67.9811 35.5371C67.9211 35.3451 67.8251 35.1651 67.7051 34.9971C67.5731 34.8291 67.4051 34.6971 67.1891 34.6011C66.9731 34.5051 66.7691 34.4571 66.5651 34.4571H65.5331V33.6051H66.4931C66.9011 33.6051 67.2491 33.6771 67.5371 33.8091C67.8251 33.9531 68.1011 34.1571 68.3531 34.4211C68.5451 34.6611 68.6891 34.9251 68.7851 35.2251C68.8691 35.5251 68.9171 35.8251 68.9171 36.1251V40.2771H63.4091V39.4251ZM70.273 39.4251H74.929V36.2691C74.929 35.9811 74.893 35.7411 74.845 35.5371C74.785 35.3451 74.689 35.1651 74.569 34.9971C74.437 34.8291 74.269 34.6971 74.053 34.6011C73.837 34.5051 73.633 34.4571 73.429 34.4571H72.397V33.6051H73.357C73.765 33.6051 74.113 33.6771 74.401 33.8091C74.689 33.9531 74.965 34.1571 75.217 34.4211C75.409 34.6611 75.553 34.9251 75.649 35.2251C75.733 35.5251 75.781 35.8251 75.781 36.1251V39.4251H77.389V40.2771H70.273V39.4251ZM77.3028 39.4251H78.9828L78.7908 39.0771C78.6828 38.8731 78.5868 38.6571 78.5028 38.4171C78.4188 38.1891 78.3468 37.9491 78.2988 37.6851C78.2508 37.4331 78.2268 37.1691 78.2268 36.9051C78.2268 36.3291 78.3348 35.8251 78.5628 35.3931C78.7908 34.9611 79.0788 34.6011 79.4268 34.3131C79.6788 34.0971 79.9788 33.9291 80.3268 33.7971C80.6748 33.6771 81.0348 33.6051 81.4068 33.6051C81.6588 33.6051 81.8868 33.6291 82.1028 33.6531C82.3188 33.6771 82.5108 33.7251 82.7028 33.7851C82.8948 33.8451 83.0748 33.9171 83.2548 34.0011C83.4348 34.0971 83.6628 34.2171 83.9388 34.3851L83.6388 35.2011C83.2668 34.9251 82.9068 34.7331 82.5708 34.6251C82.2348 34.5171 81.9108 34.4571 81.6108 34.4571C81.2388 34.4571 80.9148 34.5051 80.6508 34.6011C80.3748 34.6971 80.1468 34.8291 79.9548 34.9731C79.3788 35.4651 79.0908 36.0531 79.0908 36.7251C79.0908 37.0731 79.1148 37.3851 79.1628 37.6491C79.2108 37.9131 79.2828 38.1651 79.3668 38.3811C79.4388 38.5971 79.5348 38.7891 79.6308 38.9571L79.9068 39.4251H84.2628V40.2771H77.3028V39.4251Z" fill="#181C32"/>
<path d="M44.228 79.6736C43.796 79.6736 43.436 79.7336 43.136 79.8536C42.824 79.9736 42.488 80.1896 42.116 80.4896L41.624 79.7576C42.056 79.4336 42.476 79.1936 42.884 79.0496C43.292 78.9056 43.736 78.8336 44.24 78.8336C44.6 78.8336 44.936 78.8816 45.248 78.9776C45.56 79.0736 45.848 79.2176 46.088 79.3976C46.328 79.5896 46.52 79.8176 46.664 80.1056C46.808 80.3936 46.88 80.7056 46.88 81.0656C46.88 81.5216 46.772 81.9656 46.568 82.3976C46.364 82.8296 46.064 83.2736 45.68 83.7296C45.296 84.1856 44.816 84.6416 44.264 85.1216C43.7 85.6016 43.184 86.0096 42.728 86.3456H47.108V87.1736H41.324V86.4056C42.104 85.8296 42.788 85.3016 43.364 84.8216C43.94 84.3416 44.42 83.8976 44.804 83.4656C45.188 83.0336 45.488 82.6256 45.68 82.2416C45.872 81.8576 45.98 81.4856 45.98 81.1256C45.98 80.8736 45.932 80.6576 45.836 80.4776C45.74 80.3096 45.62 80.1536 45.464 80.0336C45.296 79.9136 45.116 79.8296 44.9 79.7696C44.684 79.7096 44.456 79.6736 44.228 79.6736ZM51.6092 87.2696C51.1052 87.2696 50.6372 87.1976 50.2052 87.0536C49.7612 86.9096 49.3172 86.6816 48.8852 86.3456L49.3772 85.6136C49.7372 85.9136 50.0972 86.1296 50.4452 86.2496C50.7932 86.3696 51.1772 86.4296 51.5972 86.4296C51.8852 86.4296 52.1612 86.3936 52.4372 86.3096C52.7012 86.2376 52.9412 86.1176 53.1452 85.9616C53.3492 85.8056 53.5172 85.6136 53.6372 85.3856C53.7572 85.1696 53.8292 84.9056 53.8292 84.5936C53.8292 84.2696 53.7692 83.9816 53.6612 83.7416C53.5532 83.5016 53.4092 83.2976 53.2292 83.1416C53.0372 82.9856 52.8092 82.8656 52.5452 82.7816C52.2812 82.7096 51.9932 82.6616 51.6812 82.6616C51.3572 82.6616 51.0092 82.7096 50.6492 82.7936C50.2892 82.8776 49.8332 83.0336 49.2932 83.2616L49.8212 79.0616H54.3932V79.8896H50.5172L50.2412 82.0496C50.6612 81.9056 51.1652 81.8336 51.7412 81.8336C52.1372 81.8336 52.5212 81.8936 52.8812 81.9896C53.2412 82.0976 53.5532 82.2656 53.8292 82.4936C54.1052 82.7216 54.3212 83.0096 54.4892 83.3576C54.6452 83.7056 54.7292 84.1136 54.7292 84.5936C54.7292 85.0256 54.6332 85.4096 54.4652 85.7456C54.2852 86.0816 54.0452 86.3696 53.7572 86.5856C53.4692 86.8136 53.1332 86.9816 52.7612 87.1016C52.3892 87.2216 52.0052 87.2696 51.6092 87.2696Z" fill="#181C32"/>
<path d="M43.228 109.674C42.796 109.674 42.436 109.734 42.136 109.854C41.824 109.974 41.488 110.19 41.116 110.49L40.624 109.758C41.056 109.434 41.476 109.194 41.884 109.05C42.292 108.906 42.736 108.834 43.24 108.834C43.6 108.834 43.936 108.882 44.248 108.978C44.56 109.074 44.848 109.218 45.088 109.398C45.328 109.59 45.52 109.818 45.664 110.106C45.808 110.394 45.88 110.706 45.88 111.066C45.88 111.522 45.772 111.966 45.568 112.398C45.364 112.83 45.064 113.274 44.68 113.73C44.296 114.186 43.816 114.642 43.264 115.122C42.7 115.602 42.184 116.01 41.728 116.346H46.108V117.174H40.324V116.406C41.104 115.83 41.788 115.302 42.364 114.822C42.94 114.342 43.42 113.898 43.804 113.466C44.188 113.034 44.488 112.626 44.68 112.242C44.872 111.858 44.98 111.486 44.98 111.126C44.98 110.874 44.932 110.658 44.836 110.478C44.74 110.31 44.62 110.154 44.464 110.034C44.296 109.914 44.116 109.83 43.9 109.77C43.684 109.71 43.456 109.674 43.228 109.674ZM51.2692 116.43C51.9772 116.43 52.5412 116.166 52.9612 115.614C53.3812 115.074 53.5972 114.222 53.5972 113.07C53.5972 111.918 53.3812 111.066 52.9612 110.502C52.5292 109.938 51.9652 109.65 51.2692 109.65C50.5492 109.65 49.9732 109.938 49.5652 110.49C49.1572 111.054 48.9532 111.918 48.9532 113.07C48.9532 114.222 49.1572 115.074 49.5652 115.614C49.9732 116.166 50.5492 116.43 51.2692 116.43ZM51.2692 117.27C50.7172 117.27 50.2372 117.174 49.8292 116.958C49.4212 116.754 49.0852 116.466 48.8212 116.094C48.5572 115.734 48.3532 115.29 48.2332 114.774C48.1012 114.258 48.0412 113.694 48.0412 113.07C48.0412 112.458 48.1012 111.894 48.2332 111.378C48.3532 110.874 48.5572 110.43 48.8212 110.046C49.0852 109.662 49.4212 109.374 49.8292 109.158C50.2372 108.942 50.7172 108.834 51.2692 108.834C51.8092 108.834 52.2772 108.942 52.6852 109.158C53.0932 109.374 53.4292 109.662 53.6932 110.046C53.9572 110.43 54.1492 110.874 54.2812 111.378C54.4012 111.894 54.4732 112.458 54.4732 113.07C54.4732 113.694 54.4012 114.258 54.2812 114.774C54.1492 115.29 53.9572 115.734 53.6932 116.094C53.4292 116.466 53.0932 116.754 52.6852 116.958C52.2772 117.174 51.8092 117.27 51.2692 117.27Z" fill="#181C32"/>
<path d="M43.04 140.034L41.276 140.538V139.746L43.892 139.002V147.174H43.04V140.034ZM48.9256 147.27C48.4216 147.27 47.9536 147.198 47.5216 147.054C47.0776 146.91 46.6336 146.682 46.2016 146.346L46.6936 145.614C47.0536 145.914 47.4136 146.13 47.7616 146.25C48.1096 146.37 48.4936 146.43 48.9136 146.43C49.2016 146.43 49.4776 146.394 49.7536 146.31C50.0176 146.238 50.2576 146.118 50.4616 145.962C50.6656 145.806 50.8336 145.614 50.9536 145.386C51.0736 145.17 51.1456 144.906 51.1456 144.594C51.1456 144.27 51.0856 143.982 50.9776 143.742C50.8696 143.502 50.7256 143.298 50.5456 143.142C50.3536 142.986 50.1256 142.866 49.8616 142.782C49.5976 142.71 49.3096 142.662 48.9976 142.662C48.6736 142.662 48.3256 142.71 47.9656 142.794C47.6056 142.878 47.1496 143.034 46.6096 143.262L47.1376 139.062H51.7096V139.89H47.8336L47.5576 142.05C47.9776 141.906 48.4816 141.834 49.0576 141.834C49.4536 141.834 49.8376 141.894 50.1976 141.99C50.5576 142.098 50.8696 142.266 51.1456 142.494C51.4216 142.722 51.6376 143.01 51.8056 143.358C51.9616 143.706 52.0456 144.114 52.0456 144.594C52.0456 145.026 51.9496 145.41 51.7816 145.746C51.6016 146.082 51.3616 146.37 51.0736 146.586C50.7856 146.814 50.4496 146.982 50.0776 147.102C49.7056 147.222 49.3216 147.27 48.9256 147.27Z" fill="#181C32"/>
<path d="M43.04 170.034L41.276 170.538V169.746L43.892 169.002V177.174H43.04V170.034ZM49.5856 176.43C50.2936 176.43 50.8576 176.166 51.2776 175.614C51.6976 175.074 51.9136 174.222 51.9136 173.07C51.9136 171.918 51.6976 171.066 51.2776 170.502C50.8456 169.938 50.2816 169.65 49.5856 169.65C48.8656 169.65 48.2896 169.938 47.8816 170.49C47.4736 171.054 47.2696 171.918 47.2696 173.07C47.2696 174.222 47.4736 175.074 47.8816 175.614C48.2896 176.166 48.8656 176.43 49.5856 176.43ZM49.5856 177.27C49.0336 177.27 48.5536 177.174 48.1456 176.958C47.7376 176.754 47.4016 176.466 47.1376 176.094C46.8736 175.734 46.6696 175.29 46.5496 174.774C46.4176 174.258 46.3576 173.694 46.3576 173.07C46.3576 172.458 46.4176 171.894 46.5496 171.378C46.6696 170.874 46.8736 170.43 47.1376 170.046C47.4016 169.662 47.7376 169.374 48.1456 169.158C48.5536 168.942 49.0336 168.834 49.5856 168.834C50.1256 168.834 50.5936 168.942 51.0016 169.158C51.4096 169.374 51.7456 169.662 52.0096 170.046C52.2736 170.43 52.4656 170.874 52.5976 171.378C52.7176 171.894 52.7896 172.458 52.7896 173.07C52.7896 173.694 52.7176 174.258 52.5976 174.774C52.4656 175.29 52.2736 175.734 52.0096 176.094C51.7456 176.466 51.4096 176.754 51.0016 176.958C50.5936 177.174 50.1256 177.27 49.5856 177.27Z" fill="#181C32"/>
<path d="M46.3 207.27C45.796 207.27 45.328 207.198 44.896 207.054C44.452 206.91 44.008 206.682 43.576 206.346L44.068 205.614C44.428 205.914 44.788 206.13 45.136 206.25C45.484 206.37 45.868 206.43 46.288 206.43C46.576 206.43 46.852 206.394 47.128 206.31C47.392 206.238 47.632 206.118 47.836 205.962C48.04 205.806 48.208 205.614 48.328 205.386C48.448 205.17 48.52 204.906 48.52 204.594C48.52 204.27 48.46 203.982 48.352 203.742C48.244 203.502 48.1 203.298 47.92 203.142C47.728 202.986 47.5 202.866 47.236 202.782C46.972 202.71 46.684 202.662 46.372 202.662C46.048 202.662 45.7 202.71 45.34 202.794C44.98 202.878 44.524 203.034 43.984 203.262L44.512 199.062H49.084V199.89H45.208L44.932 202.05C45.352 201.906 45.856 201.834 46.432 201.834C46.828 201.834 47.212 201.894 47.572 201.99C47.932 202.098 48.244 202.266 48.52 202.494C48.796 202.722 49.012 203.01 49.18 203.358C49.336 203.706 49.42 204.114 49.42 204.594C49.42 205.026 49.324 205.41 49.156 205.746C48.976 206.082 48.736 206.37 48.448 206.586C48.16 206.814 47.824 206.982 47.452 207.102C47.08 207.222 46.696 207.27 46.3 207.27Z" fill="#181C32"/>
<path d="M46.96 236.43C47.668 236.43 48.232 236.166 48.652 235.614C49.072 235.074 49.288 234.222 49.288 233.07C49.288 231.918 49.072 231.066 48.652 230.502C48.22 229.938 47.656 229.65 46.96 229.65C46.24 229.65 45.664 229.938 45.256 230.49C44.848 231.054 44.644 231.918 44.644 233.07C44.644 234.222 44.848 235.074 45.256 235.614C45.664 236.166 46.24 236.43 46.96 236.43ZM46.96 237.27C46.408 237.27 45.928 237.174 45.52 236.958C45.112 236.754 44.776 236.466 44.512 236.094C44.248 235.734 44.044 235.29 43.924 234.774C43.792 234.258 43.732 233.694 43.732 233.07C43.732 232.458 43.792 231.894 43.924 231.378C44.044 230.874 44.248 230.43 44.512 230.046C44.776 229.662 45.112 229.374 45.52 229.158C45.928 228.942 46.408 228.834 46.96 228.834C47.5 228.834 47.968 228.942 48.376 229.158C48.784 229.374 49.12 229.662 49.384 230.046C49.648 230.43 49.84 230.874 49.972 231.378C50.092 231.894 50.164 232.458 50.164 233.07C50.164 233.694 50.092 234.258 49.972 234.774C49.84 235.29 49.648 235.734 49.384 236.094C49.12 236.466 48.784 236.754 48.376 236.958C47.968 237.174 47.5 237.27 46.96 237.27Z" fill="#181C32"/>
<path d="M95 66V219" stroke="#F2F2F2" stroke-width="0.465478" stroke-linecap="square"/>
<path d="M99 79H523" stroke="#F2F2F2" stroke-width="0.465478" stroke-linecap="square"/>
<path d="M99 107H523" stroke="#F2F2F2" stroke-width="0.465478" stroke-linecap="square"/>
<path d="M99 135H523" stroke="#F2F2F2" stroke-width="0.465478" stroke-linecap="square"/>
<path d="M99 163H523" stroke="#F2F2F2" stroke-width="0.465478" stroke-linecap="square"/>
<path d="M99 191H523" stroke="#F2F2F2" stroke-width="0.465478" stroke-linecap="square"/>
<path d="M96 219L523 219" stroke="#F2F2F2" stroke-width="0.465478" stroke-linecap="square"/>
<path d="M112.96 240.412C113.668 240.412 114.232 240.148 114.652 239.596C115.072 239.056 115.288 238.204 115.288 237.052C115.288 235.9 115.072 235.048 114.652 234.484C114.22 233.92 113.656 233.632 112.96 233.632C112.24 233.632 111.664 233.92 111.256 234.472C110.848 235.036 110.644 235.9 110.644 237.052C110.644 238.204 110.848 239.056 111.256 239.596C111.664 240.148 112.24 240.412 112.96 240.412ZM112.96 241.252C112.408 241.252 111.928 241.156 111.52 240.94C111.112 240.736 110.776 240.448 110.512 240.076C110.248 239.716 110.044 239.272 109.924 238.756C109.792 238.24 109.732 237.676 109.732 237.052C109.732 236.44 109.792 235.876 109.924 235.36C110.044 234.856 110.248 234.412 110.512 234.028C110.776 233.644 111.112 233.356 111.52 233.14C111.928 232.924 112.408 232.816 112.96 232.816C113.5 232.816 113.968 232.924 114.376 233.14C114.784 233.356 115.12 233.644 115.384 234.028C115.648 234.412 115.84 234.856 115.972 235.36C116.092 235.876 116.164 236.44 116.164 237.052C116.164 237.676 116.092 238.24 115.972 238.756C115.84 239.272 115.648 239.716 115.384 240.076C115.12 240.448 114.784 240.736 114.376 240.94C113.968 241.156 113.5 241.252 112.96 241.252ZM119.416 234.016L117.652 234.52V233.728L120.268 232.984V241.156H119.416V234.016Z" fill="#181C32"/>
<path d="M146.96 240.412C147.668 240.412 148.232 240.148 148.652 239.596C149.072 239.056 149.288 238.204 149.288 237.052C149.288 235.9 149.072 235.048 148.652 234.484C148.22 233.92 147.656 233.632 146.96 233.632C146.24 233.632 145.664 233.92 145.256 234.472C144.848 235.036 144.644 235.9 144.644 237.052C144.644 238.204 144.848 239.056 145.256 239.596C145.664 240.148 146.24 240.412 146.96 240.412ZM146.96 241.252C146.408 241.252 145.928 241.156 145.52 240.94C145.112 240.736 144.776 240.448 144.512 240.076C144.248 239.716 144.044 239.272 143.924 238.756C143.792 238.24 143.732 237.676 143.732 237.052C143.732 236.44 143.792 235.876 143.924 235.36C144.044 234.856 144.248 234.412 144.512 234.028C144.776 233.644 145.112 233.356 145.52 233.14C145.928 232.924 146.408 232.816 146.96 232.816C147.5 232.816 147.968 232.924 148.376 233.14C148.784 233.356 149.12 233.644 149.384 234.028C149.648 234.412 149.84 234.856 149.972 235.36C150.092 235.876 150.164 236.44 150.164 237.052C150.164 237.676 150.092 238.24 149.972 238.756C149.84 239.272 149.648 239.716 149.384 240.076C149.12 240.448 148.784 240.736 148.376 240.94C147.968 241.156 147.5 241.252 146.96 241.252ZM154.604 233.656C154.172 233.656 153.812 233.716 153.512 233.836C153.2 233.956 152.864 234.172 152.492 234.472L152 233.74C152.432 233.416 152.852 233.176 153.26 233.032C153.668 232.888 154.112 232.816 154.616 232.816C154.976 232.816 155.312 232.864 155.624 232.96C155.936 233.056 156.224 233.2 156.464 233.38C156.704 233.572 156.896 233.8 157.04 234.088C157.184 234.376 157.256 234.688 157.256 235.048C157.256 235.504 157.148 235.948 156.944 236.38C156.74 236.812 156.44 237.256 156.056 237.712C155.672 238.168 155.192 238.624 154.64 239.104C154.076 239.584 153.56 239.992 153.104 240.328H157.484V241.156H151.7V240.388C152.48 239.812 153.164 239.284 153.74 238.804C154.316 238.324 154.796 237.88 155.18 237.448C155.564 237.016 155.864 236.608 156.056 236.224C156.248 235.84 156.356 235.468 156.356 235.108C156.356 234.856 156.308 234.64 156.212 234.46C156.116 234.292 155.996 234.136 155.84 234.016C155.672 233.896 155.492 233.812 155.276 233.752C155.06 233.692 154.832 233.656 154.604 233.656Z" fill="#181C32"/>
<path d="M181.96 240.412C182.668 240.412 183.232 240.148 183.652 239.596C184.072 239.056 184.288 238.204 184.288 237.052C184.288 235.9 184.072 235.048 183.652 234.484C183.22 233.92 182.656 233.632 181.96 233.632C181.24 233.632 180.664 233.92 180.256 234.472C179.848 235.036 179.644 235.9 179.644 237.052C179.644 238.204 179.848 239.056 180.256 239.596C180.664 240.148 181.24 240.412 181.96 240.412ZM181.96 241.252C181.408 241.252 180.928 241.156 180.52 240.94C180.112 240.736 179.776 240.448 179.512 240.076C179.248 239.716 179.044 239.272 178.924 238.756C178.792 238.24 178.732 237.676 178.732 237.052C178.732 236.44 178.792 235.876 178.924 235.36C179.044 234.856 179.248 234.412 179.512 234.028C179.776 233.644 180.112 233.356 180.52 233.14C180.928 232.924 181.408 232.816 181.96 232.816C182.5 232.816 182.968 232.924 183.376 233.14C183.784 233.356 184.12 233.644 184.384 234.028C184.648 234.412 184.84 234.856 184.972 235.36C185.092 235.876 185.164 236.44 185.164 237.052C185.164 237.676 185.092 238.24 184.972 238.756C184.84 239.272 184.648 239.716 184.384 240.076C184.12 240.448 183.784 240.736 183.376 240.94C182.968 241.156 182.5 241.252 181.96 241.252ZM189.184 241.252C188.68 241.252 188.224 241.18 187.804 241.036C187.372 240.892 186.952 240.664 186.52 240.328L187.012 239.596C187.384 239.908 187.732 240.112 188.056 240.232C188.368 240.352 188.74 240.412 189.172 240.412C189.46 240.412 189.736 240.388 190 240.316C190.264 240.244 190.492 240.148 190.684 240.016C190.876 239.884 191.02 239.728 191.128 239.536C191.236 239.344 191.296 239.128 191.296 238.864C191.296 238.576 191.236 238.336 191.14 238.144C191.032 237.952 190.888 237.784 190.696 237.652C190.504 237.532 190.264 237.436 189.988 237.376C189.7 237.316 189.388 237.28 189.028 237.28H188.74V236.452H188.992C189.736 236.452 190.276 236.332 190.612 236.068C190.936 235.816 191.104 235.468 191.104 235.012C191.104 234.808 191.056 234.628 190.972 234.46C190.876 234.304 190.756 234.16 190.588 234.04C190.42 233.92 190.228 233.836 190 233.764C189.772 233.692 189.52 233.656 189.256 233.656C188.836 233.656 188.476 233.716 188.176 233.836C187.864 233.956 187.528 234.172 187.144 234.472L186.676 233.74C187.096 233.416 187.516 233.176 187.924 233.032C188.332 232.888 188.776 232.816 189.28 232.816C189.652 232.816 190 232.864 190.336 232.96C190.66 233.056 190.948 233.2 191.2 233.38C191.44 233.572 191.644 233.8 191.788 234.064C191.932 234.328 192.016 234.628 192.016 234.952C192.016 235.228 191.968 235.48 191.872 235.708C191.776 235.948 191.656 236.152 191.512 236.32C191.368 236.488 191.224 236.608 191.104 236.68C190.984 236.752 190.864 236.812 190.756 236.836C190.9 236.86 191.044 236.92 191.188 236.992C191.332 237.064 191.476 237.196 191.644 237.376C191.812 237.556 191.944 237.772 192.04 238.024C192.136 238.276 192.196 238.552 192.196 238.864C192.196 239.248 192.112 239.596 191.944 239.896C191.776 240.208 191.56 240.46 191.284 240.652C191.008 240.856 190.696 241.012 190.336 241.108C189.976 241.204 189.592 241.252 189.184 241.252Z" fill="#181C32"/>
<path d="M215.96 240.412C216.668 240.412 217.232 240.148 217.652 239.596C218.072 239.056 218.288 238.204 218.288 237.052C218.288 235.9 218.072 235.048 217.652 234.484C217.22 233.92 216.656 233.632 215.96 233.632C215.24 233.632 214.664 233.92 214.256 234.472C213.848 235.036 213.644 235.9 213.644 237.052C213.644 238.204 213.848 239.056 214.256 239.596C214.664 240.148 215.24 240.412 215.96 240.412ZM215.96 241.252C215.408 241.252 214.928 241.156 214.52 240.94C214.112 240.736 213.776 240.448 213.512 240.076C213.248 239.716 213.044 239.272 212.924 238.756C212.792 238.24 212.732 237.676 212.732 237.052C212.732 236.44 212.792 235.876 212.924 235.36C213.044 234.856 213.248 234.412 213.512 234.028C213.776 233.644 214.112 233.356 214.52 233.14C214.928 232.924 215.408 232.816 215.96 232.816C216.5 232.816 216.968 232.924 217.376 233.14C217.784 233.356 218.12 233.644 218.384 234.028C218.648 234.412 218.84 234.856 218.972 235.36C219.092 235.876 219.164 236.44 219.164 237.052C219.164 237.676 219.092 238.24 218.972 238.756C218.84 239.272 218.648 239.716 218.384 240.076C218.12 240.448 217.784 240.736 217.376 240.94C216.968 241.156 216.5 241.252 215.96 241.252ZM225.116 239.02H220.784V238.324L225.176 233.044H225.968V238.204H227.528V239.02H225.968V241.156H225.116V239.02ZM225.116 238.204V234.34L221.924 238.204H225.116Z" fill="#181C32"/>
<path d="M251.96 240.412C252.668 240.412 253.232 240.148 253.652 239.596C254.072 239.056 254.288 238.204 254.288 237.052C254.288 235.9 254.072 235.048 253.652 234.484C253.22 233.92 252.656 233.632 251.96 233.632C251.24 233.632 250.664 233.92 250.256 234.472C249.848 235.036 249.644 235.9 249.644 237.052C249.644 238.204 249.848 239.056 250.256 239.596C250.664 240.148 251.24 240.412 251.96 240.412ZM251.96 241.252C251.408 241.252 250.928 241.156 250.52 240.94C250.112 240.736 249.776 240.448 249.512 240.076C249.248 239.716 249.044 239.272 248.924 238.756C248.792 238.24 248.732 237.676 248.732 237.052C248.732 236.44 248.792 235.876 248.924 235.36C249.044 234.856 249.248 234.412 249.512 234.028C249.776 233.644 250.112 233.356 250.52 233.14C250.928 232.924 251.408 232.816 251.96 232.816C252.5 232.816 252.968 232.924 253.376 233.14C253.784 233.356 254.12 233.644 254.384 234.028C254.648 234.412 254.84 234.856 254.972 235.36C255.092 235.876 255.164 236.44 255.164 237.052C255.164 237.676 255.092 238.24 254.972 238.756C254.84 239.272 254.648 239.716 254.384 240.076C254.12 240.448 253.784 240.736 253.376 240.94C252.968 241.156 252.5 241.252 251.96 241.252ZM259.676 241.252C259.172 241.252 258.704 241.18 258.272 241.036C257.828 240.892 257.384 240.664 256.952 240.328L257.444 239.596C257.804 239.896 258.164 240.112 258.512 240.232C258.86 240.352 259.244 240.412 259.664 240.412C259.952 240.412 260.228 240.376 260.504 240.292C260.768 240.22 261.008 240.1 261.212 239.944C261.416 239.788 261.584 239.596 261.704 239.368C261.824 239.152 261.896 238.888 261.896 238.576C261.896 238.252 261.836 237.964 261.728 237.724C261.62 237.484 261.476 237.28 261.296 237.124C261.104 236.968 260.876 236.848 260.612 236.764C260.348 236.692 260.06 236.644 259.748 236.644C259.424 236.644 259.076 236.692 258.716 236.776C258.356 236.86 257.9 237.016 257.36 237.244L257.888 233.044H262.46V233.872H258.584L258.308 236.032C258.728 235.888 259.232 235.816 259.808 235.816C260.204 235.816 260.588 235.876 260.948 235.972C261.308 236.08 261.62 236.248 261.896 236.476C262.172 236.704 262.388 236.992 262.556 237.34C262.712 237.688 262.796 238.096 262.796 238.576C262.796 239.008 262.7 239.392 262.532 239.728C262.352 240.064 262.112 240.352 261.824 240.568C261.536 240.796 261.2 240.964 260.828 241.084C260.456 241.204 260.072 241.252 259.676 241.252Z" fill="#181C32"/>
<path d="M286.96 240.412C287.668 240.412 288.232 240.148 288.652 239.596C289.072 239.056 289.288 238.204 289.288 237.052C289.288 235.9 289.072 235.048 288.652 234.484C288.22 233.92 287.656 233.632 286.96 233.632C286.24 233.632 285.664 233.92 285.256 234.472C284.848 235.036 284.644 235.9 284.644 237.052C284.644 238.204 284.848 239.056 285.256 239.596C285.664 240.148 286.24 240.412 286.96 240.412ZM286.96 241.252C286.408 241.252 285.928 241.156 285.52 240.94C285.112 240.736 284.776 240.448 284.512 240.076C284.248 239.716 284.044 239.272 283.924 238.756C283.792 238.24 283.732 237.676 283.732 237.052C283.732 236.44 283.792 235.876 283.924 235.36C284.044 234.856 284.248 234.412 284.512 234.028C284.776 233.644 285.112 233.356 285.52 233.14C285.928 232.924 286.408 232.816 286.96 232.816C287.5 232.816 287.968 232.924 288.376 233.14C288.784 233.356 289.12 233.644 289.384 234.028C289.648 234.412 289.84 234.856 289.972 235.36C290.092 235.876 290.164 236.44 290.164 237.052C290.164 237.676 290.092 238.24 289.972 238.756C289.84 239.272 289.648 239.716 289.384 240.076C289.12 240.448 288.784 240.736 288.376 240.94C287.968 241.156 287.5 241.252 286.96 241.252ZM295.06 241.252C294.64 241.252 294.244 241.18 293.884 241.024C293.524 240.88 293.2 240.676 292.936 240.412C292.66 240.148 292.444 239.836 292.288 239.476C292.12 239.116 292.048 238.732 292.048 238.3C292.048 237.916 292.108 237.556 292.252 237.22C292.396 236.884 292.624 236.488 292.96 236.02L295.108 233.044H296.152L294.4 235.48C294.472 235.444 294.568 235.408 294.688 235.384C294.808 235.36 294.964 235.348 295.156 235.348C295.564 235.348 295.936 235.432 296.296 235.576C296.644 235.732 296.956 235.948 297.22 236.212C297.484 236.476 297.7 236.788 297.856 237.148C298.012 237.508 298.096 237.892 298.096 238.3C298.096 238.696 298.012 239.068 297.868 239.416C297.712 239.776 297.496 240.088 297.232 240.364C296.956 240.64 296.632 240.856 296.272 241.012C295.9 241.18 295.492 241.252 295.06 241.252ZM295.072 240.412C295.372 240.412 295.648 240.364 295.912 240.244C296.164 240.136 296.392 239.98 296.584 239.788C296.776 239.596 296.92 239.368 297.028 239.104C297.136 238.84 297.196 238.564 297.196 238.276C297.196 238 297.136 237.736 297.028 237.472C296.92 237.208 296.776 236.992 296.584 236.8C296.392 236.608 296.176 236.464 295.912 236.344C295.648 236.236 295.372 236.176 295.072 236.176C294.76 236.176 294.484 236.236 294.22 236.344C293.956 236.464 293.74 236.608 293.548 236.8C293.356 236.992 293.212 237.208 293.104 237.472C292.996 237.736 292.948 238 292.948 238.276C292.948 238.564 292.996 238.84 293.104 239.104C293.2 239.368 293.356 239.596 293.548 239.788C293.74 239.98 293.956 240.136 294.22 240.244C294.484 240.364 294.76 240.412 295.072 240.412Z" fill="#181C32"/>
<path d="M321.96 240.412C322.668 240.412 323.232 240.148 323.652 239.596C324.072 239.056 324.288 238.204 324.288 237.052C324.288 235.9 324.072 235.048 323.652 234.484C323.22 233.92 322.656 233.632 321.96 233.632C321.24 233.632 320.664 233.92 320.256 234.472C319.848 235.036 319.644 235.9 319.644 237.052C319.644 238.204 319.848 239.056 320.256 239.596C320.664 240.148 321.24 240.412 321.96 240.412ZM321.96 241.252C321.408 241.252 320.928 241.156 320.52 240.94C320.112 240.736 319.776 240.448 319.512 240.076C319.248 239.716 319.044 239.272 318.924 238.756C318.792 238.24 318.732 237.676 318.732 237.052C318.732 236.44 318.792 235.876 318.924 235.36C319.044 234.856 319.248 234.412 319.512 234.028C319.776 233.644 320.112 233.356 320.52 233.14C320.928 232.924 321.408 232.816 321.96 232.816C322.5 232.816 322.968 232.924 323.376 233.14C323.784 233.356 324.12 233.644 324.384 234.028C324.648 234.412 324.84 234.856 324.972 235.36C325.092 235.876 325.164 236.44 325.164 237.052C325.164 237.676 325.092 238.24 324.972 238.756C324.84 239.272 324.648 239.716 324.384 240.076C324.12 240.448 323.784 240.736 323.376 240.94C322.968 241.156 322.5 241.252 321.96 241.252ZM331.392 233.872H326.7V233.044H332.412V233.752L328.272 241.156H327.264L331.392 233.872Z" fill="#181C32"/>
<path d="M356.96 240.412C357.668 240.412 358.232 240.148 358.652 239.596C359.072 239.056 359.288 238.204 359.288 237.052C359.288 235.9 359.072 235.048 358.652 234.484C358.22 233.92 357.656 233.632 356.96 233.632C356.24 233.632 355.664 233.92 355.256 234.472C354.848 235.036 354.644 235.9 354.644 237.052C354.644 238.204 354.848 239.056 355.256 239.596C355.664 240.148 356.24 240.412 356.96 240.412ZM356.96 241.252C356.408 241.252 355.928 241.156 355.52 240.94C355.112 240.736 354.776 240.448 354.512 240.076C354.248 239.716 354.044 239.272 353.924 238.756C353.792 238.24 353.732 237.676 353.732 237.052C353.732 236.44 353.792 235.876 353.924 235.36C354.044 234.856 354.248 234.412 354.512 234.028C354.776 233.644 355.112 233.356 355.52 233.14C355.928 232.924 356.408 232.816 356.96 232.816C357.5 232.816 357.968 232.924 358.376 233.14C358.784 233.356 359.12 233.644 359.384 234.028C359.648 234.412 359.84 234.856 359.972 235.36C360.092 235.876 360.164 236.44 360.164 237.052C360.164 237.676 360.092 238.24 359.972 238.756C359.84 239.272 359.648 239.716 359.384 240.076C359.12 240.448 358.784 240.736 358.376 240.94C357.968 241.156 357.5 241.252 356.96 241.252ZM365.108 232.816C365.492 232.816 365.852 232.876 366.188 232.972C366.524 233.068 366.812 233.212 367.064 233.404C367.304 233.596 367.508 233.824 367.652 234.088C367.796 234.352 367.868 234.64 367.868 234.952C367.868 235.432 367.724 235.852 367.46 236.212C367.196 236.572 366.968 236.776 366.788 236.824C366.98 236.896 367.112 236.956 367.196 237.004C367.268 237.052 367.388 237.172 367.556 237.34C367.724 237.52 367.856 237.736 367.964 237.976C368.06 238.228 368.12 238.516 368.12 238.852C368.12 239.236 368.036 239.584 367.868 239.884C367.7 240.196 367.472 240.448 367.196 240.652C366.92 240.856 366.608 241.012 366.248 241.108C365.888 241.204 365.504 241.252 365.108 241.252C364.712 241.252 364.34 241.204 363.98 241.108C363.62 241.012 363.296 240.856 363.02 240.652C362.744 240.448 362.528 240.196 362.36 239.884C362.192 239.584 362.108 239.236 362.108 238.852C362.108 238.516 362.156 238.228 362.264 237.976C362.36 237.736 362.492 237.52 362.66 237.34C362.816 237.172 362.936 237.052 363.02 237.004C363.092 236.956 363.272 236.884 363.548 236.788C363.368 236.74 363.224 236.668 363.116 236.584C362.996 236.5 362.876 236.368 362.756 236.2C362.624 236.032 362.528 235.852 362.456 235.636C362.384 235.42 362.348 235.192 362.348 234.952C362.348 234.64 362.42 234.352 362.564 234.088C362.708 233.824 362.9 233.596 363.152 233.404C363.404 233.212 363.692 233.068 364.028 232.972C364.364 232.876 364.724 232.816 365.108 232.816ZM365.108 237.184C364.436 237.184 363.92 237.328 363.56 237.616C363.188 237.904 363.008 238.312 363.008 238.828C363.008 239.092 363.056 239.308 363.164 239.5C363.26 239.692 363.404 239.86 363.596 239.992C363.776 240.136 363.992 240.232 364.256 240.304C364.52 240.376 364.796 240.412 365.108 240.412C365.408 240.412 365.696 240.376 365.96 240.304C366.224 240.232 366.44 240.136 366.632 239.992C366.812 239.86 366.956 239.692 367.064 239.5C367.16 239.308 367.22 239.092 367.22 238.828C367.22 238.312 367.028 237.904 366.656 237.616C366.284 237.328 365.768 237.184 365.108 237.184ZM365.108 233.656C364.832 233.656 364.58 233.692 364.352 233.752C364.124 233.824 363.932 233.908 363.764 234.028C363.596 234.148 363.476 234.292 363.38 234.448C363.284 234.616 363.248 234.796 363.248 235.012C363.248 235.204 363.284 235.372 363.356 235.54C363.428 235.708 363.548 235.864 363.692 235.984C363.836 236.104 364.028 236.212 364.268 236.284C364.508 236.368 364.784 236.404 365.108 236.404C365.42 236.404 365.708 236.368 365.948 236.284C366.188 236.212 366.38 236.104 366.524 235.984C366.668 235.864 366.788 235.708 366.86 235.54C366.932 235.372 366.98 235.204 366.98 235.012C366.98 234.796 366.932 234.616 366.836 234.448C366.74 234.292 366.62 234.148 366.452 234.028C366.284 233.908 366.092 233.824 365.864 233.752C365.624 233.692 365.372 233.656 365.108 233.656Z" fill="#181C32"/>
<path d="M391.96 240.412C392.668 240.412 393.232 240.148 393.652 239.596C394.072 239.056 394.288 238.204 394.288 237.052C394.288 235.9 394.072 235.048 393.652 234.484C393.22 233.92 392.656 233.632 391.96 233.632C391.24 233.632 390.664 233.92 390.256 234.472C389.848 235.036 389.644 235.9 389.644 237.052C389.644 238.204 389.848 239.056 390.256 239.596C390.664 240.148 391.24 240.412 391.96 240.412ZM391.96 241.252C391.408 241.252 390.928 241.156 390.52 240.94C390.112 240.736 389.776 240.448 389.512 240.076C389.248 239.716 389.044 239.272 388.924 238.756C388.792 238.24 388.732 237.676 388.732 237.052C388.732 236.44 388.792 235.876 388.924 235.36C389.044 234.856 389.248 234.412 389.512 234.028C389.776 233.644 390.112 233.356 390.52 233.14C390.928 232.924 391.408 232.816 391.96 232.816C392.5 232.816 392.968 232.924 393.376 233.14C393.784 233.356 394.12 233.644 394.384 234.028C394.648 234.412 394.84 234.856 394.972 235.36C395.092 235.876 395.164 236.44 395.164 237.052C395.164 237.676 395.092 238.24 394.972 238.756C394.84 239.272 394.648 239.716 394.384 240.076C394.12 240.448 393.784 240.736 393.376 240.94C392.968 241.156 392.5 241.252 391.96 241.252ZM400.072 232.816C400.48 232.816 400.876 232.9 401.236 233.044C401.596 233.2 401.92 233.404 402.196 233.668C402.472 233.932 402.688 234.244 402.856 234.604C403.012 234.964 403.096 235.36 403.096 235.768C403.096 236.152 403.012 236.512 402.868 236.848C402.724 237.184 402.496 237.58 402.184 238.036L400.036 241.156H398.992L400.768 238.588C400.672 238.636 400.564 238.672 400.444 238.696C400.324 238.72 400.168 238.732 399.976 238.732C399.568 238.732 399.184 238.66 398.836 238.504C398.476 238.36 398.164 238.144 397.9 237.88C397.636 237.616 397.42 237.292 397.276 236.932C397.12 236.572 397.048 236.188 397.048 235.768C397.048 235.384 397.12 235.012 397.276 234.652C397.42 234.304 397.636 233.992 397.912 233.716C398.176 233.452 398.5 233.236 398.872 233.068C399.232 232.9 399.64 232.816 400.072 232.816ZM400.072 233.656C399.76 233.656 399.484 233.716 399.22 233.824C398.956 233.944 398.74 234.1 398.548 234.292C398.356 234.484 398.2 234.712 398.104 234.976C397.996 235.24 397.948 235.504 397.948 235.792C397.948 236.08 397.996 236.344 398.104 236.608C398.2 236.872 398.344 237.088 398.536 237.28C398.728 237.472 398.956 237.616 399.22 237.724C399.484 237.844 399.76 237.892 400.072 237.892C400.36 237.892 400.648 237.844 400.912 237.724C401.176 237.616 401.392 237.472 401.584 237.28C401.776 237.088 401.92 236.872 402.028 236.608C402.136 236.344 402.196 236.08 402.196 235.792C402.196 235.504 402.136 235.24 402.04 234.976C401.932 234.712 401.788 234.484 401.596 234.292C401.404 234.1 401.176 233.944 400.912 233.824C400.648 233.716 400.372 233.656 400.072 233.656Z" fill="#181C32"/>
<path d="M426.04 234.016L424.276 234.52V233.728L426.892 232.984V241.156H426.04V234.016ZM432.586 240.412C433.294 240.412 433.858 240.148 434.278 239.596C434.698 239.056 434.914 238.204 434.914 237.052C434.914 235.9 434.698 235.048 434.278 234.484C433.846 233.92 433.282 233.632 432.586 233.632C431.866 233.632 431.29 233.92 430.882 234.472C430.474 235.036 430.27 235.9 430.27 237.052C430.27 238.204 430.474 239.056 430.882 239.596C431.29 240.148 431.866 240.412 432.586 240.412ZM432.586 241.252C432.034 241.252 431.554 241.156 431.146 240.94C430.738 240.736 430.402 240.448 430.138 240.076C429.874 239.716 429.67 239.272 429.55 238.756C429.418 238.24 429.358 237.676 429.358 237.052C429.358 236.44 429.418 235.876 429.55 235.36C429.67 234.856 429.874 234.412 430.138 234.028C430.402 233.644 430.738 233.356 431.146 233.14C431.554 232.924 432.034 232.816 432.586 232.816C433.126 232.816 433.594 232.924 434.002 233.14C434.41 233.356 434.746 233.644 435.01 234.028C435.274 234.412 435.466 234.856 435.598 235.36C435.718 235.876 435.79 236.44 435.79 237.052C435.79 237.676 435.718 238.24 435.598 238.756C435.466 239.272 435.274 239.716 435.01 240.076C434.746 240.448 434.41 240.736 434.002 240.94C433.594 241.156 433.126 241.252 432.586 241.252Z" fill="#181C32"/>
<path d="M463.04 234.016L461.276 234.52V233.728L463.892 232.984V241.156H463.04V234.016ZM468.029 234.016L466.265 234.52V233.728L468.881 232.984V241.156H468.029V234.016Z" fill="#181C32"/>
<path d="M497.04 234.016L495.276 234.52V233.728L497.892 232.984V241.156H497.04V234.016ZM502.854 233.656C502.422 233.656 502.062 233.716 501.762 233.836C501.45 233.956 501.114 234.172 500.742 234.472L500.25 233.74C500.682 233.416 501.102 233.176 501.51 233.032C501.918 232.888 502.362 232.816 502.866 232.816C503.226 232.816 503.562 232.864 503.874 232.96C504.186 233.056 504.474 233.2 504.714 233.38C504.954 233.572 505.146 233.8 505.29 234.088C505.434 234.376 505.506 234.688 505.506 235.048C505.506 235.504 505.398 235.948 505.194 236.38C504.99 236.812 504.69 237.256 504.306 237.712C503.922 238.168 503.442 238.624 502.89 239.104C502.326 239.584 501.81 239.992 501.354 240.328H505.734V241.156H499.95V240.388C500.73 239.812 501.414 239.284 501.99 238.804C502.566 238.324 503.046 237.88 503.43 237.448C503.814 237.016 504.114 236.608 504.306 236.224C504.498 235.84 504.606 235.468 504.606 235.108C504.606 234.856 504.558 234.64 504.462 234.46C504.366 234.292 504.246 234.136 504.09 234.016C503.922 233.896 503.742 233.812 503.526 233.752C503.31 233.692 503.082 233.656 502.854 233.656Z" fill="#181C32"/>
<path d="M252.313 24.188V25.182H248.785C248.169 25.182 247.581 25.112 247.021 24.972C246.447 24.832 245.943 24.594 245.509 24.272C245.061 23.964 244.711 23.558 244.445 23.054C244.179 22.564 244.053 21.976 244.053 21.29C244.053 20.744 244.151 20.226 244.375 19.75C244.599 19.274 244.921 18.868 245.341 18.518C245.761 18.168 246.251 17.888 246.839 17.692C247.413 17.496 248.057 17.398 248.785 17.398H249.443V16.698H250.437V24.188H252.313ZM249.443 24.188V18.392H248.393C247.973 18.392 247.553 18.476 247.147 18.616C246.741 18.756 246.377 18.952 246.069 19.204C245.761 19.456 245.509 19.75 245.327 20.114C245.131 20.478 245.047 20.87 245.047 21.29C245.047 21.752 245.131 22.158 245.299 22.522C245.467 22.886 245.705 23.18 246.013 23.418C246.307 23.67 246.657 23.852 247.077 23.992C247.483 24.132 247.917 24.188 248.393 24.188H249.443ZM251.394 24.188H254.558V17.398H255.552V24.188H258.548V25.182H251.394V24.188ZM256.182 28.08C255.972 28.08 255.79 28.01 255.65 27.856C255.496 27.716 255.426 27.534 255.426 27.324C255.426 27.128 255.496 26.946 255.65 26.792C255.79 26.652 255.972 26.568 256.182 26.568C256.378 26.568 256.56 26.652 256.714 26.792C256.854 26.946 256.938 27.128 256.938 27.324C256.938 27.534 256.854 27.716 256.714 27.856C256.56 28.01 256.378 28.08 256.182 28.08ZM253.676 28.08C253.466 28.08 253.284 28.01 253.144 27.856C252.99 27.716 252.92 27.534 252.92 27.324C252.92 27.128 252.99 26.946 253.144 26.792C253.284 26.652 253.466 26.568 253.676 26.568C253.872 26.568 254.054 26.652 254.208 26.792C254.348 26.946 254.432 27.128 254.432 27.324C254.432 27.534 254.348 27.716 254.208 27.856C254.054 28.01 253.872 28.08 253.676 28.08ZM257.622 24.188H259.806V13.464H262.186V14.458H260.8V25.182H257.622V24.188ZM263.715 13.464H264.709V24.188H266.893V25.182H263.715V13.464ZM265.962 24.188H272.402C272.486 23.908 272.556 23.516 272.612 23.012C272.668 22.522 272.696 21.864 272.696 21.038C272.696 20.646 272.626 20.268 272.514 19.932C272.388 19.596 272.164 19.288 271.828 18.994C271.604 18.826 271.324 18.672 271.016 18.56C270.694 18.448 270.316 18.392 269.896 18.392C269.532 18.392 269.154 18.462 268.762 18.588C268.37 18.714 267.95 18.938 267.53 19.26L267.152 18.308C267.46 18.112 267.726 17.972 267.936 17.86C268.146 17.762 268.37 17.678 268.594 17.608C268.818 17.538 269.042 17.482 269.294 17.454C269.546 17.426 269.826 17.398 270.134 17.398C270.554 17.398 270.974 17.482 271.38 17.622C271.786 17.776 272.136 17.972 272.444 18.224C272.85 18.56 273.158 18.98 273.382 19.484C273.592 19.988 273.704 20.576 273.704 21.248C273.704 21.836 273.662 22.41 273.606 22.956C273.536 23.516 273.466 23.922 273.41 24.188H275.244V25.182H265.962V24.188ZM274.323 24.188H276.507V13.464H278.887V14.458H277.501V25.182H274.323V24.188ZM280.416 13.464H281.41V25.182H280.416V13.464ZM295.6 24.188V25.182H292.072C291.456 25.182 290.868 25.112 290.308 24.972C289.734 24.832 289.23 24.594 288.796 24.272C288.348 23.964 287.998 23.558 287.732 23.054C287.466 22.564 287.34 21.976 287.34 21.29C287.34 20.744 287.438 20.226 287.662 19.75C287.886 19.274 288.208 18.868 288.628 18.518C289.048 18.168 289.538 17.888 290.126 17.692C290.7 17.496 291.344 17.398 292.072 17.398H292.73V16.698H293.724V24.188H295.6ZM292.73 24.188V18.392H291.68C291.26 18.392 290.84 18.476 290.434 18.616C290.028 18.756 289.664 18.952 289.356 19.204C289.048 19.456 288.796 19.75 288.614 20.114C288.418 20.478 288.334 20.87 288.334 21.29C288.334 21.752 288.418 22.158 288.586 22.522C288.754 22.886 288.992 23.18 289.3 23.418C289.594 23.67 289.944 23.852 290.364 23.992C290.77 24.132 291.204 24.188 291.68 24.188H292.73ZM294.681 24.188H296.445V17.398H297.439V24.188H299.315V25.182H294.681V24.188ZM296.893 15.956C296.683 15.956 296.501 15.886 296.361 15.732C296.207 15.592 296.137 15.41 296.137 15.2C296.137 15.004 296.207 14.822 296.361 14.668C296.501 14.528 296.683 14.444 296.893 14.444C297.089 14.444 297.271 14.528 297.425 14.668C297.565 14.822 297.649 15.004 297.649 15.2C297.649 15.41 297.565 15.592 297.425 15.732C297.271 15.886 297.089 15.956 296.893 15.956ZM298.394 24.188H301.558V18.098H302.552V24.188H305.016C305.52 24.188 305.926 24.048 306.248 23.74C306.556 23.432 306.724 22.984 306.724 22.396V18.098H307.718V22.186C307.718 22.466 307.76 22.746 307.872 23.012C307.984 23.292 308.138 23.516 308.334 23.712C308.53 23.908 308.782 24.076 309.076 24.188C309.356 24.314 309.692 24.37 310.056 24.37C310.784 24.37 311.316 24.174 311.666 23.768C312.002 23.376 312.184 22.844 312.184 22.186V16.418H313.178V22.046C313.178 22.214 313.164 22.368 313.15 22.508C313.136 22.648 313.122 22.76 313.108 22.844C313.192 23.04 313.304 23.236 313.444 23.404C313.584 23.572 313.738 23.726 313.934 23.838C314.13 23.95 314.354 24.048 314.634 24.104C314.9 24.16 315.292 24.188 315.796 24.188V25.182C315.208 25.182 314.76 25.154 314.424 25.07C314.088 24.986 313.808 24.888 313.57 24.748C313.318 24.608 313.122 24.454 312.954 24.286C312.786 24.118 312.716 24.034 312.73 24.048C312.59 24.384 312.268 24.678 311.792 24.93C311.302 25.196 310.728 25.322 310.056 25.322C309.398 25.322 308.81 25.182 308.292 24.902C307.76 24.622 307.438 24.342 307.298 24.034C307.186 24.258 306.92 24.51 306.5 24.776C306.08 25.056 305.576 25.182 305.016 25.182H298.394V24.188ZM314.875 24.188H316.779V13.464H317.773V24.188H319.957V25.182H314.875V24.188ZM319.039 24.188H321.223V13.464H323.603V14.458H322.217V25.182H319.039V24.188ZM336.823 24.188V25.182H333.295C332.679 25.182 332.091 25.112 331.531 24.972C330.957 24.832 330.453 24.594 330.019 24.272C329.571 23.964 329.221 23.558 328.955 23.054C328.689 22.564 328.563 21.976 328.563 21.29C328.563 20.744 328.661 20.226 328.885 19.75C329.109 19.274 329.431 18.868 329.851 18.518C330.271 18.168 330.761 17.888 331.349 17.692C331.923 17.496 332.567 17.398 333.295 17.398H333.953V16.698H334.947V24.188H336.823ZM333.953 24.188V18.392H332.903C332.483 18.392 332.063 18.476 331.657 18.616C331.251 18.756 330.887 18.952 330.579 19.204C330.271 19.456 330.019 19.75 329.837 20.114C329.641 20.478 329.557 20.87 329.557 21.29C329.557 21.752 329.641 22.158 329.809 22.522C329.977 22.886 330.215 23.18 330.523 23.418C330.817 23.67 331.167 23.852 331.587 23.992C331.993 24.132 332.427 24.188 332.903 24.188H333.953ZM335.904 24.188H339.068V17.398H340.062V24.188H343.058V25.182H335.904V24.188ZM340.692 28.08C340.482 28.08 340.3 28.01 340.16 27.856C340.006 27.716 339.936 27.534 339.936 27.324C339.936 27.128 340.006 26.946 340.16 26.792C340.3 26.652 340.482 26.568 340.692 26.568C340.888 26.568 341.07 26.652 341.224 26.792C341.364 26.946 341.448 27.128 341.448 27.324C341.448 27.534 341.364 27.716 341.224 27.856C341.07 28.01 340.888 28.08 340.692 28.08ZM338.186 28.08C337.976 28.08 337.794 28.01 337.654 27.856C337.5 27.716 337.43 27.534 337.43 27.324C337.43 27.128 337.5 26.946 337.654 26.792C337.794 26.652 337.976 26.568 338.186 26.568C338.382 26.568 338.564 26.652 338.718 26.792C338.858 26.946 338.942 27.128 338.942 27.324C338.942 27.534 338.858 27.716 338.718 27.856C338.564 28.01 338.382 28.08 338.186 28.08ZM342.132 24.188H348.572C348.656 23.908 348.726 23.516 348.782 23.012C348.838 22.522 348.866 21.864 348.866 21.038C348.866 20.646 348.796 20.268 348.684 19.932C348.558 19.596 348.334 19.288 347.998 18.994C347.774 18.826 347.494 18.672 347.186 18.56C346.864 18.448 346.486 18.392 346.066 18.392C345.702 18.392 345.324 18.462 344.932 18.588C344.54 18.714 344.12 18.938 343.7 19.26L343.322 18.308C343.63 18.112 343.896 17.972 344.106 17.86C344.316 17.762 344.54 17.678 344.764 17.608C344.988 17.538 345.212 17.482 345.464 17.454C345.716 17.426 345.996 17.398 346.304 17.398C346.724 17.398 347.144 17.482 347.55 17.622C347.956 17.776 348.306 17.972 348.614 18.224C349.02 18.56 349.328 18.98 349.552 19.484C349.762 19.988 349.874 20.576 349.874 21.248C349.874 21.626 349.86 22.004 349.832 22.368C349.804 22.732 349.762 23.082 349.72 23.418C349.664 23.754 349.608 24.048 349.552 24.328C349.496 24.608 349.412 24.902 349.314 25.182H342.132V24.188ZM346.15 28.08C345.94 28.08 345.758 28.01 345.618 27.856C345.464 27.716 345.394 27.534 345.394 27.324C345.394 27.128 345.464 26.946 345.618 26.792C345.758 26.652 345.94 26.568 346.15 26.568C346.346 26.568 346.528 26.652 346.682 26.792C346.822 26.946 346.906 27.128 346.906 27.324C346.906 27.534 346.822 27.716 346.682 27.856C346.528 28.01 346.346 28.08 346.15 28.08ZM351.372 28.276C351.106 28.276 350.798 28.206 350.434 28.038L350.798 27.114C351.064 27.226 351.274 27.282 351.428 27.282C351.652 27.282 351.82 27.24 351.946 27.156C352.058 27.072 352.156 26.946 352.226 26.792C352.282 26.652 352.324 26.47 352.352 26.274C352.366 26.078 352.38 25.882 352.38 25.686V17.398H353.374V25.686C353.374 26.022 353.346 26.358 353.29 26.666C353.234 26.974 353.136 27.254 352.996 27.492C352.856 27.744 352.646 27.926 352.38 28.066C352.114 28.206 351.778 28.276 351.372 28.276ZM355.601 13.464H356.595V24.188H358.779V25.182H355.601V13.464ZM357.848 24.188H364.288C364.372 23.908 364.442 23.516 364.498 23.012C364.554 22.522 364.582 21.864 364.582 21.038C364.582 20.646 364.512 20.268 364.4 19.932C364.274 19.596 364.05 19.288 363.714 18.994C363.49 18.826 363.21 18.672 362.902 18.56C362.58 18.448 362.202 18.392 361.782 18.392C361.418 18.392 361.04 18.462 360.648 18.588C360.256 18.714 359.836 18.938 359.416 19.26L359.038 18.308C359.346 18.112 359.612 17.972 359.822 17.86C360.032 17.762 360.256 17.678 360.48 17.608C360.704 17.538 360.928 17.482 361.18 17.454C361.432 17.426 361.712 17.398 362.02 17.398C362.44 17.398 362.86 17.482 363.266 17.622C363.672 17.776 364.022 17.972 364.33 18.224C364.736 18.56 365.044 18.98 365.268 19.484C365.478 19.988 365.59 20.576 365.59 21.248C365.59 21.836 365.548 22.41 365.492 22.956C365.422 23.516 365.352 23.922 365.296 24.188H367.13V25.182H357.848V24.188ZM361.838 15.956C361.628 15.956 361.446 15.886 361.306 15.732C361.152 15.592 361.082 15.41 361.082 15.2C361.082 15.004 361.152 14.822 361.306 14.668C361.446 14.528 361.628 14.444 361.838 14.444C362.034 14.444 362.216 14.528 362.37 14.668C362.51 14.822 362.594 15.004 362.594 15.2C362.594 15.41 362.51 15.592 362.37 15.732C362.216 15.886 362.034 15.956 361.838 15.956ZM366.209 24.188H368.393V13.464H370.773V14.458H369.387V25.182H366.209V24.188ZM372.302 13.464H373.296V25.182H372.302V13.464ZM383.44 26.932C383.048 26.932 382.698 26.918 382.404 26.89C382.096 26.862 381.83 26.806 381.578 26.722C381.326 26.652 381.102 26.554 380.906 26.442C380.696 26.33 380.486 26.204 380.29 26.036C379.926 25.77 379.646 25.406 379.478 24.958C379.31 24.51 379.226 24.076 379.226 23.656V18.35H380.22V23.516C380.22 23.992 380.276 24.37 380.416 24.65C380.542 24.93 380.738 25.168 380.99 25.35C381.242 25.546 381.55 25.7 381.914 25.798C382.264 25.896 382.642 25.938 383.048 25.938H384.994V18.35H385.988V26.932H383.44ZM382.698 16.782C382.488 16.782 382.306 16.712 382.166 16.558C382.012 16.418 381.942 16.236 381.942 16.026C381.942 15.83 382.012 15.648 382.166 15.494C382.306 15.354 382.488 15.27 382.698 15.27C382.894 15.27 383.076 15.354 383.23 15.494C383.37 15.648 383.454 15.83 383.454 16.026C383.454 16.236 383.37 16.418 383.23 16.558C383.076 16.712 382.894 16.782 382.698 16.782ZM388.21 13.464H389.204V24.188H391.388V25.182H388.21V13.464ZM390.457 24.188H396.897C396.981 23.908 397.051 23.516 397.107 23.012C397.163 22.522 397.191 21.864 397.191 21.038C397.191 20.646 397.121 20.268 397.009 19.932C396.883 19.596 396.659 19.288 396.323 18.994C396.099 18.826 395.819 18.672 395.511 18.56C395.189 18.448 394.811 18.392 394.391 18.392C394.027 18.392 393.649 18.462 393.257 18.588C392.865 18.714 392.445 18.938 392.025 19.26L391.647 18.308C391.955 18.112 392.221 17.972 392.431 17.86C392.641 17.762 392.865 17.678 393.089 17.608C393.313 17.538 393.537 17.482 393.789 17.454C394.041 17.426 394.321 17.398 394.629 17.398C395.049 17.398 395.469 17.482 395.875 17.622C396.281 17.776 396.631 17.972 396.939 18.224C397.345 18.56 397.653 18.98 397.877 19.484C398.087 19.988 398.199 20.576 398.199 21.248C398.199 21.836 398.157 22.41 398.101 22.956C398.031 23.516 397.961 23.922 397.905 24.188H399.739V25.182H390.457V24.188ZM394.475 28.08C394.265 28.08 394.083 28.01 393.943 27.856C393.789 27.716 393.719 27.534 393.719 27.324C393.719 27.128 393.789 26.946 393.943 26.792C394.083 26.652 394.265 26.568 394.475 26.568C394.671 26.568 394.853 26.652 395.007 26.792C395.147 26.946 395.231 27.128 395.231 27.324C395.231 27.534 395.147 27.716 395.007 27.856C394.853 28.01 394.671 28.08 394.475 28.08ZM398.818 24.188H400.722V13.464H401.716V24.188H403.9V25.182H398.818V24.188ZM402.981 24.188H405.165V13.464H407.545V14.458H406.159V25.182H402.981V24.188ZM413.415 21.948C413.415 20.8 413.667 19.918 414.185 19.288C414.703 18.672 415.445 18.35 416.411 18.35H417.895V19.344H416.215C415.683 19.344 415.249 19.568 414.913 19.988C414.577 20.408 414.409 20.996 414.409 21.724V24.188H418.511V25.182H413.415V21.948ZM420.737 13.464H421.731V24.188H423.915V25.182H420.737V13.464ZM422.984 24.188H425.168V17.398H426.162V18.35H431.328C431.804 18.35 432.21 18.434 432.546 18.588C432.882 18.756 433.204 18.994 433.498 19.302C433.722 19.582 433.89 19.89 434.002 20.24C434.1 20.59 434.156 20.94 434.156 21.29V24.188H436.032V25.182H422.984V24.188ZM426.162 19.344V24.188H433.162V21.458C433.162 21.122 433.12 20.842 433.064 20.604C432.994 20.38 432.882 20.17 432.742 19.974C432.588 19.778 432.392 19.624 432.14 19.512C431.888 19.4 431.65 19.344 431.412 19.344H426.162ZM429.466 16.782C429.256 16.782 429.074 16.712 428.934 16.558C428.78 16.418 428.71 16.236 428.71 16.026C428.71 15.83 428.78 15.648 428.934 15.494C429.074 15.354 429.256 15.27 429.466 15.27C429.662 15.27 429.844 15.354 429.998 15.494C430.138 15.648 430.222 15.83 430.222 16.026C430.222 16.236 430.138 16.418 429.998 16.558C429.844 16.712 429.662 16.782 429.466 16.782ZM435.105 24.188H437.065L436.841 23.782C436.715 23.544 436.603 23.292 436.505 23.012C436.407 22.746 436.323 22.466 436.267 22.158C436.211 21.864 436.183 21.556 436.183 21.248C436.183 20.576 436.309 19.988 436.575 19.484C436.841 18.98 437.177 18.56 437.583 18.224C437.877 17.972 438.227 17.776 438.633 17.622C439.039 17.482 439.459 17.398 439.893 17.398C440.187 17.398 440.453 17.426 440.705 17.454C440.957 17.482 441.181 17.538 441.405 17.608C441.629 17.678 441.839 17.762 442.049 17.86C442.259 17.972 442.525 18.112 442.847 18.308L442.497 19.26C442.063 18.938 441.643 18.714 441.251 18.588C440.859 18.462 440.481 18.392 440.131 18.392C439.697 18.392 439.319 18.448 439.011 18.56C438.689 18.672 438.423 18.826 438.199 18.994C437.527 19.568 437.191 20.254 437.191 21.038C437.191 21.444 437.219 21.808 437.275 22.116C437.331 22.424 437.415 22.718 437.513 22.97C437.597 23.222 437.709 23.446 437.821 23.642L438.143 24.188H443.225V25.182H435.105V24.188ZM444.095 24.188H448.085C448.477 24.188 448.855 24.146 449.219 24.048C449.569 23.95 449.877 23.796 450.143 23.6C450.395 23.418 450.577 23.18 450.717 22.9C450.843 22.62 450.913 22.242 450.913 21.766V12.428H453.013V13.422H451.907V21.906C451.907 22.326 451.809 22.76 451.641 23.208C451.473 23.656 451.207 24.02 450.843 24.286C450.423 24.608 449.947 24.832 449.415 24.972C448.869 25.112 448.295 25.182 447.693 25.182H444.207L444.095 24.188ZM446.713 15.242H447.707V23.782H446.713V15.242ZM454.822 13.464H455.816V25.182H454.822V13.464ZM462.208 28.276C461.942 28.276 461.634 28.206 461.27 28.038L461.634 27.114C461.9 27.226 462.11 27.282 462.264 27.282C462.488 27.282 462.656 27.24 462.782 27.156C462.894 27.072 462.992 26.946 463.062 26.792C463.118 26.652 463.16 26.47 463.188 26.274C463.202 26.078 463.216 25.882 463.216 25.686V17.398H464.21V25.686C464.21 26.022 464.182 26.358 464.126 26.666C464.07 26.974 463.972 27.254 463.832 27.492C463.692 27.744 463.482 27.926 463.216 28.066C462.95 28.206 462.614 28.276 462.208 28.276ZM468.999 28.262C468.537 28.262 468.131 28.206 467.767 28.066C467.403 27.94 466.997 27.73 466.521 27.45L466.983 26.568C467.417 26.82 467.781 26.988 468.089 27.1C468.383 27.212 468.705 27.268 469.055 27.268C469.657 27.268 470.133 27.128 470.469 26.848C470.805 26.568 470.987 26.176 470.987 25.672V25.182H470.329C469.713 25.182 469.125 25.126 468.565 24.986C467.991 24.846 467.473 24.622 467.025 24.314C466.577 24.006 466.213 23.614 465.933 23.11C465.653 22.606 465.527 22.004 465.527 21.29C465.527 20.73 465.639 20.198 465.863 19.722C466.087 19.246 466.409 18.826 466.829 18.476C467.249 18.14 467.753 17.874 468.341 17.678C468.929 17.496 469.587 17.398 470.329 17.398H471.981V24.188H474.151V25.182H471.981V25.672C471.981 26.484 471.701 27.114 471.155 27.576C470.609 28.038 469.895 28.262 468.999 28.262ZM466.521 21.29C466.521 21.78 466.605 22.2 466.787 22.564C466.955 22.928 467.207 23.222 467.515 23.46C467.823 23.698 468.187 23.88 468.607 24.006C469.027 24.132 469.461 24.188 469.937 24.188H470.987V18.392H469.937C469.517 18.392 469.097 18.462 468.691 18.602C468.271 18.742 467.907 18.938 467.585 19.19C467.263 19.442 467.011 19.75 466.815 20.1C466.619 20.45 466.521 20.842 466.521 21.29ZM473.224 24.188H475.408V17.398H476.402V18.35H481.568C482.044 18.35 482.45 18.434 482.786 18.588C483.122 18.756 483.444 18.994 483.738 19.302C483.962 19.582 484.13 19.89 484.242 20.24C484.34 20.59 484.396 20.94 484.396 21.29V24.188H486.272V25.182H473.224V24.188ZM476.402 19.344V24.188H483.402V21.458C483.402 21.122 483.36 20.842 483.304 20.604C483.234 20.38 483.122 20.17 482.982 19.974C482.828 19.778 482.632 19.624 482.38 19.512C482.128 19.4 481.89 19.344 481.652 19.344H476.402ZM479.706 16.782C479.496 16.782 479.314 16.712 479.174 16.558C479.02 16.418 478.95 16.236 478.95 16.026C478.95 15.83 479.02 15.648 479.174 15.494C479.314 15.354 479.496 15.27 479.706 15.27C479.902 15.27 480.084 15.354 480.238 15.494C480.378 15.648 480.462 15.83 480.462 16.026C480.462 16.236 480.378 16.418 480.238 16.558C480.084 16.712 479.902 16.782 479.706 16.782ZM485.344 24.188H491.784C491.868 23.908 491.938 23.516 491.994 23.012C492.05 22.522 492.078 21.864 492.078 21.038C492.078 20.646 492.008 20.268 491.896 19.932C491.77 19.596 491.546 19.288 491.21 18.994C490.986 18.826 490.706 18.672 490.398 18.56C490.076 18.448 489.698 18.392 489.278 18.392C488.914 18.392 488.536 18.462 488.144 18.588C487.752 18.714 487.332 18.938 486.912 19.26L486.534 18.308C486.842 18.112 487.108 17.972 487.318 17.86C487.528 17.762 487.752 17.678 487.976 17.608C488.2 17.538 488.424 17.482 488.676 17.454C488.928 17.426 489.208 17.398 489.516 17.398C489.936 17.398 490.356 17.482 490.762 17.622C491.168 17.776 491.518 17.972 491.826 18.224C492.232 18.56 492.54 18.98 492.764 19.484C492.974 19.988 493.086 20.576 493.086 21.248C493.086 21.626 493.072 22.004 493.044 22.368C493.016 22.732 492.974 23.082 492.932 23.418C492.876 23.754 492.82 24.048 492.764 24.328C492.708 24.608 492.624 24.902 492.526 25.182H485.344V24.188ZM506.723 24.188V25.182H503.195C502.579 25.182 501.991 25.112 501.431 24.972C500.857 24.832 500.353 24.594 499.919 24.272C499.471 23.964 499.121 23.558 498.855 23.054C498.589 22.564 498.463 21.976 498.463 21.29C498.463 20.744 498.561 20.226 498.785 19.75C499.009 19.274 499.331 18.868 499.751 18.518C500.171 18.168 500.661 17.888 501.249 17.692C501.823 17.496 502.467 17.398 503.195 17.398H503.853V16.698H504.847V24.188H506.723ZM503.853 24.188V18.392H502.803C502.383 18.392 501.963 18.476 501.557 18.616C501.151 18.756 500.787 18.952 500.479 19.204C500.171 19.456 499.919 19.75 499.737 20.114C499.541 20.478 499.457 20.87 499.457 21.29C499.457 21.752 499.541 22.158 499.709 22.522C499.877 22.886 500.115 23.18 500.423 23.418C500.717 23.67 501.067 23.852 501.487 23.992C501.893 24.132 502.327 24.188 502.803 24.188H503.853ZM505.805 24.188H507.569V17.398H508.563V24.188H510.439V25.182H505.805V24.188ZM508.073 28.08C507.863 28.08 507.681 28.01 507.541 27.856C507.387 27.716 507.317 27.534 507.317 27.324C507.317 27.128 507.387 26.946 507.541 26.792C507.681 26.652 507.863 26.568 508.073 26.568C508.269 26.568 508.451 26.652 508.605 26.792C508.745 26.946 508.829 27.128 508.829 27.324C508.829 27.534 508.745 27.716 508.605 27.856C508.451 28.01 508.269 28.08 508.073 28.08ZM509.517 24.188H512.681V18.098H513.675V24.188H516.139C516.643 24.188 517.049 24.048 517.371 23.74C517.679 23.432 517.847 22.984 517.847 22.396V18.098H518.841V22.186C518.841 22.466 518.883 22.746 518.995 23.012C519.107 23.292 519.261 23.516 519.457 23.712C519.653 23.908 519.905 24.076 520.199 24.188C520.479 24.314 520.815 24.37 521.179 24.37C521.907 24.37 522.439 24.174 522.789 23.768C523.125 23.376 523.307 22.844 523.307 22.186V16.418H524.301V22.046C524.301 22.214 524.287 22.368 524.273 22.508C524.259 22.648 524.245 22.76 524.231 22.844C524.315 23.04 524.427 23.236 524.567 23.404C524.707 23.572 524.861 23.726 525.057 23.838C525.253 23.95 525.477 24.048 525.757 24.104C526.023 24.16 526.415 24.188 526.919 24.188V25.182C526.331 25.182 525.883 25.154 525.547 25.07C525.211 24.986 524.931 24.888 524.693 24.748C524.441 24.608 524.245 24.454 524.077 24.286C523.909 24.118 523.839 24.034 523.853 24.048C523.713 24.384 523.391 24.678 522.915 24.93C522.425 25.196 521.851 25.322 521.179 25.322C520.521 25.322 519.933 25.182 519.415 24.902C518.883 24.622 518.561 24.342 518.421 24.034C518.309 24.258 518.043 24.51 517.623 24.776C517.203 25.056 516.699 25.182 516.139 25.182H509.517V24.188ZM525.999 24.188H527.763V17.398H528.757V25.182H525.999V24.188ZM528.225 15.956C528.015 15.956 527.833 15.886 527.693 15.732C527.539 15.592 527.469 15.41 527.469 15.2C527.469 15.004 527.539 14.822 527.693 14.668C527.833 14.528 528.015 14.444 528.225 14.444C528.421 14.444 528.603 14.528 528.757 14.668C528.897 14.822 528.981 15.004 528.981 15.2C528.981 15.41 528.897 15.592 528.757 15.732C528.603 15.886 528.421 15.956 528.225 15.956ZM535.096 28.276C534.83 28.276 534.522 28.206 534.158 28.038L534.522 27.114C534.788 27.226 534.998 27.282 535.152 27.282C535.376 27.282 535.544 27.24 535.67 27.156C535.782 27.072 535.88 26.946 535.95 26.792C536.006 26.652 536.048 26.47 536.076 26.274C536.09 26.078 536.104 25.882 536.104 25.686V17.398H537.098V24.188H539.268V25.182H537.098V25.686C537.098 26.022 537.07 26.358 537.014 26.666C536.958 26.974 536.86 27.254 536.72 27.492C536.58 27.744 536.37 27.926 536.104 28.066C535.838 28.206 535.502 28.276 535.096 28.276ZM538.338 24.188H541.502V18.098H542.496V24.188H544.96C545.464 24.188 545.87 24.048 546.192 23.74C546.5 23.432 546.668 22.984 546.668 22.396V18.098H547.662V22.186C547.662 22.466 547.704 22.746 547.816 23.012C547.928 23.292 548.082 23.516 548.278 23.712C548.474 23.908 548.726 24.076 549.02 24.188C549.3 24.314 549.636 24.37 550 24.37C550.728 24.37 551.26 24.174 551.61 23.768C551.946 23.376 552.128 22.844 552.128 22.186V16.418H553.122V22.046C553.122 23.18 552.828 24.006 552.268 24.538C551.708 25.07 550.952 25.322 550 25.322C549.342 25.322 548.754 25.182 548.236 24.902C547.704 24.622 547.382 24.342 547.242 24.034C547.13 24.258 546.864 24.51 546.444 24.776C546.024 25.056 545.52 25.182 544.96 25.182H538.338V24.188ZM545.884 15.956C545.674 15.956 545.492 15.886 545.352 15.732C545.198 15.592 545.128 15.41 545.128 15.2C545.128 15.004 545.198 14.822 545.352 14.668C545.492 14.528 545.674 14.444 545.884 14.444C546.08 14.444 546.262 14.528 546.416 14.668C546.556 14.822 546.64 15.004 546.64 15.2C546.64 15.41 546.556 15.592 546.416 15.732C546.262 15.886 546.08 15.956 545.884 15.956ZM547.13 14.08C546.92 14.08 546.738 14.01 546.598 13.856C546.444 13.716 546.374 13.534 546.374 13.324C546.374 13.128 546.444 12.946 546.598 12.792C546.738 12.652 546.92 12.568 547.13 12.568C547.326 12.568 547.508 12.652 547.662 12.792C547.802 12.946 547.886 13.128 547.886 13.324C547.886 13.534 547.802 13.716 547.662 13.856C547.508 14.01 547.326 14.08 547.13 14.08ZM548.39 15.956C548.18 15.956 547.998 15.886 547.858 15.732C547.704 15.592 547.634 15.41 547.634 15.2C547.634 15.004 547.704 14.822 547.858 14.668C547.998 14.528 548.18 14.444 548.39 14.444C548.586 14.444 548.768 14.528 548.922 14.668C549.062 14.822 549.146 15.004 549.146 15.2C549.146 15.41 549.062 15.592 548.922 15.732C548.768 15.886 548.586 15.956 548.39 15.956ZM557.766 28.262C557.304 28.262 556.898 28.206 556.534 28.066C556.17 27.94 555.764 27.73 555.288 27.45L555.75 26.568C556.184 26.82 556.548 26.988 556.856 27.1C557.15 27.212 557.472 27.268 557.822 27.268C558.424 27.268 558.9 27.128 559.236 26.848C559.572 26.568 559.754 26.176 559.754 25.672V25.182H559.096C558.48 25.182 557.892 25.126 557.332 24.986C556.758 24.846 556.24 24.622 555.792 24.314C555.344 24.006 554.98 23.614 554.7 23.11C554.42 22.606 554.294 22.004 554.294 21.29C554.294 20.73 554.406 20.198 554.63 19.722C554.854 19.246 555.176 18.826 555.596 18.476C556.016 18.14 556.52 17.874 557.108 17.678C557.696 17.496 558.354 17.398 559.096 17.398H560.748V24.188H562.918V25.182H560.748V25.672C560.748 26.484 560.468 27.114 559.922 27.576C559.376 28.038 558.662 28.262 557.766 28.262ZM555.288 21.29C555.288 21.78 555.372 22.2 555.554 22.564C555.722 22.928 555.974 23.222 556.282 23.46C556.59 23.698 556.954 23.88 557.374 24.006C557.794 24.132 558.228 24.188 558.704 24.188H559.754V18.392H558.704C558.284 18.392 557.864 18.462 557.458 18.602C557.038 18.742 556.674 18.938 556.352 19.19C556.03 19.442 555.778 19.75 555.582 20.1C555.386 20.45 555.288 20.842 555.288 21.29ZM557.822 14.85C557.822 14.262 557.948 13.814 558.228 13.478C558.508 13.156 558.928 12.988 559.488 12.988H560.454V13.982H559.586C559.278 13.982 559.082 14.038 558.984 14.15C558.872 14.262 558.83 14.416 558.83 14.64V15.018H560.902V16.012H557.822V14.85ZM561.991 24.188H563.433C563.125 23.712 562.985 23.068 562.985 22.228C562.985 21.668 563.083 21.122 563.293 20.618C563.503 20.114 563.783 19.68 564.147 19.288C564.511 18.91 564.931 18.616 565.435 18.392C565.925 18.168 566.457 18.056 567.045 18.056C567.647 18.056 568.207 18.168 568.711 18.378C569.215 18.602 569.663 18.896 570.041 19.26C570.405 19.638 570.699 20.072 570.909 20.576C571.119 21.08 571.231 21.64 571.231 22.228C571.231 22.844 571.119 23.39 570.909 23.894C570.685 24.398 570.391 24.832 570.013 25.196C569.635 25.574 569.201 25.868 568.697 26.064C568.193 26.274 567.633 26.372 567.045 26.372C566.443 26.372 565.897 26.26 565.393 26.036C564.889 25.812 564.483 25.532 564.161 25.182H561.991V24.188ZM567.045 25.378C567.493 25.378 567.927 25.308 568.319 25.14C568.711 24.986 569.047 24.776 569.327 24.496C569.607 24.216 569.817 23.894 569.985 23.502C570.153 23.11 570.237 22.69 570.237 22.228C570.237 21.78 570.153 21.346 569.999 20.954C569.831 20.562 569.607 20.226 569.327 19.946C569.047 19.666 568.711 19.456 568.319 19.288C567.927 19.134 567.493 19.05 567.045 19.05C566.597 19.05 566.177 19.134 565.813 19.302C565.435 19.47 565.113 19.708 564.847 19.988C564.567 20.282 564.357 20.618 564.203 21.01C564.049 21.402 563.979 21.808 563.979 22.228C563.979 22.648 564.049 23.054 564.203 23.446C564.357 23.838 564.567 24.174 564.847 24.454C565.127 24.734 565.449 24.958 565.827 25.126C566.191 25.294 566.597 25.378 567.045 25.378Z" fill="#181C32"/>
<path d="M122.621 251.813H117.929V250.985H123.641V251.693L119.501 259.097H118.493L122.621 251.813ZM127.94 258.353C128.648 258.353 129.212 258.089 129.632 257.537C130.052 256.997 130.268 256.145 130.268 254.993C130.268 253.841 130.052 252.989 129.632 252.425C129.2 251.861 128.636 251.573 127.94 251.573C127.22 251.573 126.644 251.861 126.236 252.413C125.828 252.977 125.624 253.841 125.624 254.993C125.624 256.145 125.828 256.997 126.236 257.537C126.644 258.089 127.22 258.353 127.94 258.353ZM127.94 259.193C127.388 259.193 126.908 259.097 126.5 258.881C126.092 258.677 125.756 258.389 125.492 258.017C125.228 257.657 125.024 257.213 124.904 256.697C124.772 256.181 124.712 255.617 124.712 254.993C124.712 254.381 124.772 253.817 124.904 253.301C125.024 252.797 125.228 252.353 125.492 251.969C125.756 251.585 126.092 251.297 126.5 251.081C126.908 250.865 127.388 250.757 127.94 250.757C128.48 250.757 128.948 250.865 129.356 251.081C129.764 251.297 130.1 251.585 130.364 251.969C130.628 252.353 130.82 252.797 130.952 253.301C131.072 253.817 131.144 254.381 131.144 254.993C131.144 255.617 131.072 256.181 130.952 256.697C130.82 257.213 130.628 257.657 130.364 258.017C130.1 258.389 129.764 258.677 129.356 258.881C128.948 259.097 128.48 259.193 127.94 259.193ZM133.775 259.097L140.795 249.053H141.791L134.771 259.097H133.775ZM140.723 259.217C140.315 259.217 139.967 259.145 139.679 258.989C139.379 258.845 139.139 258.629 138.947 258.353C138.755 258.089 138.623 257.765 138.527 257.393C138.431 257.033 138.395 256.625 138.395 256.169C138.395 255.725 138.431 255.317 138.527 254.957C138.623 254.597 138.755 254.273 138.947 253.997C139.139 253.733 139.379 253.517 139.679 253.373C139.967 253.229 140.315 253.145 140.723 253.145C141.107 253.145 141.455 253.229 141.755 253.373C142.043 253.517 142.295 253.733 142.487 253.997C142.679 254.261 142.811 254.585 142.907 254.945C143.003 255.317 143.051 255.725 143.051 256.169C143.051 256.625 143.003 257.033 142.907 257.405C142.811 257.777 142.679 258.101 142.487 258.365C142.295 258.629 142.043 258.845 141.755 258.989C141.455 259.145 141.107 259.217 140.723 259.217ZM140.723 258.401C141.167 258.401 141.527 258.233 141.791 257.873C142.055 257.513 142.187 256.949 142.187 256.169C142.187 255.401 142.055 254.837 141.791 254.477C141.527 254.129 141.167 253.949 140.723 253.949C140.267 253.949 139.919 254.129 139.655 254.477C139.391 254.837 139.259 255.401 139.259 256.169C139.259 256.949 139.391 257.513 139.655 257.873C139.919 258.233 140.279 258.401 140.723 258.401ZM134.843 254.993C134.435 254.993 134.087 254.921 133.799 254.765C133.499 254.621 133.259 254.405 133.067 254.129C132.875 253.865 132.743 253.541 132.647 253.169C132.551 252.809 132.515 252.401 132.515 251.945C132.515 251.501 132.551 251.093 132.647 250.733C132.743 250.373 132.875 250.049 133.067 249.773C133.259 249.509 133.499 249.293 133.799 249.149C134.087 249.005 134.435 248.921 134.843 248.921C135.227 248.921 135.575 249.005 135.875 249.149C136.163 249.293 136.415 249.509 136.607 249.773C136.799 250.037 136.931 250.361 137.027 250.721C137.123 251.093 137.171 251.501 137.171 251.945C137.171 252.401 137.123 252.809 137.027 253.181C136.931 253.553 136.799 253.877 136.607 254.141C136.415 254.405 136.163 254.621 135.875 254.765C135.575 254.921 135.227 254.993 134.843 254.993ZM134.843 254.177C135.287 254.177 135.647 254.009 135.911 253.649C136.175 253.289 136.307 252.725 136.307 251.945C136.307 251.177 136.175 250.613 135.911 250.253C135.647 249.905 135.287 249.725 134.843 249.725C134.387 249.725 134.039 249.905 133.775 250.253C133.511 250.613 133.379 251.177 133.379 251.945C133.379 252.725 133.511 253.289 133.775 253.649C134.039 254.009 134.399 254.177 134.843 254.177Z" fill="white"/>
<path d="M166.631 128.715L119 110.148V208H525V75.5235L519.33 74.0181L488.71 104.628L476.235 101.617L437.676 130.22L433.14 132.729L394.014 99.1083L382.106 104.628L360.559 74.0181H356.589L331.64 99.1083H328.804L311.793 118.177L291.947 140.758L286.844 143.769L275.503 132.227L251.687 73.0144L246.017 69L236.944 73.0144L220.5 105.632L214.263 110.148L201.788 103.123L190.447 105.632L166.631 128.715Z" fill="url(#paint0_linear_714_2439)"/>
<path d="M119 110.222L163.916 127.783C166.599 128.832 169.652 127.84 171.351 125.513C177.977 116.439 195.063 96.1811 208.969 106.745C226.621 120.154 227.65 65.5037 248.259 69.4973C258.509 71.4835 260.669 96.9335 269.898 118.168C276.516 133.395 279.54 141.372 287.614 142.775C289.359 143.078 291.055 142.217 292.195 140.861L326.709 99.8132C327.443 98.9399 328.699 98.7211 329.685 99.2946V99.2946C330.673 99.8691 331.932 99.6485 332.665 98.7721L352.295 75.3238C354.91 72.2007 359.81 72.5346 361.976 75.9835L377.582 100.824C379.177 103.363 382.402 104.334 385.135 103.099L392.059 99.9672C394.285 98.9608 396.898 99.4038 398.668 101.087L429.574 130.494C431.728 132.543 435.058 132.706 437.401 130.877L473.839 102.443C475.544 101.112 477.834 100.802 479.832 101.632L484.582 103.604C486.958 104.591 489.698 103.953 491.395 102.019L514.557 75.601C516.602 73.2688 520.087 72.8795 522.596 74.7031L525 76.4503" stroke="#09CBB5" stroke-width="4"/>
<defs>
<linearGradient id="paint0_linear_714_2439" x1="322" y1="69" x2="322" y2="208" gradientUnits="userSpaceOnUse">
<stop stop-color="#00FAFF" stop-opacity="0.12"/>
<stop offset="1" stop-color="#0A9396" stop-opacity="0"/>
</linearGradient>
</defs>
</svg>
