<svg width="208" height="208" viewBox="0 0 208 208" fill="none" xmlns="http://www.w3.org/2000/svg">
<path d="M170.391 139.732C162.244 154.598 148.756 165.918 132.403 171.614L124.403 151.524C135.85 147.537 145.292 139.613 150.995 129.207L170.391 139.732Z" fill="#DC4DA3"/>
<path d="M146.384 146.656C145.952 146.656 145.592 146.716 145.292 146.836C144.98 146.956 144.644 147.172 144.272 147.472L143.78 146.74C144.212 146.416 144.632 146.176 145.04 146.032C145.448 145.888 145.892 145.816 146.396 145.816C146.756 145.816 147.092 145.864 147.404 145.96C147.716 146.056 148.004 146.2 148.244 146.38C148.484 146.572 148.676 146.8 148.82 147.088C148.964 147.376 149.036 147.688 149.036 148.048C149.036 148.504 148.928 148.948 148.724 149.38C148.52 149.812 148.22 150.256 147.836 150.712C147.452 151.168 146.972 151.624 146.42 152.104C145.856 152.584 145.34 152.992 144.884 153.328H149.264V154.156H143.48V153.388C144.26 152.812 144.944 152.284 145.52 151.804C146.096 151.324 146.576 150.88 146.96 150.448C147.344 150.016 147.644 149.608 147.836 149.224C148.028 148.84 148.136 148.468 148.136 148.108C148.136 147.856 148.088 147.64 147.992 147.46C147.896 147.292 147.776 147.136 147.62 147.016C147.452 146.896 147.272 146.812 147.056 146.752C146.84 146.692 146.612 146.656 146.384 146.656Z" fill="white"/>
<path d="M130.794 172.503C120.333 176.596 109.074 178.238 97.8794 177.304C86.6854 176.371 75.8538 172.886 66.2151 167.117C56.5765 161.349 48.3869 153.45 42.2743 144.026C36.1616 134.601 32.2883 123.903 30.9513 112.75C29.6142 101.597 30.849 90.2854 34.561 79.6835C38.2729 69.0816 44.3634 59.4705 52.3655 51.5872C60.3675 43.7039 70.0686 37.7578 80.7248 34.2048C91.381 30.6518 102.709 29.5863 113.841 31.09L110.887 52.961C103.095 51.9084 95.1648 52.6543 87.7055 55.1414C80.2461 57.6285 73.4554 61.7908 67.854 67.309C62.2525 72.8273 57.9892 79.5551 55.3908 86.9764C52.7924 94.3977 51.9281 102.316 52.864 110.123C53.7999 117.93 56.5112 125.419 60.7901 132.016C65.0689 138.613 70.8017 144.142 77.5487 148.18C84.2957 152.218 91.8779 154.657 99.7137 155.311C107.55 155.964 115.431 154.815 122.754 151.95L130.794 172.503Z" fill="#79B7FF"/>
<path d="M36.5531 91.432C36.0491 91.432 35.6291 91.502 35.2791 91.642C34.9151 91.782 34.5231 92.034 34.0891 92.384L33.5151 91.53C34.0191 91.152 34.5091 90.872 34.9851 90.704C35.4611 90.536 35.9791 90.452 36.5671 90.452C36.9871 90.452 37.3791 90.508 37.7431 90.62C38.1071 90.732 38.4431 90.9 38.7231 91.11C39.0031 91.334 39.2271 91.6 39.3951 91.936C39.5631 92.272 39.6471 92.636 39.6471 93.056C39.6471 93.588 39.5211 94.106 39.2831 94.61C39.0451 95.114 38.6951 95.632 38.2471 96.164C37.7991 96.696 37.2391 97.228 36.5951 97.788C35.9371 98.348 35.3351 98.824 34.8031 99.216H39.9131V100.182H33.1651V99.286C34.0751 98.614 34.8731 97.998 35.5451 97.438C36.2171 96.878 36.7771 96.36 37.2251 95.856C37.6731 95.352 38.0231 94.876 38.2471 94.428C38.4711 93.98 38.5971 93.546 38.5971 93.126C38.5971 92.832 38.5411 92.58 38.4291 92.37C38.3171 92.174 38.1771 91.992 37.9951 91.852C37.7991 91.712 37.5891 91.614 37.3371 91.544C37.0851 91.474 36.8191 91.432 36.5531 91.432ZM45.3915 99.314C46.2175 99.314 46.8755 99.006 47.3655 98.362C47.8555 97.732 48.1075 96.738 48.1075 95.394C48.1075 94.05 47.8555 93.056 47.3655 92.398C46.8615 91.74 46.2035 91.404 45.3915 91.404C44.5515 91.404 43.8795 91.74 43.4035 92.384C42.9275 93.042 42.6895 94.05 42.6895 95.394C42.6895 96.738 42.9275 97.732 43.4035 98.362C43.8795 99.006 44.5515 99.314 45.3915 99.314ZM45.3915 100.294C44.7475 100.294 44.1875 100.182 43.7115 99.93C43.2355 99.692 42.8435 99.356 42.5355 98.922C42.2275 98.502 41.9895 97.984 41.8495 97.382C41.6955 96.78 41.6255 96.122 41.6255 95.394C41.6255 94.68 41.6955 94.022 41.8495 93.42C41.9895 92.832 42.2275 92.314 42.5355 91.866C42.8435 91.418 43.2355 91.082 43.7115 90.83C44.1875 90.578 44.7475 90.452 45.3915 90.452C46.0215 90.452 46.5675 90.578 47.0435 90.83C47.5195 91.082 47.9115 91.418 48.2195 91.866C48.5275 92.314 48.7515 92.832 48.9055 93.42C49.0455 94.022 49.1295 94.68 49.1295 95.394C49.1295 96.122 49.0455 96.78 48.9055 97.382C48.7515 97.984 48.5275 98.502 48.2195 98.922C47.9115 99.356 47.5195 99.692 47.0435 99.93C46.5675 100.182 46.0215 100.294 45.3915 100.294Z" fill="white"/>
<path d="M115.803 31.1153C127.399 32.6699 138.456 36.9676 148.058 43.6516C157.659 50.3356 165.529 59.2133 171.012 69.5477L151.517 79.8919C147.678 72.6578 142.17 66.4435 135.449 61.7646C128.728 57.0858 120.987 54.0775 112.871 52.9893L115.803 31.1153Z" fill="#FFA665"/>
<path d="M143.303 56.0337H138.971V55.3377L143.363 50.0577H144.155V55.2177H145.715V56.0337H144.155V58.1697H143.303V56.0337ZM143.303 55.2177V51.3537L140.111 55.2177H143.303Z" fill="white"/>
<path d="M172.948 72.8388C177.659 83.12 179.965 94.3491 179.686 105.653C179.407 116.957 176.551 128.031 171.34 138.013L152.023 127.65C155.671 120.662 157.67 112.91 157.865 104.997C158.061 97.0835 156.447 89.2226 153.149 82.0255L172.948 72.8388Z" fill="#8674FE"/>
<path d="M169.088 104.02H164.756V103.324L169.148 98.044H169.94V103.204H171.5V104.02H169.94V106.156H169.088V104.02ZM169.088 103.204V99.34L165.896 103.204H169.088Z" fill="white"/>
<path d="M91.9643 114.672C90.6202 114.672 89.4043 114.48 88.2842 114.096C87.1322 113.712 86.0122 113.104 84.8602 112.208L86.1722 110.256C87.1642 111.088 88.0922 111.632 88.9562 111.952C89.7882 112.272 90.7803 112.432 91.9323 112.432C92.7002 112.432 93.4362 112.368 94.1403 112.176C94.8442 111.984 95.4523 111.728 95.9643 111.376C96.4763 111.024 96.8603 110.608 97.1483 110.096C97.4363 109.584 97.5963 109.008 97.5963 108.304C97.5963 107.536 97.4363 106.896 97.1803 106.384C96.8923 105.872 96.5083 105.424 95.9963 105.072C95.4843 104.752 94.8442 104.496 94.1083 104.336C93.3403 104.176 92.5083 104.08 91.5483 104.08H90.7803V101.872H91.4523C93.4362 101.872 94.8763 101.552 95.7723 100.848C96.6363 100.176 97.0843 99.248 97.0843 98.032C97.0843 97.488 96.9563 97.008 96.7323 96.56C96.4763 96.144 96.1562 95.76 95.7083 95.44C95.2603 95.12 94.7483 94.896 94.1403 94.704C93.5323 94.512 92.8603 94.416 92.1562 94.416C91.0363 94.416 90.0763 94.576 89.2762 94.896C88.4442 95.216 87.5482 95.792 86.5242 96.592L85.2762 94.64C86.3962 93.776 87.5162 93.136 88.6042 92.752C89.6922 92.368 90.8762 92.176 92.2203 92.176C93.2122 92.176 94.1403 92.304 95.0363 92.56C95.9003 92.816 96.6683 93.2 97.3403 93.68C97.9803 94.192 98.5243 94.8 98.9083 95.504C99.2923 96.208 99.5163 97.008 99.5163 97.872C99.5163 98.608 99.3883 99.28 99.1323 99.888C98.8763 100.528 98.5563 101.072 98.1723 101.52C97.7882 101.968 97.4043 102.288 97.0843 102.48C96.7642 102.672 96.4443 102.832 96.1562 102.896C96.5402 102.96 96.9243 103.12 97.3083 103.312C97.6923 103.504 98.0763 103.856 98.5243 104.336C98.9722 104.816 99.3243 105.392 99.5803 106.064C99.8363 106.736 99.9963 107.472 99.9963 108.304C99.9963 109.328 99.7723 110.256 99.3243 111.056C98.8763 111.888 98.3003 112.56 97.5642 113.072C96.8282 113.616 95.9963 114.032 95.0363 114.288C94.0763 114.544 93.0522 114.672 91.9643 114.672ZM111.99 112.432C113.878 112.432 115.382 111.728 116.502 110.256C117.622 108.816 118.198 106.544 118.198 103.472C118.198 100.4 117.622 98.128 116.502 96.624C115.35 95.12 113.846 94.352 111.99 94.352C110.07 94.352 108.534 95.12 107.446 96.592C106.358 98.096 105.814 100.4 105.814 103.472C105.814 106.544 106.358 108.816 107.446 110.256C108.534 111.728 110.07 112.432 111.99 112.432ZM111.99 114.672C110.518 114.672 109.238 114.416 108.15 113.84C107.062 113.296 106.166 112.528 105.462 111.536C104.758 110.576 104.214 109.392 103.894 108.016C103.542 106.64 103.382 105.136 103.382 103.472C103.382 101.84 103.542 100.336 103.894 98.96C104.214 97.616 104.758 96.432 105.462 95.408C106.166 94.384 107.062 93.616 108.15 93.04C109.238 92.464 110.518 92.176 111.99 92.176C113.43 92.176 114.678 92.464 115.766 93.04C116.854 93.616 117.75 94.384 118.454 95.408C119.158 96.432 119.67 97.616 120.022 98.96C120.342 100.336 120.534 101.84 120.534 103.472C120.534 105.136 120.342 106.64 120.022 108.016C119.67 109.392 119.158 110.576 118.454 111.536C117.75 112.528 116.854 113.296 115.766 113.84C114.678 114.416 113.43 114.672 111.99 114.672Z" fill="#181C32"/>
</svg>
