<svg xmlns="http://www.w3.org/2000/svg" width="25" height="24" viewBox="0 0 25 24" fill="none">
<path opacity="0.4" d="M12.5001 22.0002C17.2884 22.0002 21.1701 18.1185 21.1701 13.3302C21.1701 8.54185 17.2884 4.66016 12.5001 4.66016C7.71177 4.66016 3.83008 8.54185 3.83008 13.3302C3.83008 18.1185 7.71177 22.0002 12.5001 22.0002Z" fill="#F15922"/>
<path d="M12.5 13.75C12.09 13.75 11.75 13.41 11.75 13V8C11.75 7.59 12.09 7.25 12.5 7.25C12.91 7.25 13.25 7.59 13.25 8V13C13.25 13.41 12.91 13.75 12.5 13.75Z" fill="#F15922"/>
<path d="M15.3901 3.45H9.61014C9.21014 3.45 8.89014 3.13 8.89014 2.73C8.89014 2.33 9.21014 2 9.61014 2H15.3901C15.7901 2 16.1101 2.32 16.1101 2.72C16.1101 3.12 15.7901 3.45 15.3901 3.45Z" fill="#F15922"/>
</svg>