 <svg
                      xmlns="http://www.w3.org/2000/svg"
                      width="16"
                      height="16"
                      viewBox="0 0 16 16"
                      fill="none"
                    >
                      <path
                        opacity="0.4"
                        d="M14.4334 6.68649C14.1734 6.31315 13.7134 6.09982 13.1868 6.09982H10.4534C10.2734 6.09982 10.1068 6.02649 9.99342 5.89315C9.87342 5.75982 9.82675 5.57315 9.85342 5.37982L10.1934 3.19315C10.3401 2.53982 9.90675 1.80649 9.25342 1.58649C8.64675 1.35982 7.93342 1.66649 7.64675 2.09982L4.83342 6.27982L4.75342 6.41315V12.3065L4.85342 12.4065L6.96675 14.0398C7.24675 14.3198 7.88008 14.4732 8.32675 14.4732H10.9268C11.8201 14.4732 12.7201 13.7998 12.9201 12.9798L14.5601 7.98649C14.7334 7.51315 14.6868 7.05315 14.4334 6.68649Z"
                        fill="currentColor"
                      />
                      <path
                        d="M3.4735 4.25391H2.78683C1.7535 4.25391 1.3335 4.65391 1.3335 5.64057V12.3472C1.3335 13.3339 1.7535 13.7339 2.78683 13.7339H3.4735C4.50683 13.7339 4.92683 13.3339 4.92683 12.3472V5.64057C4.92683 4.65391 4.50683 4.25391 3.4735 4.25391Z"
                        fill="currentColor"
                      />
                    </svg>