<svg xmlns="http://www.w3.org/2000/svg" width="24" height="24" viewBox="0 0 24 24" fill="none">
  <path opacity="0.4" d="M19.3399 14.4904L18.3399 12.8304C18.1299 12.4604 17.9399 11.7604 17.9399 11.3504V8.82039C17.9399 5.56039 15.2899 2.90039 12.0199 2.90039C8.74994 2.90039 6.09994 5.56039 6.09994 8.82039V11.3504C6.09994 11.7604 5.90994 12.4604 5.69994 12.8204L4.68994 14.4904C4.28994 15.1604 4.19994 15.9004 4.44994 16.5804C4.68994 17.2504 5.25994 17.7704 5.99994 18.0204C7.93994 18.6804 9.97994 19.0004 12.0199 19.0004C14.0599 19.0004 16.0999 18.6804 18.0399 18.0304C18.7399 17.8004 19.2799 17.2704 19.5399 16.5804C19.7999 15.8904 19.7299 15.1304 19.3399 14.4904Z" fill="currentColor"/>
  <path d="M14.25 3.32C13.56 3.05 12.81 2.9 12.02 2.9C11.24 2.9 10.49 3.04 9.80005 3.32C10.23 2.51 11.08 2 12.02 2C12.97 2 13.81 2.51 14.25 3.32Z" fill="currentColor"/>
  <path d="M14.8299 20.01C14.4099 21.17 13.2999 22 11.9999 22C11.2099 22 10.4299 21.68 9.87993 21.11C9.55993 20.81 9.31993 20.41 9.17993 20C9.30993 20.02 9.43993 20.03 9.57993 20.05C9.80993 20.08 10.0499 20.11 10.2899 20.13C10.8599 20.18 11.4399 20.21 12.0199 20.21C12.5899 20.21 13.1599 20.18 13.7199 20.13C13.9299 20.11 14.1399 20.1 14.3399 20.07C14.4999 20.05 14.6599 20.03 14.8299 20.01Z" fill="currentColor"/>
</svg>