 <svg
                  xmlns="http://www.w3.org/2000/svg"
                  width="56"
                  height="56"
                  viewBox="0 0 56 56"
                  fill="none"
                >
                  <path
                    opacity="0.4"
                    d="M33.9501 52.3127C33.1801 52.3127 32.4567 51.7993 32.2467 51.006C32.0134 50.0727 32.5501 49.116 33.4834 48.8593C42.9567 46.3627 49.5601 37.776 49.5601 27.976C49.5601 16.076 39.8767 6.39268 27.9767 6.39268C17.8734 6.39268 11.2467 12.296 8.14341 15.866H15.0034C15.9601 15.866 16.7534 16.6593 16.7534 17.616C16.7534 18.5727 16.0067 19.3893 15.0267 19.3893H4.69008C4.52675 19.3893 4.36341 19.366 4.20008 19.3193C3.99008 19.2493 3.80341 19.156 3.64008 19.0393C3.43008 18.8993 3.26675 18.7127 3.15008 18.5027C3.03341 18.2693 2.94008 18.036 2.91675 17.7793C2.91675 17.7093 2.91675 17.6627 2.91675 17.5927V6.99935C2.91675 6.04268 3.71008 5.24935 4.66675 5.24935C5.62341 5.24935 6.41675 6.04268 6.41675 6.99935V12.576C10.2201 8.49268 17.3834 2.91602 28.0001 2.91602C41.8367 2.91602 53.0834 14.1627 53.0834 27.9993C53.0834 39.386 45.4067 49.3727 34.3934 52.266C34.2534 52.2893 34.0901 52.3127 33.9501 52.3127Z"
                    fill="#F3A119"
                  />
                  <path
                    d="M26.3434 53.0367C26.2967 53.0367 26.2267 53.0367 26.1801 53.0133C23.6834 52.85 21.2334 52.29 18.9001 51.38C18.2234 51.1233 17.7801 50.4467 17.7801 49.7233C17.7801 49.5133 17.8267 49.3033 17.8967 49.1167C18.2467 48.23 19.2734 47.7633 20.1601 48.1133C22.1667 48.9067 24.2901 49.3733 26.4368 49.5367H26.4601C27.3934 49.5833 28.0934 50.3767 28.0934 51.31C28.0934 51.3333 28.0934 51.38 28.0934 51.4033C28.0234 52.3133 27.2534 53.0367 26.3434 53.0367ZM13.4867 48.02C13.0901 48.02 12.7167 47.9033 12.3901 47.6467C10.4301 46.0833 8.72675 44.24 7.30342 42.1633C7.09342 41.86 6.97675 41.5333 6.97675 41.1833C6.97675 40.6 7.25675 40.0633 7.74675 39.7367C8.51675 39.2 9.66008 39.41 10.1734 40.18C11.4101 41.9767 12.8801 43.5633 14.5834 44.8933C14.9801 45.22 15.2367 45.71 15.2367 46.2467C15.2367 46.6433 15.1201 47.04 14.8634 47.3667C14.5367 47.7867 14.0234 48.02 13.4867 48.02ZM5.69341 36.6333C4.92341 36.6333 4.24675 36.1433 4.03675 35.42C3.29008 33.0167 2.91675 30.52 2.91675 28C2.91675 27.0433 3.71008 26.25 4.66675 26.25C5.62341 26.25 6.41675 27.0433 6.41675 28C6.41675 30.17 6.74342 32.3167 7.37341 34.37C7.42008 34.5333 7.44342 34.72 7.44342 34.9067C7.44342 35.6767 6.95342 36.33 6.23008 36.5633C6.04342 36.61 5.88008 36.6333 5.69341 36.6333Z"
                    fill="#F3A119"
                  />
                  <path
                    d="M34.5799 37.7306C34.2766 37.7306 33.9733 37.6606 33.6933 37.474L26.4599 33.1573C24.6633 32.084 23.3333 29.7273 23.3333 27.6506V18.084C23.3333 17.1273 24.1266 16.334 25.0833 16.334C26.0399 16.334 26.8333 17.1273 26.8333 18.084V27.6506C26.8333 28.4906 27.5333 29.7273 28.2566 30.1473L35.4899 34.464C36.3299 34.954 36.5866 36.0273 36.0966 36.8673C35.7466 37.4273 35.1633 37.7306 34.5799 37.7306Z"
                    fill="#F3A119"
                  />
                </svg>