 <svg
                  xmlns="http://www.w3.org/2000/svg"
                  width="56"
                  height="56"
                  viewBox="0 0 56 56"
                  fill="none"
                >
                  <path
                    d="M16.8934 4.66602H12.4601C7.35008 4.66602 4.66675 7.34935 4.66675 12.436V16.8693C4.66675 21.956 7.35008 24.6394 12.4367 24.6394H16.8701C21.9567 24.6394 24.6401 21.956 24.6401 16.8693V12.436C24.6634 7.34935 21.9801 4.66602 16.8934 4.66602Z"
                    fill="#77BF43"
                  />
                  <path
                    opacity="0.4"
                    d="M43.5634 4.66602H39.1301C34.0434 4.66602 31.3601 7.34935 31.3601 12.436V16.8693C31.3601 21.956 34.0434 24.6394 39.1301 24.6394H43.5634C48.6501 24.6394 51.3334 21.956 51.3334 16.8693V12.436C51.3334 7.34935 48.6501 4.66602 43.5634 4.66602Z"
                    fill="#77BF43"
                  />
                  <path
                    d="M43.5634 31.3359H39.1301C34.0434 31.3359 31.3601 34.0193 31.3601 39.1059V43.5393C31.3601 48.6259 34.0434 51.3093 39.1301 51.3093H43.5634C48.6501 51.3093 51.3334 48.6259 51.3334 43.5393V39.1059C51.3334 34.0193 48.6501 31.3359 43.5634 31.3359Z"
                    fill="#77BF43"
                  />
                  <path
                    opacity="0.4"
                    d="M16.8934 31.3359H12.4601C7.35008 31.3359 4.66675 34.0193 4.66675 39.1059V43.5393C4.66675 48.6493 7.35008 51.3326 12.4367 51.3326H16.8701C21.9567 51.3326 24.6401 48.6493 24.6401 43.5626V39.1293C24.6634 34.0193 21.9801 31.3359 16.8934 31.3359Z"
                    fill="#77BF43"
                  />
                </svg>