<svg xmlns="http://www.w3.org/2000/svg" width="48" height="48" viewBox="0 0 26 26" fill="none">
  <g clip-path="url(#clip0_1507_2234)">
    <path d="M10.3883 12.304L10.3883 10.771C10.3883 10.1219 10.9131 9.59709 11.5588 9.60054L24.9793 9.59709C25.6284 9.59709 26.1532 10.1219 26.1498 10.7675L26.1498 24.1915C26.1498 24.8406 25.625 25.3654 24.9793 25.362L23.4463 25.362C22.7903 25.362 22.2621 24.8199 22.2759 24.1639L22.4727 16.0398L12.5497 25.9627C12.0905 26.4219 11.3516 26.4219 10.8924 25.9627L9.78757 24.8579C9.32837 24.3987 9.32837 23.6598 9.78757 23.2006L19.7105 13.2776L11.5864 13.4744C10.927 13.4917 10.3849 12.9634 10.3883 12.304Z" fill="#A2A2A2"/>
  </g>
  <defs>
    <clipPath id="clip0_1507_2234">
      <rect width="35" height="35" fill="white" transform="translate(18.0742 35.3555) rotate(-135)"/>
    </clipPath>
  </defs>
</svg>